<?xml version="1.0" standalone="no"?>
<!DOCTYPE svg PUBLIC "-//W3C//DTD SVG 1.1//EN" "http://www.w3.org/Graphics/SVG/1.1/DTD/svg11.dtd" >
<svg xmlns="http://www.w3.org/2000/svg" xmlns:xlink="http://www.w3.org/1999/xlink" version="1.1">
<metadata>
Created by FontForge 20201107 at Sun Feb 16 20:54:58 2025
 By 
</metadata>
<defs>
<font id="Karrik-Regular" horiz-adv-x="1024" >
  <font-face 
    font-family="Karrik"
    font-weight="400"
    font-stretch="normal"
    units-per-em="2048"
    panose-1="0 0 0 0 0 0 0 0 0 0"
    ascent="1536"
    descent="-512"
    x-height="1024"
    cap-height="1393"
    bbox="-123.722 -614 2564 2400"
    underline-thickness="0"
    underline-position="0"
    unicode-range="U+000D-FB04"
  />
<missing-glyph horiz-adv-x="512" 
 />
    <glyph glyph-name="f_f" unicode="ff" horiz-adv-x="1120" 
d="M164 0v799h-123v225h123v168q0 39 13 76.5t38.5 70.5t69.5 53.5t100 20.5q54 0 162 -12v-225q-4 0 -29.5 2t-46.5 2q-82 0 -82 -78v-78h143v-225h-143v-799h-225zM696 0v799h-123v225h123v168q0 38 13 76t39 71t70 53.5t100 20.5q53 0 161 -12v-225q-4 0 -29 2t-46 2
q-82 0 -82 -78v-78h143v-225h-143v-799h-226z" />
    <glyph glyph-name="fi" unicode="fi" horiz-adv-x="1011" 
d="M164 0v799h-123v225h123v168q0 39 13 76.5t38.5 70.5t69.5 53.5t100 20.5q54 0 162 -12v-225q-4 0 -29.5 2t-46.5 2q-82 0 -82 -78v-78h143v-225h-143v-799h-225zM655 1413h234v-246h-234v246zM655 1024h234v-1024h-234v1024z" />
    <glyph glyph-name="fl" unicode="fl" horiz-adv-x="1026" 
d="M164 0v799h-123v225h123v168q0 39 13 76.5t38.5 70.5t69.5 53.5t100 20.5q54 0 162 -12v-225q-4 0 -29.5 2t-46.5 2q-82 0 -82 -78v-78h143v-225h-143v-799h-225zM670 1393h233v-1393h-233v1393z" />
    <glyph glyph-name="f_f_i" unicode="ffi" horiz-adv-x="1585" 
d="M737 0v799h-123v225h123v168q0 39 13 76.5t38.5 70.5t69.5 53.5t100 20.5q54 0 162 -12v-225q-4 0 -29.5 2t-46.5 2q-81 0 -81 -78v-78h143v-225h-143v-799h-226zM1229 1413h233v-246h-233v246zM164 0v799h-123v225h123v168q0 39 13 76.5t38.5 70.5t69.5 53.5t100 20.5
q54 0 162 -12v-225q-4 0 -29.5 2t-46.5 2q-82 0 -82 -78v-78h143v-225h-143v-799h-225zM1229 1024h233v-1024h-233v1024z" />
    <glyph glyph-name="f_f_l" unicode="ffl" horiz-adv-x="1599" 
d="M737 0v799h-123v225h123v168q0 39 13 76.5t38.5 70.5t69.5 53.5t100 20.5q54 0 162 -12v-225q-4 0 -29.5 2t-46.5 2q-81 0 -81 -78v-78h143v-225h-143v-799h-226zM164 0v799h-123v225h123v168q0 39 13 76.5t38.5 70.5t69.5 53.5t100 20.5q54 0 162 -12v-225q-4 0 -29.5 2
t-46.5 2q-82 0 -82 -78v-78h143v-225h-143v-799h-225zM1243 1393h234v-1393h-234v1393z" />
    <glyph glyph-name=".notdef" horiz-adv-x="512" 
 />
    <glyph glyph-name="glyph1" horiz-adv-x="0" 
 />
    <glyph glyph-name="nonmarkingreturn" horiz-adv-x="682" 
 />
    <glyph glyph-name="CR" unicode="&#xd;" horiz-adv-x="0" 
 />
    <glyph glyph-name="space" unicode=" " horiz-adv-x="450" 
 />
    <glyph glyph-name="exclam" unicode="!" horiz-adv-x="512" 
d="M143 442l-30 951h286l-30 -951h-226zM113 287h286v-287h-286v287z" />
    <glyph glyph-name="quotedbl" unicode="&#x22;" horiz-adv-x="661" 
d="M63 797l-20 596h238l-21 -596h-197zM401 797l-20 596h237l-20 -596h-197z" />
    <glyph glyph-name="numbersign" unicode="#" horiz-adv-x="1323" 
d="M139 0l103 348h-144v184h197l98 328h-172v184h225l103 349h213l-103 -349h209l103 349h213l-103 -349h144v-184h-197l-98 -328h172v-184h-225l-103 -348h-213l103 348h-209l-103 -348h-213zM508 532h209l98 328h-209z" />
    <glyph glyph-name="dollar" unicode="$" horiz-adv-x="1323" 
d="M1167 952h-245q-4 36 -8 62t-15.5 60.5t-27.5 58.5t-44.5 46.5t-66.5 34.5v-372q52 -8 89.5 -15.5t86 -22.5t82 -34t69 -50t57 -70.5t35 -95.5t13.5 -124q0 -186 -116.5 -302.5t-315.5 -141.5v-150h-185v148q-121 11 -214 56t-145.5 111t-74.5 144.5t-10 161.5h258
q3 -49 7 -79.5t15.5 -69t30.5 -62.5t52.5 -44.5t80.5 -29.5v414q-50 9 -87.5 18t-83.5 25.5t-79 36.5t-66.5 51.5t-54 70.5t-33.5 94t-13 122q0 161 113.5 273t303.5 132v147h185v-149q218 -25 319.5 -147t87.5 -308zM416 1036q0 -69 41 -106t118 -56v347q-79 -17 -119 -66
t-40 -119zM936 369q0 76 -45.5 116.5t-130.5 63.5v-377q91 19 133.5 72t42.5 125z" />
    <glyph glyph-name="percent" unicode="%" horiz-adv-x="1814" 
d="M389 0l832 1393h204l-831 -1393h-205zM408 573q-153 0 -256 113t-103 307q0 195 102.5 307.5t256.5 112.5q155 0 258.5 -112.5t103.5 -307.5q0 -194 -104 -307t-258 -113zM408 756q89 0 132.5 66.5t43.5 170.5q0 105 -43.5 171.5t-132.5 66.5t-132 -66.5t-43 -171.5
t43 -171t132 -66zM1403 -20q-153 0 -256 112.5t-103 306.5q0 195 102.5 307.5t256.5 112.5q155 0 258.5 -112.5t103.5 -307.5q0 -194 -104 -306.5t-258 -112.5zM1403 162q89 0 132.5 66.5t43.5 170.5q0 105 -43.5 171.5t-132.5 66.5q-88 0 -131 -66.5t-43 -171.5t42.5 -171
t131.5 -66z" />
    <glyph glyph-name="ampersand" unicode="&#x26;" horiz-adv-x="1173" 
d="M879 0l-60 76q-148 -96 -340 -96q-203 0 -331 106t-128 287q0 67 15 123.5t39 97t60 74.5t72.5 56.5t82.5 43.5q-44 68 -66 131.5t-22 144.5q0 164 103 266.5t261 102.5q162 0 255 -90.5t93 -232.5q0 -65 -16 -120t-41.5 -94t-65 -73t-77.5 -56t-88 -45l213 -274
q34 92 34 238h246q-12 -246 -133 -424l189 -242h-295zM426 1057q0 -94 82 -203q87 35 133.5 81t46.5 122q0 60 -34 95.5t-97 35.5t-97 -35.5t-34 -95.5zM246 389q0 -88 64.5 -141t181.5 -53q120 0 200 47l-282 366q-79 -39 -121.5 -90t-42.5 -129z" />
    <glyph glyph-name="quotesingle" unicode="'" horiz-adv-x="323" 
d="M63 797l-20 596h238l-21 -596h-197z" />
    <glyph glyph-name="parenleft" unicode="(" horiz-adv-x="595" 
d="M340 -338q-105 185 -166.5 409.5t-62.5 440.5q-1 214 52 407t177 443h205q-228 -467 -228 -852q0 -198 64.5 -435.5t163.5 -412.5h-205z" />
    <glyph glyph-name="parenright" unicode=")" horiz-adv-x="595" 
d="M256 1362q105 -185 166.5 -409.5t62.5 -440.5q1 -214 -52 -407t-177 -443h-205q228 467 228 852q0 198 -64.5 435.5t-163.5 412.5h205z" />
    <glyph glyph-name="asterisk" unicode="*" horiz-adv-x="696" 
d="M102 811l103 178h-205v164h205l-103 178l144 82l102 -176l103 176l143 -82l-102 -178h204v-164h-204l102 -178l-143 -82l-103 176l-102 -176z" />
    <glyph glyph-name="plus" unicode="+" horiz-adv-x="1409" 
d="M143 578v204h459v459h205v-459h459v-204h-459v-459h-205v459h-459z" />
    <glyph glyph-name="comma" unicode="," horiz-adv-x="471" 
d="M92 287h287v-283q0 -155 -69.5 -223t-219.5 -68v144q69 0 107.5 40t38.5 103h-144v287z" />
    <glyph glyph-name="hyphen" unicode="-" horiz-adv-x="718" 
d="M45 420v184h629v-184h-629z" />
    <glyph glyph-name="period" unicode="." horiz-adv-x="471" 
d="M92 287h287v-287h-287v287z" />
    <glyph glyph-name="slash" unicode="/" horiz-adv-x="700" 
d="M-63 -229l632 1726h195l-633 -1726h-194z" />
    <glyph glyph-name="zero" unicode="0" horiz-adv-x="1323" 
d="M659 -20q-115 0 -215 45t-177 131.5t-121 225.5t-44 314t44 314t120.5 226t176.5 132t216 45q117 0 217.5 -45t178 -132t122 -226t44.5 -314t-44.5 -314t-122.5 -225.5t-178.5 -131.5t-216.5 -45zM659 231q151 0 228.5 125.5t77.5 339.5t-77.5 339.5t-228.5 125.5
q-150 0 -226.5 -125t-76.5 -340t76.5 -340t226.5 -125z" />
    <glyph glyph-name="one" unicode="1" horiz-adv-x="1323" 
d="M205 0v199h385v805h-326v163q87 6 153 22t105 36.5t66.5 50.5t39.5 56t21 61h185v-1194h354v-199h-983z" />
    <glyph glyph-name="two" unicode="2" horiz-adv-x="1323" 
d="M174 0v205l463 411q58 51 87.5 78.5t67 67.5t55 69t30 66.5t12.5 77.5q0 89 -61 151t-173 62q-119 0 -180 -78.5t-63 -230.5h-246q-7 124 28 225.5t104 168.5t165 103.5t211 36.5q111 0 201 -33.5t146.5 -90.5t87 -130t30.5 -155q0 -160 -78 -283t-221 -238l-295 -237
h600v-246h-971z" />
    <glyph glyph-name="three" unicode="3" horiz-adv-x="1323" 
d="M539 821h114q92 0 151.5 55t59.5 136q0 79 -51.5 127.5t-165.5 48.5q-65 0 -110 -19t-71 -56.5t-39 -83t-19 -109.5h-246q-6 71 11.5 141.5t59.5 134t102.5 112t147 77t187.5 28.5q110 0 199.5 -34t144 -88.5t83.5 -118.5t29 -130q0 -103 -43.5 -185t-132.5 -124
q205 -99 205 -303q0 -89 -34 -170t-96.5 -143.5t-159.5 -99.5t-216 -37q-101 0 -187.5 28.5t-147 77t-102.5 112t-59.5 134t-11.5 141.5h246q-5 -114 63 -191t197 -77q117 0 177.5 61.5t60.5 163.5q0 91 -59.5 149t-172.5 58h-114v184z" />
    <glyph glyph-name="four" unicode="4" horiz-adv-x="1323" 
d="M123 332v205l608 856h264v-856h246v-205h-246v-332h-264v332h-608zM354 537h377v516z" />
    <glyph glyph-name="five" unicode="5" horiz-adv-x="1323" 
d="M453 608h-254q66 416 73 783l840 2v-246h-631l-24 -289q111 78 278 78q193 0 309.5 -129.5t116.5 -335.5q0 -103 -38 -193t-104.5 -156t-162.5 -104t-207 -38q-76 0 -148.5 22.5t-133.5 66.5t-104 104t-61 141t-3 171h225q-12 -134 53 -207t185 -73q115 0 180 75.5
t65 188.5q0 118 -60 197t-181 79q-89 0 -143.5 -43t-69.5 -94z" />
    <glyph glyph-name="six" unicode="6" horiz-adv-x="1323" 
d="M1180 471q0 -211 -134 -351t-354 -140q-242 0 -385 190t-143 506q0 342 157.5 539.5t419.5 197.5q102 0 185 -33.5t134.5 -89t79 -124.5t27.5 -144h-245q-31 168 -222 168q-138 0 -217 -99.5t-88 -304.5q66 77 151.5 119.5t207.5 42.5q192 0 309 -135t117 -342zM696 709
q-116 0 -172.5 -74.5t-56.5 -190.5t56.5 -190t172.5 -74t173 74t57 190t-57 190.5t-173 74.5z" />
    <glyph glyph-name="seven" unicode="7" horiz-adv-x="1323" 
d="M160 1393h1044v-164q-63 -49 -111.5 -93t-103 -107t-94 -130.5t-77.5 -160t-61.5 -198.5t-37.5 -243.5t-14 -296.5h-324q0 186 40.5 366.5t108 325t145 258.5t161.5 197h-676v246z" />
    <glyph glyph-name="eight" unicode="8" horiz-adv-x="1323" 
d="M659 -20q-211 0 -353 113t-142 300q0 112 54 200t149 142q-76 49 -119 122.5t-43 166.5q0 173 122 281t332 108q212 0 335.5 -108t123.5 -281q0 -93 -43 -166.5t-119 -120.5q97 -53 150 -141t53 -203q0 -189 -139 -301t-361 -112zM659 846q96 0 149.5 43.5t53.5 126.5
t-53.5 126.5t-149.5 43.5q-95 0 -147.5 -43t-52.5 -127t52.5 -127t147.5 -43zM659 182q108 0 176 60.5t68 154.5t-68 155.5t-176 61.5t-174.5 -61t-66.5 -156t66.5 -155t174.5 -60z" />
    <glyph glyph-name="nine" unicode="9" horiz-adv-x="1323" 
d="M160 922q0 138 58.5 249t171.5 176.5t261 65.5q239 0 382 -190t143 -506q0 -342 -158 -539.5t-420 -197.5q-207 0 -324 112.5t-102 278.5h246q2 -27 13 -54.5t33 -54t62 -43t92 -16.5q134 0 218 102.5t104 296.5q-134 -158 -354 -158q-204 0 -315 133t-111 345zM649 655
q116 0 173 74.5t57 190.5t-57 190t-173 74t-172.5 -74t-56.5 -190t56.5 -190.5t172.5 -74.5z" />
    <glyph glyph-name="colon" unicode=":" horiz-adv-x="471" 
d="M92 1024h287v-287h-287v287zM92 287h287v-287h-287v287z" />
    <glyph glyph-name="semicolon" unicode=";" horiz-adv-x="471" 
d="M92 1024h287v-287h-287v287zM92 287h287v-283q0 -155 -69.5 -223t-219.5 -68v144q69 0 107.5 40t38.5 103h-144v287z" />
    <glyph glyph-name="less" unicode="&#x3c;" horiz-adv-x="1409" 
d="M1229 1237v-225l-891 -332l891 -332v-225l-1110 432v250z" />
    <glyph glyph-name="equal" unicode="=" horiz-adv-x="1409" 
d="M143 844v225h1123v-225h-1123zM143 293v225h1123v-225h-1123z" />
    <glyph glyph-name="greater" unicode="&#x3e;" horiz-adv-x="1409" 
d="M176 1237l1110 -432v-250l-1110 -432v225l891 332l-891 332v225z" />
    <glyph glyph-name="question" unicode="?" horiz-adv-x="1021" 
d="M381 442v29q0 52 30.5 104.5t73.5 98t86.5 92.5t74 106.5t30.5 122.5q0 90 -48 139.5t-141 49.5q-190 0 -184 -258l-278 59q19 207 140.5 317.5t332.5 110.5q216 0 344.5 -107.5t128.5 -265.5q0 -84 -34.5 -159.5t-81.5 -128.5t-93.5 -99.5t-75 -91.5t-20.5 -86l6 -33
h-291zM373 287h286v-287h-286v287z" />
    <glyph glyph-name="at" unicode="@" horiz-adv-x="1753" 
d="M1331 -20q-92 0 -139.5 24.5t-81.5 89.5q-38 -42 -115.5 -78t-183.5 -36q-163 0 -257.5 91t-94.5 216q0 278 471 278h114v29q0 84 -47.5 134t-130.5 50q-79 0 -121.5 -39t-39.5 -104h-250q0 127 111 217t306 90q187 0 292.5 -87.5t105.5 -238.5v-335q0 -54 14 -71t59 -17
q55 0 99.5 79t44.5 240q0 157 -47.5 278.5t-131.5 197t-193 113.5t-238 38t-238.5 -38t-193.5 -111t-131.5 -190.5t-47.5 -267.5q0 -86 13.5 -161t33 -126.5t48 -98.5t51 -75t48.5 -57q9 -9 13 -14h-264q-127 209 -127 512q0 184 58.5 338.5t162.5 261.5t251.5 167t322.5 60
q174 0 322.5 -59t251.5 -163t161.5 -249.5t58.5 -314.5q0 -270 -89 -421.5t-251 -151.5zM696 266q0 -59 45 -91t111 -32q90 0 141 49t51 115v82q-136 4 -212.5 -8t-106 -39t-29.5 -76z" />
    <glyph glyph-name="A" unicode="A" horiz-adv-x="1261" 
d="M1010 0l-150 383h-459l-149 -383h-258l532 1393h209l533 -1393h-258zM487 608h287l-143 367z" />
    <glyph glyph-name="B" unicode="B" horiz-adv-x="1310" 
d="M176 0v1393h567q121 0 210.5 -28.5t142 -80t77.5 -115.5t25 -141q0 -180 -156 -311q101 -54 144 -136t43 -173q0 -186 -120.5 -297t-354.5 -111h-578zM745 1161h-325v-338h319q112 0 162.5 40.5t50.5 131.5q0 166 -207 166zM739 592h-319v-361h366q95 0 147 45.5
t52 131.5q0 91 -64.5 137.5t-181.5 46.5z" />
    <glyph glyph-name="C" unicode="C" horiz-adv-x="1396" 
d="M1063 578h256q-11 -272 -174.5 -435t-425.5 -163q-125 0 -235 46t-196 133t-136 225.5t-50 311.5q0 174 48 312t132 225.5t195.5 133.5t241.5 46q261 0 419 -158.5t181 -453.5h-275q-17 188 -105 278t-230 90q-164 0 -258.5 -120t-94.5 -353t95 -353t258 -120
q136 0 214 78.5t140 276.5z" />
    <glyph glyph-name="D" unicode="D" horiz-adv-x="1386" 
d="M176 0v1393h416q315 0 504.5 -188t189.5 -509q0 -320 -190 -508t-504 -188h-416zM578 231q220 0 337 117.5t117 347.5t-117 347.5t-337 117.5h-158v-930h158z" />
    <glyph glyph-name="E" unicode="E" horiz-adv-x="1142" 
d="M176 0v1393h852v-232h-608v-284h575v-232h-575v-414h608v-231h-852z" />
    <glyph glyph-name="F" unicode="F" horiz-adv-x="1067" 
d="M176 0v1393h830v-232h-586v-284h530v-232h-530v-526q0 -84 12 -119h-256z" />
    <glyph glyph-name="G" unicode="G" horiz-adv-x="1427" 
d="M727 506v233h573l-6 -739h-231q-1 15 -2 44t-2 44q-111 -108 -320 -108q-133 0 -249 49t-202.5 139t-136 226.5t-49.5 301.5q0 166 48.5 302.5t134 226.5t202.5 139t254 49q104 0 194 -26.5t164 -79.5t123.5 -140.5t65.5 -201.5h-287q-11 91 -84.5 147.5t-189.5 56.5
q-170 0 -270.5 -126t-100.5 -347q0 -222 111 -347.5t303 -125.5q131 0 199.5 68t87.5 215h-330z" />
    <glyph glyph-name="H" unicode="H" horiz-adv-x="1384" 
d="M176 0v1393h244v-553h545v553h243v-1393h-243v598h-545v-598h-244z" />
    <glyph glyph-name="I" unicode="I" horiz-adv-x="595" 
d="M176 0v1393h244v-1393h-244z" />
    <glyph glyph-name="J" unicode="J" horiz-adv-x="937" 
d="M541 1393h241v-1053q0 -82 -25 -146.5t-63.5 -103.5t-90.5 -65t-101.5 -35.5t-100.5 -9.5q-55 0 -104.5 10t-99.5 37t-86.5 68t-59 109.5t-22.5 155.5q0 55 10 143.5t10 90.5h213v-246q0 -139 137 -139q71 0 106.5 34t35.5 85v1065z" />
    <glyph glyph-name="K" unicode="K" horiz-adv-x="1236" 
d="M176 0v1393h244v-500l446 500h293l-430 -516l426 -877h-283l-323 659l-129 -155v-504h-244z" />
    <glyph glyph-name="L" unicode="L" horiz-adv-x="1073" 
d="M176 0v1393h244v-1162h553v-231h-797z" />
    <glyph glyph-name="M" unicode="M" horiz-adv-x="1742" 
d="M176 0v1393h410l278 -899l293 899h410v-1393h-234v1163l-370 -1163h-199l-354 1151v-1151h-234z" />
    <glyph glyph-name="N" unicode="N" horiz-adv-x="1353" 
d="M176 0v1393h266l500 -908v908h236v-1393h-267l-499 907v-907h-236z" />
    <glyph glyph-name="O" unicode="O" horiz-adv-x="1443" 
d="M721 -20q-129 0 -242 50.5t-196.5 142t-132 227t-48.5 296.5t48 297t131.5 227.5t197 142t242.5 50.5q130 0 244 -50.5t197.5 -142t132 -227.5t48.5 -297t-48.5 -296.5t-132.5 -227t-198 -142t-243 -50.5zM721 223q164 0 265 127t101 346t-101 346t-265 127t-264.5 -127
t-100.5 -346t100.5 -346t264.5 -127z" />
    <glyph glyph-name="P" unicode="P" horiz-adv-x="1140" 
d="M176 0v1393h467q223 0 335 -106.5t112 -301.5t-112.5 -302.5t-332.5 -107.5h-225v-456q0 -84 12 -119h-256zM643 1161h-223v-354h217q199 0 199 178q0 84 -51 130t-142 46z" />
    <glyph glyph-name="Q" unicode="Q" horiz-adv-x="1452" 
d="M729 -20q-129 0 -242 50.5t-196 142t-131.5 227t-48.5 296.5t48 297t131 227.5t196.5 142t242.5 50.5q174 0 315 -86.5t224.5 -251t83.5 -379.5q0 -176 -56 -318t-157 -237l147 -202h-287l-57 79q-93 -38 -213 -38zM729 223q22 0 62 4l-201 279h282l117 -162
q107 129 107 352q0 219 -101.5 346t-265.5 127t-264 -126.5t-100 -346.5t100 -346.5t264 -126.5z" />
    <glyph glyph-name="R" unicode="R" horiz-adv-x="1277" 
d="M176 0v1393h578q223 0 334.5 -104t111.5 -294q0 -212 -242 -323q113 -54 138 -201l30 -174q15 -90 63 -169.5t120 -127.5h-322q-52 23 -78 83.5t-41 166.5l-22 158q-13 91 -55 140.5t-129 49.5h-242v-598h-244zM754 1161h-334v-332h328q198 0 198 166q0 79 -50.5 122.5
t-141.5 43.5z" />
    <glyph glyph-name="S" unicode="S" horiz-adv-x="1204" 
d="M1110 952h-246q-4 45 -10.5 76.5t-24 72.5t-44 66.5t-74 43.5t-111.5 18q-119 0 -180.5 -53t-61.5 -140q0 -53 26.5 -88.5t71.5 -53.5t103.5 -29t123 -20t128.5 -22t122.5 -40.5t103.5 -69t71.5 -114t26.5 -169.5q0 -209 -147.5 -329.5t-387.5 -120.5q-114 0 -208 27
t-156.5 73.5t-103 108t-54.5 129.5t-4 139h258q3 -47 7 -77t14 -68t28.5 -61.5t47.5 -45t74 -31.5t105 -10q140 0 205.5 58t65.5 147q0 51 -22 87.5t-59 56t-87 35t-106 23t-115.5 21t-115.5 28.5t-106 46t-87 72.5t-59 109.5t-22 156q0 177 136.5 293t357.5 116
q139 0 243 -34.5t165.5 -97t88.5 -145.5t19 -184z" />
    <glyph glyph-name="T" unicode="T" horiz-adv-x="1110" 
d="M432 0v1147h-364v246h974v-246h-364v-1147h-246z" />
    <glyph glyph-name="U" unicode="U" horiz-adv-x="1304" 
d="M1141 1393v-987q0 -189 -137 -307.5t-355 -118.5q-114 0 -206.5 35.5t-152.5 96.5t-92 141.5t-32 172.5v967h242v-953q0 -99 62 -157t181 -58q111 0 178.5 49.5t67.5 141.5v977h244z" />
    <glyph glyph-name="V" unicode="V" horiz-adv-x="1296" 
d="M313 1393l336 -928l334 928h258l-477 -1393h-229l-480 1393h258z" />
    <glyph glyph-name="W" unicode="W" horiz-adv-x="1722" 
d="M248 1393l229 -1010l211 1010h354l207 -1016l236 1016h246l-338 -1393h-295l-238 1098l-233 -1098h-293l-342 1393h256z" />
    <glyph glyph-name="X" unicode="X" horiz-adv-x="1239" 
d="M68 1393h276l266 -439l287 439h272l-417 -670l440 -723h-277l-307 504l-289 -504h-272l418 739z" />
    <glyph glyph-name="Y" unicode="Y" horiz-adv-x="1232" 
d="M494 0v680l-494 713h305l313 -441l322 441h293l-496 -713v-680h-243z" />
    <glyph glyph-name="Z" unicode="Z" horiz-adv-x="1118" 
d="M86 0v221l625 940h-600v232h903v-222l-627 -940h647v-231h-948z" />
    <glyph glyph-name="bracketleft" unicode="[" horiz-adv-x="602" 
d="M111 1362h430v-184h-246v-1332h246v-184h-430v1700z" />
    <glyph glyph-name="backslash" unicode="\" horiz-adv-x="700" 
d="M764 -229h-195l-632 1726h194z" />
    <glyph glyph-name="bracketright" unicode="]" horiz-adv-x="602" 
d="M492 1362v-1700h-431v184h246v1332h-246v184h431z" />
    <glyph glyph-name="asciicircum" unicode="^" 
d="M354 1130h316l286 -880h-235l-209 643l-209 -664h-215z" />
    <glyph glyph-name="underscore" unicode="_" horiz-adv-x="1243" 
d="M0 -276v174l1243 30v-174z" />
    <glyph glyph-name="grave" unicode="`" 
d="M614 1782l62 -287h-205l-233 287h376z" />
    <glyph glyph-name="a" unicode="a" horiz-adv-x="1142" 
d="M967 301q0 -88 104 -88q33 0 92 12v-225q-86 -12 -145 -12q-94 0 -145.5 23t-86.5 83q-26 -20 -43 -31.5t-60 -35t-98 -35.5t-118 -12q-169 0 -285 101t-116 238q0 168 128 248t351 80h196v49q0 83 -58 134t-151 51q-192 0 -192 -185h-250q0 161 127 254.5t322 93.5
q119 0 213.5 -34t154.5 -109.5t60 -181.5v-418zM319 295q0 -64 50 -108t131 -44q60 0 108 23.5t76 59t42.5 73t14.5 70.5v102q-129 6 -215.5 -4.5t-130 -36.5t-60 -57.5t-16.5 -77.5z" />
    <glyph glyph-name="b" unicode="b" horiz-adv-x="1171" 
d="M123 0v1393h225v-443q39 26 64.5 41t88.5 34t130 19q145 0 250.5 -74t157 -195t51.5 -271q0 -99 -31.5 -192.5t-89 -167.5t-148 -119t-198.5 -45q-24 0 -46.5 2.5t-43.5 8t-38 10.5t-36 14.5t-30 14.5t-28.5 17t-23 15.5t-21 15.5t-16.5 12v-90h-217zM864 512
q0 155 -73 231t-193 76q-117 0 -187.5 -79t-70.5 -228q0 -150 69.5 -228.5t188.5 -78.5q120 0 193 79t73 228z" />
    <glyph glyph-name="c" unicode="c" horiz-adv-x="1101" 
d="M82 504q0 237 134.5 388.5t344.5 151.5q73 0 136 -18t107 -46t81 -70t59 -80t40.5 -86.5t27 -80t16.5 -69.5h-237q-35 225 -238 225q-106 0 -176 -80t-70 -227q0 -153 75 -230t187 -77q45 0 82 13t60 31t44 49t31.5 53.5t24.5 58.5h213q0 -53 -18 -110.5t-56.5 -115
t-93 -103t-134.5 -73.5t-173 -28q-103 0 -191.5 42.5t-148.5 114.5t-93.5 167.5t-33.5 199.5z" />
    <glyph glyph-name="d" unicode="d" horiz-adv-x="1171" 
d="M1049 0h-218v90q-2 -1 -16.5 -12t-21 -15.5t-23 -15.5t-28 -16.5t-30 -15t-35.5 -14.5t-38 -10.5t-43.5 -8t-46.5 -2.5q-108 0 -198.5 45t-148 119t-89 167.5t-31.5 192.5q0 150 51.5 271t157 195t250.5 74q67 0 129.5 -19t88 -33.5t64.5 -41.5v443h226v-1393zM307 512
q0 -149 73 -228t193 -79q119 0 188.5 78.5t69.5 228.5q0 149 -70.5 228t-187.5 79q-120 0 -193 -76t-73 -231z" />
    <glyph glyph-name="e" unicode="e" horiz-adv-x="1091" 
d="M72 504q0 103 34.5 200.5t95 173t151 121t194.5 45.5q217 0 343 -151t136 -434h-727q13 -128 83.5 -191t178.5 -63q55 0 98 15t68.5 41t37.5 44.5t23 42.5h226q-4 -44 -21.5 -91.5t-54.5 -97.5t-87 -89.5t-125 -64.5t-163 -25q-145 0 -258.5 73t-173 192t-59.5 259z
M555 860q-86 0 -149.5 -48.5t-90.5 -147.5h469q-10 94 -70.5 145t-158.5 51z" />
    <glyph glyph-name="f" unicode="f" horiz-adv-x="587" 
d="M164 0v799h-123v225h123v168q0 39 13 76.5t38.5 70.5t69.5 53.5t100 20.5q54 0 162 -12v-225q-4 0 -29.5 2t-46.5 2q-82 0 -82 -78v-78h143v-225h-143v-799h-225z" />
    <glyph glyph-name="g" unicode="g" horiz-adv-x="1146" 
d="M799 0v127q-108 -86 -262 -86q-109 0 -197 39t-143.5 106t-85 153.5t-29.5 184.5q0 138 55 256.5t157.5 191t229.5 72.5q169 0 283 -94v74h217v-1004q0 -198 -116 -303.5t-339 -105.5q-221 0 -350 92t-129 256h234q11 -30 17 -44.5t25 -41.5t42 -41t63.5 -25.5
t93.5 -11.5q119 0 176.5 54.5t57.5 150.5zM307 524q0 -144 69 -221.5t185 -77.5q115 0 180.5 77t65.5 222q0 138 -65.5 216.5t-180.5 78.5q-116 0 -185 -79t-69 -216z" />
    <glyph glyph-name="h" unicode="h" horiz-adv-x="1079" 
d="M965 0h-234v676q0 83 -50 129.5t-128 46.5q-59 0 -101.5 -28.5t-64 -76t-30.5 -95t-9 -99.5v-553h-225v1393h217v-451q39 39 112.5 70.5t182.5 31.5q69 0 127 -18.5t104.5 -56t72.5 -100t26 -144.5v-725z" />
    <glyph glyph-name="i" unicode="i" horiz-adv-x="479" 
d="M123 1413h233v-246h-233v246zM123 1024h233v-1024h-233v1024z" />
    <glyph glyph-name="j" unicode="j" horiz-adv-x="471" 
d="M123 1413h225v-246h-225v246zM348 1024v-1192q0 -39 -13 -76.5t-38.5 -70.5t-69.5 -53.5t-100 -20.5q-90 0 -162 24v205q28 -16 76 -16q82 0 82 78v1122h225z" />
    <glyph glyph-name="k" unicode="k" horiz-adv-x="1003" 
d="M123 1393h233v-723l365 354h283l-357 -338l357 -686h-263l-258 532l-127 -118v-414h-233v1393z" />
    <glyph glyph-name="l" unicode="l" horiz-adv-x="479" 
d="M123 1393h233v-1393h-233v1393z" />
    <glyph glyph-name="m" unicode="m" horiz-adv-x="1671" 
d="M956 0h-233v676q0 71 -47 112t-123 41q-48 0 -84 -18.5t-57 -46.5t-34 -66.5t-17.5 -73t-4.5 -71.5v-553h-233v1024h225v-82q25 20 40 30t53.5 30.5t87.5 31t106 10.5q197 0 276 -135q135 135 324 135q143 0 232 -79.5t89 -239.5v-725h-233v676q0 71 -47 112t-123 41
q-48 0 -84 -18.5t-57 -46.5t-34 -66.5t-17.5 -73t-4.5 -71.5v-553z" />
    <glyph glyph-name="n" unicode="n" horiz-adv-x="1087" 
d="M973 0h-234v676q0 71 -49.5 112t-128.5 41q-48 0 -85 -16t-59 -41.5t-36.5 -60.5t-19.5 -68.5t-5 -69.5v-573h-233v1024h225v-82q130 102 295 102q69 0 127 -18.5t104.5 -56t72.5 -100t26 -144.5v-725z" />
    <glyph glyph-name="o" unicode="o" horiz-adv-x="1146" 
d="M82 504q0 140 57.5 262t171.5 200t262 78q112 0 206 -45.5t155.5 -121t96 -172.5t34.5 -201q0 -78 -19.5 -153.5t-60 -142.5t-97.5 -118t-138.5 -80.5t-176.5 -29.5q-118 0 -214 45t-155 120.5t-90.5 167.5t-31.5 191zM840 512q0 138 -73 222.5t-194 84.5t-193.5 -84
t-72.5 -223q0 -145 72.5 -226t193.5 -81t194 81t73 226z" />
    <glyph glyph-name="p" unicode="p" horiz-adv-x="1171" 
d="M123 1024h217v-90q1 0 16.5 12t21 15.5t23 15.5t28.5 17t30 14.5t36 14.5t38 10.5t43.5 8t46.5 2.5q108 0 198.5 -45t148 -119t89 -167.5t31.5 -192.5q0 -150 -51.5 -271t-157 -195t-250.5 -74q-67 0 -130 19t-88.5 34t-64.5 41v-443h-225v1393zM864 512q0 149 -73 228
t-193 79q-119 0 -188.5 -78.5t-69.5 -228.5q0 -149 70.5 -228t187.5 -79q120 0 193 76t73 231z" />
    <glyph glyph-name="q" unicode="q" horiz-adv-x="1171" 
d="M1049 1024v-1393h-226v443q-39 -27 -64.5 -41.5t-88 -33.5t-129.5 -19q-145 0 -250.5 74t-157 195t-51.5 271q0 99 31.5 192.5t89 167.5t148 119t198.5 45q24 0 46.5 -2.5t43.5 -8t38 -10.5t35.5 -14.5t30 -15t28 -16.5t23 -15.5t21 -15.5t16.5 -12v90h218zM307 512
q0 -155 73 -231t193 -76q117 0 187.5 79t70.5 228q0 150 -69.5 228.5t-188.5 78.5q-120 0 -193 -79t-73 -228z" />
    <glyph glyph-name="r" unicode="r" horiz-adv-x="776" 
d="M758 786q-31 13 -47.5 19t-48 12t-68.5 6q-59 0 -101 -13.5t-74 -47.5t-47.5 -95.5t-15.5 -152.5v-514h-233v1024h225v-115q52 64 110.5 99.5t147.5 35.5q92 0 164 -32z" />
    <glyph glyph-name="s" unicode="s" horiz-adv-x="983" 
d="M672 729q3 68 -50 104.5t-147 36.5q-83 0 -121.5 -30.5t-38.5 -75.5q0 -34 33.5 -57t87 -36.5t118 -27t129.5 -35.5t118.5 -54.5t87 -91.5t33.5 -140q0 -152 -109 -247t-313 -95q-105 0 -186 25t-127.5 62t-76 86t-39.5 91t-10 84h234q33 -164 223 -164q86 0 132 32.5
t46 96.5q0 41 -33.5 67.5t-87 41t-118 27t-129 32.5t-118 50t-87 86.5t-33.5 135.5q0 63 22 116.5t68 98.5t127 70.5t189 25.5q92 0 166 -23t118 -58t73.5 -79.5t40.5 -82.5t11 -72h-233z" />
    <glyph glyph-name="t" unicode="t" horiz-adv-x="608" 
d="M164 1393h225v-369h143v-225h-143v-529q0 -77 82 -77q48 0 76 16v-205q-72 -24 -162 -24q-110 0 -165.5 55.5t-55.5 136.5v627h-123v225h123v369z" />
    <glyph glyph-name="u" unicode="u" horiz-adv-x="1087" 
d="M115 1024h233v-676q0 -89 50.5 -136.5t129.5 -47.5q59 0 101 26.5t63 71.5t30 91t9 98v573h234v-1024h-226v82q-130 -102 -293 -102q-141 0 -236 89t-95 250v705z" />
    <glyph glyph-name="v" unicode="v" horiz-adv-x="970" 
d="M0 1024h242l243 -666l244 666h242l-381 -1024h-209z" />
    <glyph glyph-name="w" unicode="w" horiz-adv-x="1585" 
d="M0 1024h238l219 -692l219 692h225l223 -705l224 705h237l-344 -1024h-233l-217 672l-213 -672h-234z" />
    <glyph glyph-name="x" unicode="x" horiz-adv-x="1032" 
d="M20 0l367 512l-367 512h259l237 -332l238 332h258l-367 -512l367 -512h-258l-238 332l-237 -332h-259z" />
    <glyph glyph-name="y" unicode="y" horiz-adv-x="970" 
d="M225 -172q48 0 89.5 39t41.5 92q0 28 -16 74l-340 991h246l235 -754l244 754h246l-430 -1184q-36 -98 -130 -163.5t-206 -65.5q-119 0 -205 12v217q74 -12 225 -12z" />
    <glyph glyph-name="z" unicode="z" horiz-adv-x="950" 
d="M61 0v184l533 656h-512v184h807v-184l-533 -656h533v-184h-828z" />
    <glyph glyph-name="braceleft" unicode="{" horiz-adv-x="595" 
d="M233 238q0 84 -36.5 122.5t-94.5 38.5v226q58 0 94.5 38.5t36.5 122.5q0 70 -29.5 177.5t-29.5 175.5q0 126 84 225h209q-94 -112 -94 -238q0 -59 25.5 -158.5t25.5 -168.5q0 -101 -42.5 -178.5t-127.5 -108.5q85 -31 127.5 -108.5t42.5 -178.5q0 -69 -25.5 -168.5
t-25.5 -158.5q0 -126 94 -238h-209q-84 99 -84 225q0 68 29.5 175.5t29.5 177.5z" />
    <glyph glyph-name="bar" unicode="|" horiz-adv-x="446" 
d="M131 0v1393h184v-1393h-184z" />
    <glyph glyph-name="braceright" unicode="}" horiz-adv-x="595" 
d="M362 238q0 -70 30 -177.5t30 -175.5q0 -126 -84 -225h-209q94 112 94 238q0 59 -25.5 158.5t-25.5 168.5q0 101 42.5 178.5t127.5 108.5q-85 31 -127.5 108.5t-42.5 178.5q0 69 25.5 168.5t25.5 158.5q0 126 -94 238h209q84 -99 84 -225q0 -68 -30 -175.5t-30 -177.5
q0 -84 37 -122.5t95 -38.5v-226q-58 0 -95 -38.5t-37 -122.5z" />
    <glyph glyph-name="asciitilde" unicode="~" horiz-adv-x="1409" 
d="M145 512q-26 143 54 233.5t233 90.5q94 0 189 -27t175.5 -53.5t139.5 -26.5q73 0 101.5 31.5t6.5 87.5h246q35 -161 -44.5 -242.5t-241.5 -81.5q-94 0 -193.5 27t-185 53.5t-144.5 26.5q-68 0 -85.5 -30t-4.5 -89h-246z" />
    <glyph glyph-name="uni00A0" unicode="&#xa0;" horiz-adv-x="512" 
 />
    <glyph glyph-name="exclamdown" unicode="&#xa1;" horiz-adv-x="512" 
d="M113 737v287h286v-287h-286zM143 582h226l30 -951h-286z" />
    <glyph glyph-name="cent" unicode="&#xa2;" horiz-adv-x="1323" 
d="M270 696q0 163 86.5 280t221.5 150v267h184v-267q58 -14 107 -47t79 -70t54 -85t35.5 -82.5t19.5 -71.5h-213q-17 99 -82 135v-416q62 30 98 129h195q0 -100 -80 -202.5t-213 -134.5v-281h-184v279q-135 32 -221.5 149.5t-86.5 267.5zM475 700q0 -150 103 -206v417
q-103 -51 -103 -211z" />
    <glyph glyph-name="sterling" unicode="&#xa3;" horiz-adv-x="1323" 
d="M197 696h122q-73 138 -73 267q0 207 126.5 328.5t334.5 121.5q227 0 353 -140t134 -370h-274q-2 123 -58 194.5t-166 71.5q-96 -2 -146 -53.5t-50 -152.5q0 -35 10.5 -73.5t20 -60.5t34.5 -69.5t33 -63.5h377v-184h-320q4 -36 4 -61q0 -146 -86 -232l594 12v-231h-962
v201q201 97 201 270q0 11 -5 41h-204v184z" />
    <glyph glyph-name="currency" unicode="&#xa4;" horiz-adv-x="1062" 
d="M266 215l-131 131l107 107q-37 67 -37 163q0 87 37 154l-107 107l131 131l105 -105q76 37 161 37q90 0 162 -35l103 103l131 -131l-101 -101q33 -74 33 -160q0 -90 -41 -161l109 -109l-131 -131l-111 111q-68 -35 -154 -35q-92 0 -157 33zM532 475q65 0 104.5 38.5
t39.5 102.5t-39.5 102t-104.5 38t-104 -38t-39 -102t39 -102.5t104 -38.5z" />
    <glyph glyph-name="yen" unicode="&#xa5;" horiz-adv-x="1323" 
d="M150 338v184h344v82h-344v184h270l-420 605h305l313 -523l322 523h293l-420 -605h268v-184h-344v-82h344v-184h-344v-338h-243v338h-344z" />
    <glyph glyph-name="brokenbar" unicode="&#xa6;" horiz-adv-x="446" 
d="M131 881v512h184v-512h-184zM131 0v512h184v-512h-184z" />
    <glyph glyph-name="section" unicode="&#xa7;" horiz-adv-x="983" 
d="M913 219q0 -63 -22 -116.5t-68 -98.5t-126.5 -70.5t-188.5 -25.5q-92 0 -166.5 23t-118.5 58t-73.5 79.5t-40.5 82.5t-11 72h234q-3 -68 49.5 -104.5t146.5 -36.5q83 0 121.5 30.5t38.5 75.5q0 31 -25.5 54t-67.5 37.5t-96 30.5t-110 30.5t-110 39.5t-96 56t-67.5 81
t-25.5 114q0 179 158 252q-55 26 -96 84.5t-41 134.5q0 63 22 116.5t68 98.5t126.5 70.5t188.5 25.5q92 0 166.5 -23t118.5 -58t73.5 -79.5t40.5 -82.5t11 -72h-234q3 68 -49.5 104.5t-146.5 36.5q-83 0 -121.5 -30.5t-38.5 -75.5q0 -34 32.5 -59.5t84 -42t114 -32.5
t125 -39.5t114 -55.5t84 -87t32.5 -127q0 -90 -35.5 -151t-110.5 -101q137 -58 137 -219zM305 659q0 -57 57.5 -92t145.5 -35q95 0 147 33t52 97q0 58 -60.5 93.5t-152.5 35.5q-90 0 -139.5 -34t-49.5 -98z" />
    <glyph glyph-name="dieresis" unicode="&#xa8;" 
d="M190 1761h234v-245h-234v245zM600 1761h234v-245h-234v245z" />
    <glyph glyph-name="copyright" unicode="&#xa9;" horiz-adv-x="1679" 
d="M840 -20q-146 0 -277.5 54t-228.5 147.5t-154 227.5t-57 287q0 202 97 367t261 257.5t359 92.5q146 0 277.5 -54.5t228 -149t153.5 -228.5t57 -285q0 -153 -57 -287t-153.5 -227.5t-228 -147.5t-277.5 -54zM840 152q109 0 207 41.5t169.5 113t113.5 173t42 216.5
q0 153 -71 278.5t-193 196t-268 70.5q-108 0 -206 -41.5t-170 -113t-114.5 -173.5t-42.5 -217q0 -153 72.5 -278.5t194.5 -195.5t266 -70zM997 629h189q-6 -155 -99.5 -248.5t-242.5 -93.5q-148 0 -250 108t-102 301q0 197 98.5 303.5t253.5 106.5q148 0 239 -91t103 -259
h-197q-10 92 -48 131t-103 39q-160 0 -160 -230q0 -229 160 -229q64 0 101 36.5t58 125.5z" />
    <glyph glyph-name="ordfeminine" unicode="&#xaa;" horiz-adv-x="1069" 
d="M864 831q0 -71 86 -71q24 0 76 10v-180q-74 -10 -119 -10q-78 0 -120.5 19t-71.5 67q-71 -52 -133.5 -72.5t-132.5 -20.5q-140 0 -236 81t-96 192q0 250 397 250h166v39q0 66 -49.5 106.5t-126.5 40.5q-79 0 -120.5 -37.5t-41.5 -109.5h-205q0 129 105 203.5t266 74.5
q154 0 255 -67t101 -193v-322zM322 825q0 -50 43.5 -85t111.5 -35q94 0 148.5 60t54.5 120v69q-142 6 -223 -9.5t-108 -43.5t-27 -76z" />
    <glyph glyph-name="guillemotleft" unicode="&#xab;" horiz-adv-x="1464" 
d="M1331 997v-241l-368 -244l368 -244v-241l-598 381v208zM717 997v-241l-369 -244l369 -244v-241l-598 381v208z" />
    <glyph glyph-name="logicalnot" unicode="&#xac;" horiz-adv-x="1409" 
d="M143 762v184h1123v-532h-185v348h-938z" />
    <glyph glyph-name="uni00AD" unicode="&#xad;" horiz-adv-x="0" 
 />
    <glyph glyph-name="registered" unicode="&#xae;" horiz-adv-x="1679" 
d="M840 -20q-146 0 -277.5 54t-228.5 147.5t-154 227.5t-57 287q0 202 97 367t261 257.5t359 92.5q146 0 277.5 -54.5t228 -149t153.5 -228.5t57 -285q0 -153 -57 -287t-153.5 -227.5t-228 -147.5t-277.5 -54zM549 287v819h340q130 0 197 -65t67 -177q0 -66 -37 -119.5
t-98 -85.5q54 -34 72 -114l18 -82q23 -107 96 -168q80 75 124 178.5t44 222.5q0 153 -71 278.5t-193 196t-268 70.5q-108 0 -206 -41.5t-170 -113t-114.5 -173.5t-42.5 -217q0 -153 72.5 -278.5t194.5 -195.5t266 -70q208 0 356 135h-211q-29 12 -42 44.5t-28 104.5l-14 72
q-10 55 -33 84t-73 29h-62v-334h-184zM879 942h-146v-156h146q40 0 61 21.5t21 56.5q0 34 -23 56t-59 22z" />
    <glyph glyph-name="macron" unicode="&#xaf;" 
d="M168 1532v174h688v-174h-688z" />
    <glyph glyph-name="degree" unicode="&#xb0;" horiz-adv-x="776" 
d="M61 1087q0 133 90.5 229.5t237.5 96.5q148 0 238 -96t90 -230q0 -61 -21 -118.5t-60.5 -104t-103.5 -74.5t-143 -28q-78 0 -141.5 28t-103.5 74.5t-61.5 104t-21.5 118.5zM532 1087q0 59 -40 100.5t-103 41.5t-103 -41.5t-40 -100.5q0 -64 39 -102.5t104 -38.5
q63 0 103 41t40 100z" />
    <glyph glyph-name="plusminus" unicode="&#xb1;" horiz-adv-x="1409" 
d="M143 0v205h459v370h-459v205h459v459h205v-459h459v-205h-459v-370h459v-205h-1123z" />
    <glyph glyph-name="twosuperior" unicode="&#xb2;" horiz-adv-x="860" 
d="M119 594v154l274 198q91 65 121.5 100.5t30.5 92.5q0 110 -119 110q-136 0 -127 -159h-178q-13 150 75.5 236.5t237.5 86.5q142 0 216.5 -75.5t74.5 -182.5q0 -53 -13.5 -95.5t-43.5 -77.5t-60 -60t-80 -58l-135 -90h344v-180h-618z" />
    <glyph glyph-name="threesuperior" unicode="&#xb3;" horiz-adv-x="860" 
d="M344 1075h74q58 0 86 22.5t28 61.5t-30 63.5t-88 24.5q-130 0 -133 -110h-177q-11 107 77 191.5t241 84.5q145 0 222 -66t77 -163q0 -109 -109 -162q127 -53 127 -199q0 -102 -86.5 -173.5t-236.5 -71.5q-158 0 -245 86.5t-81 207.5h178q-3 -57 34 -94t108 -37
q65 0 100 28t35 75q0 112 -127 112h-74v119z" />
    <glyph glyph-name="acute" unicode="&#xb4;" 
d="M442 1782h377l-233 -287h-205z" />
    <glyph glyph-name="mu.math" unicode="&#xb5;" horiz-adv-x="1064" 
d="M164 1024h184v-696q0 -185 184 -185q185 0 185 185v696h184v-1024h-184v59q-76 -79 -225 -79q-82 0 -144 32v-422h-184v1434z" />
    <glyph glyph-name="paragraph" unicode="&#xb6;" 
d="M553 0h-184v696h-41q-148 0 -238 102t-90 246t90 246.5t238 102.5h225v-1393zM901 0h-184v1393h184v-1393z" />
    <glyph glyph-name="periodcentered" unicode="&#xb7;" 
d="M395 635h234v-246h-234v246z" />
    <glyph glyph-name="cedilla" unicode="&#xb8;" 
d="M399 -322l-116 43l176 295l155 -8l-94 -127q24 6 51 6q112 0 184 -68.5t72 -174.5t-86 -180t-213 -74q-121 0 -202.5 63.5t-75.5 173.5h172q-4 -41 25.5 -63.5t84.5 -22.5t85 28.5t30 78.5q0 45 -31.5 73.5t-78.5 28.5q-93 0 -138 -72z" />
    <glyph glyph-name="onesuperior" unicode="&#xb9;" horiz-adv-x="860" 
d="M184 594v147h189v385h-193v123q68 5 113 18t68 35.5t32.5 41t16.5 49.5h137v-652h176v-147h-539z" />
    <glyph glyph-name="ordmasculine" unicode="&#xba;" horiz-adv-x="1017" 
d="M100 995q0 112 48 206.5t142.5 154t217.5 59.5q124 0 219 -59.5t143 -154t48 -206.5q0 -79 -26.5 -153.5t-76 -135t-129.5 -97t-178 -36.5t-177.5 36.5t-128.5 97t-75.5 135t-26.5 153.5zM729 993q0 110 -60 176t-161 66q-100 0 -159.5 -66t-59.5 -176q0 -116 59 -177.5
t160 -61.5t161 61.5t60 177.5z" />
    <glyph glyph-name="guillemotright" unicode="&#xbb;" horiz-adv-x="1464" 
d="M133 997l598 -381v-208l-598 -381v241l369 244l-369 244v241zM748 997l598 -381v-208l-598 -381v241l368 244l-368 244v241z" />
    <glyph glyph-name="onequarter" unicode="&#xbc;" horiz-adv-x="1814" 
d="M389 0l832 1393h204l-831 -1393h-205zM127 594v147h188v385h-192v123q55 4 95 14.5t63 22.5t38.5 32t21 35.5t11.5 39.5h137v-652h177v-147h-539zM1378 0v170h-395v149l395 480h174v-480h140v-149h-140v-170h-174zM1147 319h231v267z" />
    <glyph glyph-name="onehalf" unicode="&#xbd;" horiz-adv-x="1884" 
d="M389 0l832 1393h204l-831 -1393h-205zM123 594v147h188v385h-192v123q55 4 95 14.5t63 22.5t38.5 32t21 35.5t11.5 39.5h137v-652h177v-147h-539zM1143 0v154l274 198q91 65 121.5 100.5t30.5 92.5q0 110 -119 110q-136 0 -127 -159h-178q-13 150 75.5 236.5t237.5 86.5
q142 0 216.5 -75.5t74.5 -182.5q0 -53 -13.5 -95.5t-43.5 -77.5t-60 -60t-80 -58l-135 -90h344v-180h-618z" />
    <glyph glyph-name="threequarters" unicode="&#xbe;" horiz-adv-x="1814" 
d="M389 0l832 1393h204l-831 -1393h-205zM322 1075h73q58 0 86.5 22.5t28.5 61.5t-30.5 63.5t-88.5 24.5q-130 0 -133 -110h-176q-11 107 76.5 191.5t240.5 84.5q145 0 222 -66t77 -163q0 -110 -108 -162q127 -53 127 -199q0 -102 -87 -173.5t-237 -71.5q-158 0 -244.5 86.5
t-80.5 207.5h178q-3 -57 33.5 -94t107.5 -37q65 0 100 28t35 75q0 112 -127 112h-73v119zM1378 0v170h-395v149l395 480h174v-480h140v-149h-140v-170h-174zM1147 319h231v267z" />
    <glyph glyph-name="questiondown" unicode="&#xbf;" horiz-adv-x="1021" 
d="M649 737h-287v287h287v-287zM641 582v-29q0 -52 -30.5 -104.5t-73.5 -98t-86.5 -92.5t-74 -106.5t-30.5 -122.5q0 -90 48 -139.5t141 -49.5q190 0 184 258l278 -59q-19 -207 -140.5 -317.5t-332.5 -110.5q-216 0 -344.5 107.5t-128.5 265.5q0 84 34.5 159.5t81.5 128.5
t93.5 99.5t75 91.5t20.5 86l-6 33h291z" />
    <glyph glyph-name="Agrave" unicode="&#xc0;" horiz-adv-x="1261" 
d="M1010 0l-150 383h-459l-149 -383h-258l532 1393h209l533 -1393h-258zM487 608h287l-143 367zM733 1782l62 -287h-205l-234 287h377z" />
    <glyph glyph-name="Aacute" unicode="&#xc1;" horiz-adv-x="1261" 
d="M1010 0l-150 383h-459l-149 -383h-258l532 1393h209l533 -1393h-258zM487 608h287l-143 367zM561 1782h377l-233 -287h-205z" />
    <glyph glyph-name="Acircumflex" unicode="&#xc2;" horiz-adv-x="1261" 
d="M1010 0l-150 383h-459l-149 -383h-258l532 1393h209l533 -1393h-258zM487 608h287l-143 367zM473 1782h315l164 -287h-204l-117 143l-117 -143h-205z" />
    <glyph glyph-name="Atilde" unicode="&#xc3;" horiz-adv-x="1261" 
d="M1010 0l-150 383h-459l-149 -383h-258l532 1393h209l533 -1393h-258zM487 608h287l-143 367zM270 1530q-14 120 44 191t175 71q53 0 106.5 -25.5t97.5 -51t73 -25.5q45 0 64.5 31.5t9.5 76.5l168 -20q10 -141 -52 -207t-159 -66q-38 0 -83.5 15.5t-79 34t-69 34
t-57.5 15.5q-31 0 -47 -18.5t-10 -55.5h-181z" />
    <glyph glyph-name="Adieresis" unicode="&#xc4;" horiz-adv-x="1261" 
d="M1010 0l-150 383h-459l-149 -383h-258l532 1393h209l533 -1393h-258zM487 608h287l-143 367zM309 1761h234v-245h-234v245zM719 1761h233v-245h-233v245z" />
    <glyph glyph-name="Aring" unicode="&#xc5;" horiz-adv-x="1261" 
d="M1010 0l-150 383h-459l-149 -383h-258l532 1393h209l533 -1393h-258zM487 608h287l-143 367zM631 1495q-104 0 -177 75.5t-73 180.5t73 179.5t177 74.5q103 0 177.5 -75t74.5 -179t-74.5 -180t-177.5 -76zM625 1638q45 0 77.5 33.5t32.5 79.5q0 44 -32 75.5t-78 31.5
q-45 0 -78 -31.5t-33 -75.5q0 -46 33.5 -79.5t77.5 -33.5z" />
    <glyph glyph-name="AE" unicode="&#xc6;" horiz-adv-x="1347" 
d="M586 0v281h-252l-82 -281h-258l430 1393h809v-232h-404v-284h371v-232h-371v-414h404v-231h-647zM580 1120l-181 -614h187v614h-6z" />
    <glyph glyph-name="Ccedilla" unicode="&#xc7;" horiz-adv-x="1396" 
d="M586 -322l-117 43l158 265q-109 16 -203 68.5t-166.5 139.5t-114 216t-41.5 286q0 174 48 312t132 225.5t195.5 133.5t241.5 46q261 0 419 -158.5t181 -453.5h-275q-17 188 -105 278t-230 90q-164 0 -258.5 -120t-94.5 -353t95 -353t258 -120q136 0 214 78.5t140 276.5
h256q-10 -255 -155 -415.5t-382 -180.5l-75 -101q24 6 51 6q112 0 184 -68.5t72 -174.5t-86 -180t-213 -74q-122 0 -203.5 64t-75.5 173h172q-4 -41 26 -63.5t85 -22.5t85 28.5t30 78.5q0 45 -32 73.5t-79 28.5q-92 0 -137 -72z" />
    <glyph glyph-name="Egrave" unicode="&#xc8;" horiz-adv-x="1142" 
d="M676 1782l61 -287h-205l-233 287h377zM176 0v1393h852v-232h-608v-284h575v-232h-575v-414h608v-231h-852z" />
    <glyph glyph-name="Eacute" unicode="&#xc9;" horiz-adv-x="1142" 
d="M176 0v1393h852v-232h-608v-284h575v-232h-575v-414h608v-231h-852zM545 1782h377l-234 -287h-205z" />
    <glyph glyph-name="Ecircumflex" unicode="&#xca;" horiz-adv-x="1142" 
d="M176 0v1393h852v-232h-608v-284h575v-232h-575v-414h608v-231h-852zM414 1782h315l164 -287h-205l-117 143l-116 -143h-205z" />
    <glyph glyph-name="Edieresis" unicode="&#xcb;" horiz-adv-x="1142" 
d="M176 0v1393h852v-232h-608v-284h575v-232h-575v-414h608v-231h-852zM250 1761h233v-245h-233v245zM659 1761h234v-245h-234v245z" />
    <glyph glyph-name="Igrave" unicode="&#xcc;" horiz-adv-x="595" 
d="M176 0v1393h244v-1393h-244zM401 1782l62 -287h-205l-233 287h376z" />
    <glyph glyph-name="Iacute" unicode="&#xcd;" horiz-adv-x="595" 
d="M176 0v1393h244v-1393h-244zM229 1782h377l-233 -287h-205z" />
    <glyph glyph-name="Icircumflex" unicode="&#xce;" horiz-adv-x="595" 
d="M176 0v1393h244v-1393h-244zM141 1782h316l164 -287h-205l-117 143l-117 -143h-205z" />
    <glyph glyph-name="Idieresis" unicode="&#xcf;" horiz-adv-x="595" 
d="M176 0v1393h244v-1393h-244zM-23 1761h234v-245h-234v245zM387 1761h234v-245h-234v245z" />
    <glyph glyph-name="Eth" unicode="&#xd0;" horiz-adv-x="1386" 
d="M176 0v588h-176v223h176v582h416q315 0 504.5 -188t189.5 -509q0 -320 -190 -508t-504 -188h-416zM578 231q220 0 337 117.5t117 347.5t-117 347.5t-337 117.5h-158v-350h246v-223h-246v-357h158z" />
    <glyph glyph-name="Ntilde" unicode="&#xd1;" horiz-adv-x="1353" 
d="M176 0v1393h266l500 -908v908h236v-1393h-267l-499 907v-907h-236zM317 1530q-14 120 44.5 191t175.5 71q53 0 106.5 -25.5t97 -51t72.5 -25.5q45 0 64.5 31.5t9.5 76.5l168 -20q10 -141 -52 -207t-159 -66q-38 0 -83.5 15.5t-79 34t-69 34t-57.5 15.5q-31 0 -47 -18.5
t-10 -55.5h-181z" />
    <glyph glyph-name="Ograve" unicode="&#xd2;" horiz-adv-x="1443" 
d="M721 -20q-129 0 -242 50.5t-196.5 142t-132 227t-48.5 296.5t48 297t131.5 227.5t197 142t242.5 50.5q130 0 244 -50.5t197.5 -142t132 -227.5t48.5 -297t-48.5 -296.5t-132.5 -227t-198 -142t-243 -50.5zM721 223q164 0 265 127t101 346t-101 346t-265 127t-264.5 -127
t-100.5 -346t100.5 -346t264.5 -127zM825 1782l62 -287h-205l-233 287h376z" />
    <glyph glyph-name="Oacute" unicode="&#xd3;" horiz-adv-x="1443" 
d="M721 -20q-129 0 -242 50.5t-196.5 142t-132 227t-48.5 296.5t48 297t131.5 227.5t197 142t242.5 50.5q130 0 244 -50.5t197.5 -142t132 -227.5t48.5 -297t-48.5 -296.5t-132.5 -227t-198 -142t-243 -50.5zM721 223q164 0 265 127t101 346t-101 346t-265 127t-264.5 -127
t-100.5 -346t100.5 -346t264.5 -127zM653 1782h377l-233 -287h-205z" />
    <glyph glyph-name="Ocircumflex" unicode="&#xd4;" horiz-adv-x="1443" 
d="M721 -20q-129 0 -242 50.5t-196.5 142t-132 227t-48.5 296.5t48 297t131.5 227.5t197 142t242.5 50.5q130 0 244 -50.5t197.5 -142t132 -227.5t48.5 -297t-48.5 -296.5t-132.5 -227t-198 -142t-243 -50.5zM721 223q164 0 265 127t101 346t-101 346t-265 127t-264.5 -127
t-100.5 -346t100.5 -346t264.5 -127zM565 1782h316l163 -287h-204l-117 143l-117 -143h-205z" />
    <glyph glyph-name="Otilde" unicode="&#xd5;" horiz-adv-x="1443" 
d="M721 -20q-129 0 -242 50.5t-196.5 142t-132 227t-48.5 296.5t48 297t131.5 227.5t197 142t242.5 50.5q130 0 244 -50.5t197.5 -142t132 -227.5t48.5 -297t-48.5 -296.5t-132.5 -227t-198 -142t-243 -50.5zM721 223q164 0 265 127t101 346t-101 346t-265 127t-264.5 -127
t-100.5 -346t100.5 -346t264.5 -127zM362 1530q-14 120 44.5 191t175.5 71q53 0 106.5 -25.5t97 -51t72.5 -25.5q45 0 64.5 31.5t9.5 76.5l168 -20q10 -141 -52 -207t-159 -66q-38 0 -83.5 15.5t-79 34t-69 34t-57.5 15.5q-31 0 -47 -18.5t-10 -55.5h-181z" />
    <glyph glyph-name="Odieresis" unicode="&#xd6;" horiz-adv-x="1443" 
d="M721 -20q-129 0 -242 50.5t-196.5 142t-132 227t-48.5 296.5t48 297t131.5 227.5t197 142t242.5 50.5q130 0 244 -50.5t197.5 -142t132 -227.5t48.5 -297t-48.5 -296.5t-132.5 -227t-198 -142t-243 -50.5zM721 223q164 0 265 127t101 346t-101 346t-265 127t-264.5 -127
t-100.5 -346t100.5 -346t264.5 -127zM401 1761h234v-245h-234v245zM811 1761h233v-245h-233v245z" />
    <glyph glyph-name="multiply" unicode="&#xd7;" horiz-adv-x="1409" 
d="M221 989l172 172l309 -309l312 311l172 -172l-312 -311l312 -311l-172 -172l-312 311l-309 -309l-172 172l309 309z" />
    <glyph glyph-name="Oslash" unicode="&#xd8;" horiz-adv-x="1443" 
d="M104 -20v305l68 61q-70 156 -70 350q0 161 48 297t131.5 227.5t197 142t242.5 50.5q259 0 430 -180l199 180v-305l-74 -66q67 -156 67 -346q0 -161 -48.5 -296.5t-132.5 -227t-198 -142t-243 -50.5q-249 0 -422 176zM356 696q0 -87 19 -168l592 537q-96 104 -246 104
q-164 0 -264.5 -127t-100.5 -346zM721 223q164 0 265 127t101 346q0 82 -16 160l-590 -534q99 -99 240 -99z" />
    <glyph glyph-name="Ugrave" unicode="&#xd9;" horiz-adv-x="1304" 
d="M1141 1393v-987q0 -189 -137 -307.5t-355 -118.5q-114 0 -206.5 35.5t-152.5 96.5t-92 141.5t-32 172.5v967h242v-953q0 -99 62 -157t181 -58q111 0 178.5 49.5t67.5 141.5v977h244zM756 1782l61 -287h-205l-233 287h377z" />
    <glyph glyph-name="Uacute" unicode="&#xda;" horiz-adv-x="1304" 
d="M1141 1393v-987q0 -189 -137 -307.5t-355 -118.5q-114 0 -206.5 35.5t-152.5 96.5t-92 141.5t-32 172.5v967h242v-953q0 -99 62 -157t181 -58q111 0 178.5 49.5t67.5 141.5v977h244zM584 1782h377l-234 -287h-205z" />
    <glyph glyph-name="Ucircumflex" unicode="&#xdb;" horiz-adv-x="1304" 
d="M1141 1393v-987q0 -189 -137 -307.5t-355 -118.5q-114 0 -206.5 35.5t-152.5 96.5t-92 141.5t-32 172.5v967h242v-953q0 -99 62 -157t181 -58q111 0 178.5 49.5t67.5 141.5v977h244zM496 1782h315l164 -287h-205l-117 143l-116 -143h-205z" />
    <glyph glyph-name="Udieresis" unicode="&#xdc;" horiz-adv-x="1304" 
d="M1141 1393v-987q0 -189 -137 -307.5t-355 -118.5q-114 0 -206.5 35.5t-152.5 96.5t-92 141.5t-32 172.5v967h242v-953q0 -99 62 -157t181 -58q111 0 178.5 49.5t67.5 141.5v977h244zM332 1761h233v-245h-233v245zM741 1761h234v-245h-234v245z" />
    <glyph glyph-name="Yacute" unicode="&#xdd;" horiz-adv-x="1232" 
d="M494 0v680l-494 713h305l313 -441l322 441h293l-496 -713v-680h-243zM547 1782h377l-234 -287h-205z" />
    <glyph glyph-name="Thorn" unicode="&#xde;" horiz-adv-x="1140" 
d="M176 0v1393h244v-236h223q223 0 335 -106t112 -301t-112.5 -302.5t-332.5 -107.5h-225v-221q0 -84 12 -119h-256zM643 926h-223v-355h217q199 0 199 179q0 84 -51 130t-142 46z" />
    <glyph glyph-name="germandbls" unicode="&#xdf;" horiz-adv-x="1060" 
d="M504 643v225q74 1 114.5 43.5t40.5 116.5t-41 115t-114 41t-114.5 -43t-41.5 -117v-1024h-225v1044q0 154 106.5 261.5t274.5 107.5q178 0 279.5 -105.5t101.5 -263.5q0 -147 -94 -247q102 -59 155 -161.5t53 -229.5q0 -182 -116 -304t-301 -122q-95 0 -140 36v226
q50 -37 123 -37q96 0 152.5 58t56.5 159q0 107 -62 166t-163 59q-25 0 -45 -4z" />
    <glyph glyph-name="agrave" unicode="&#xe0;" horiz-adv-x="1142" 
d="M967 301q0 -88 104 -88q33 0 92 12v-225q-86 -12 -145 -12q-94 0 -145.5 23t-86.5 83q-26 -20 -43 -31.5t-60 -35t-98 -35.5t-118 -12q-169 0 -285 101t-116 238q0 168 128 248t351 80h196v49q0 83 -58 134t-151 51q-192 0 -192 -185h-250q0 161 127 254.5t322 93.5
q119 0 213.5 -34t154.5 -109.5t60 -181.5v-418zM319 295q0 -64 50 -108t131 -44q60 0 108 23.5t76 59t42.5 73t14.5 70.5v102q-129 6 -215.5 -4.5t-130 -36.5t-60 -57.5t-16.5 -77.5zM631 1413l61 -287h-205l-233 287h377z" />
    <glyph glyph-name="aacute" unicode="&#xe1;" horiz-adv-x="1142" 
d="M967 301q0 -88 104 -88q33 0 92 12v-225q-86 -12 -145 -12q-94 0 -145.5 23t-86.5 83q-26 -20 -43 -31.5t-60 -35t-98 -35.5t-118 -12q-169 0 -285 101t-116 238q0 168 128 248t351 80h196v49q0 83 -58 134t-151 51q-192 0 -192 -185h-250q0 161 127 254.5t322 93.5
q119 0 213.5 -34t154.5 -109.5t60 -181.5v-418zM319 295q0 -64 50 -108t131 -44q60 0 108 23.5t76 59t42.5 73t14.5 70.5v102q-129 6 -215.5 -4.5t-130 -36.5t-60 -57.5t-16.5 -77.5zM459 1413h377l-234 -287h-205z" />
    <glyph glyph-name="acircumflex" unicode="&#xe2;" horiz-adv-x="1142" 
d="M967 301q0 -88 104 -88q33 0 92 12v-225q-86 -12 -145 -12q-94 0 -145.5 23t-86.5 83q-26 -20 -43 -31.5t-60 -35t-98 -35.5t-118 -12q-169 0 -285 101t-116 238q0 168 128 248t351 80h196v49q0 83 -58 134t-151 51q-192 0 -192 -185h-250q0 161 127 254.5t322 93.5
q119 0 213.5 -34t154.5 -109.5t60 -181.5v-418zM319 295q0 -64 50 -108t131 -44q60 0 108 23.5t76 59t42.5 73t14.5 70.5v102q-129 6 -215.5 -4.5t-130 -36.5t-60 -57.5t-16.5 -77.5zM371 1413h315l164 -287h-205l-117 144l-116 -144h-205z" />
    <glyph glyph-name="atilde" unicode="&#xe3;" horiz-adv-x="1142" 
d="M967 301q0 -88 104 -88q33 0 92 12v-225q-86 -12 -145 -12q-94 0 -145.5 23t-86.5 83q-26 -20 -43 -31.5t-60 -35t-98 -35.5t-118 -12q-169 0 -285 101t-116 238q0 168 128 248t351 80h196v49q0 83 -58 134t-151 51q-192 0 -192 -185h-250q0 161 127 254.5t322 93.5
q119 0 213.5 -34t154.5 -109.5t60 -181.5v-418zM319 295q0 -64 50 -108t131 -44q60 0 108 23.5t76 59t42.5 73t14.5 70.5v102q-129 6 -215.5 -4.5t-130 -36.5t-60 -57.5t-16.5 -77.5zM168 1151q-14 120 44 191t175 71q53 0 106.5 -25.5t97.5 -51t73 -25.5q45 0 64 31.5
t9 76.5l168 -20q10 -141 -52 -207t-159 -66q-48 0 -106 25t-107 49.5t-75 24.5q-31 0 -47.5 -18.5t-10.5 -55.5h-180z" />
    <glyph glyph-name="adieresis" unicode="&#xe4;" horiz-adv-x="1142" 
d="M967 301q0 -88 104 -88q33 0 92 12v-225q-86 -12 -145 -12q-94 0 -145.5 23t-86.5 83q-26 -20 -43 -31.5t-60 -35t-98 -35.5t-118 -12q-169 0 -285 101t-116 238q0 168 128 248t351 80h196v49q0 83 -58 134t-151 51q-192 0 -192 -185h-250q0 161 127 254.5t322 93.5
q119 0 213.5 -34t154.5 -109.5t60 -181.5v-418zM319 295q0 -64 50 -108t131 -44q60 0 108 23.5t76 59t42.5 73t14.5 70.5v102q-129 6 -215.5 -4.5t-130 -36.5t-60 -57.5t-16.5 -77.5zM207 1393h233v-246h-233v246zM616 1393h234v-246h-234v246z" />
    <glyph glyph-name="aring" unicode="&#xe5;" horiz-adv-x="1142" 
d="M967 301q0 -88 104 -88q33 0 92 12v-225q-86 -12 -145 -12q-94 0 -145.5 23t-86.5 83q-26 -20 -43 -31.5t-60 -35t-98 -35.5t-118 -12q-169 0 -285 101t-116 238q0 168 128 248t351 80h196v49q0 83 -58 134t-151 51q-192 0 -192 -185h-250q0 161 127 254.5t322 93.5
q119 0 213.5 -34t154.5 -109.5t60 -181.5v-418zM319 295q0 -64 50 -108t131 -44q60 0 108 23.5t76 59t42.5 73t14.5 70.5v102q-129 6 -215.5 -4.5t-130 -36.5t-60 -57.5t-16.5 -77.5zM528 1126q-104 0 -176.5 75.5t-72.5 180.5t72.5 179.5t176.5 74.5q103 0 177.5 -75
t74.5 -179t-74.5 -180t-177.5 -76zM522 1270q46 0 78.5 33t32.5 79q0 44 -32.5 75.5t-78.5 31.5q-45 0 -77.5 -31.5t-32.5 -75.5q0 -46 33 -79t77 -33z" />
    <glyph glyph-name="ae" unicode="&#xe6;" horiz-adv-x="1593" 
d="M1516 348q-4 -44 -20 -91.5t-49 -98t-78.5 -89.5t-113.5 -64t-149 -25q-177 0 -297 143q-159 -143 -360 -143q-156 0 -269.5 101.5t-113.5 237.5q0 165 121.5 251.5t326.5 86.5h166v39q0 75 -52 120.5t-136 45.5q-152 0 -152 -166h-250q0 161 118.5 254.5t299.5 93.5
q101 0 183 -34t130 -101q119 135 277 135q415 0 430 -557h-641q4 -161 63 -240t154 -79q31 0 57.5 10.5t42.5 22.5t32.5 37t22.5 37t18 41t13 32h226zM1098 860q-70 0 -122.5 -50t-74.5 -151h385q-10 91 -56 146t-132 55zM319 287q0 -48 44.5 -84.5t115.5 -36.5
q50 0 90.5 21t63.5 53t35 65.5t12 63.5v123q-91 0 -157 -10.5t-105 -27t-61.5 -44t-30 -56t-7.5 -67.5z" />
    <glyph glyph-name="ccedilla" unicode="&#xe7;" horiz-adv-x="1101" 
d="M82 504q0 237 134.5 388.5t344.5 151.5q73 0 136 -18t107 -46t81 -70t59 -80t40.5 -86.5t27 -80t16.5 -69.5h-237q-35 225 -238 225q-106 0 -176 -80t-70 -227q0 -153 75 -230t187 -77q45 0 82 13t60 31t44 49t31.5 53.5t24.5 58.5h213q0 -61 -24.5 -126.5t-70 -127
t-122 -108.5t-170.5 -62l-78 -105q24 6 51 6q112 0 184 -68.5t72 -174.5t-86 -180t-213 -74q-121 0 -202.5 63.5t-75.5 173.5h172q-4 -41 25.5 -63.5t84.5 -22.5t85 28.5t30 78.5q0 45 -32 73.5t-79 28.5q-92 0 -137 -72l-116 43l157 265q-179 27 -288 175t-109 343z" />
    <glyph glyph-name="egrave" unicode="&#xe8;" horiz-adv-x="1091" 
d="M72 504q0 103 34.5 200.5t95 173t151 121t194.5 45.5q217 0 343 -151t136 -434h-727q13 -128 83.5 -191t178.5 -63q55 0 98 15t68.5 41t37.5 44.5t23 42.5h226q-4 -44 -21.5 -91.5t-54.5 -97.5t-87 -89.5t-125 -64.5t-163 -25q-145 0 -258.5 73t-173 192t-59.5 259z
M555 860q-86 0 -149.5 -48.5t-90.5 -147.5h469q-10 94 -70.5 145t-158.5 51zM649 1413l62 -287h-205l-234 287h377z" />
    <glyph glyph-name="eacute" unicode="&#xe9;" horiz-adv-x="1091" 
d="M72 504q0 103 34.5 200.5t95 173t151 121t194.5 45.5q217 0 343 -151t136 -434h-727q13 -128 83.5 -191t178.5 -63q55 0 98 15t68.5 41t37.5 44.5t23 42.5h226q-4 -44 -21.5 -91.5t-54.5 -97.5t-87 -89.5t-125 -64.5t-163 -25q-145 0 -258.5 73t-173 192t-59.5 259z
M555 860q-86 0 -149.5 -48.5t-90.5 -147.5h469q-10 94 -70.5 145t-158.5 51zM477 1413h377l-233 -287h-205z" />
    <glyph glyph-name="ecircumflex" unicode="&#xea;" horiz-adv-x="1091" 
d="M72 504q0 103 34.5 200.5t95 173t151 121t194.5 45.5q217 0 343 -151t136 -434h-727q13 -128 83.5 -191t178.5 -63q55 0 98 15t68.5 41t37.5 44.5t23 42.5h226q-4 -44 -21.5 -91.5t-54.5 -97.5t-87 -89.5t-125 -64.5t-163 -25q-145 0 -258.5 73t-173 192t-59.5 259z
M555 860q-86 0 -149.5 -48.5t-90.5 -147.5h469q-10 94 -70.5 145t-158.5 51zM389 1413h316l163 -287h-204l-117 144l-117 -144h-205z" />
    <glyph glyph-name="edieresis" unicode="&#xeb;" horiz-adv-x="1091" 
d="M72 504q0 103 34.5 200.5t95 173t151 121t194.5 45.5q217 0 343 -151t136 -434h-727q13 -128 83.5 -191t178.5 -63q55 0 98 15t68.5 41t37.5 44.5t23 42.5h226q-4 -44 -21.5 -91.5t-54.5 -97.5t-87 -89.5t-125 -64.5t-163 -25q-145 0 -258.5 73t-173 192t-59.5 259z
M555 860q-86 0 -149.5 -48.5t-90.5 -147.5h469q-10 94 -70.5 145t-158.5 51zM225 1393h234v-246h-234v246zM635 1393h233v-246h-233v246z" />
    <glyph glyph-name="igrave" unicode="&#xec;" horiz-adv-x="479" 
d="M123 1024h233v-1024h-233v1024zM342 1413l61 -287h-204l-234 287h377z" />
    <glyph glyph-name="iacute" unicode="&#xed;" horiz-adv-x="479" 
d="M123 1024h233v-1024h-233v1024zM170 1413h377l-234 -287h-204z" />
    <glyph glyph-name="icircumflex" unicode="&#xee;" horiz-adv-x="479" 
d="M123 1024h233v-1024h-233v1024zM82 1413h315l164 -287h-205l-116 144l-117 -144h-205z" />
    <glyph glyph-name="idieresis" unicode="&#xef;" horiz-adv-x="479" 
d="M123 1024h233v-1024h-233v1024zM-82 1393h234v-246h-234v246zM328 1393h233v-246h-233v246z" />
    <glyph glyph-name="eth" unicode="&#xf0;" horiz-adv-x="1116" 
d="M72 453q0 126 56.5 237t165 181.5t245.5 70.5q121 0 215 -37q-52 106 -99 185l-293 -64l-26 117l250 53q-46 69 -150 197h258q64 -80 109 -150l223 49l27 -116l-183 -39q185 -319 185 -607q0 -159 -53.5 -281t-166.5 -195.5t-272 -73.5q-118 0 -214 41t-155 108.5
t-90.5 151t-31.5 172.5zM829 461q0 116 -72.5 186t-193.5 70t-193.5 -70t-72.5 -186q0 -121 72.5 -188.5t193.5 -67.5t193.5 67.5t72.5 188.5z" />
    <glyph glyph-name="ntilde" unicode="&#xf1;" horiz-adv-x="1087" 
d="M973 0h-234v676q0 71 -49.5 112t-128.5 41q-48 0 -85 -16t-59 -41.5t-36.5 -60.5t-19.5 -68.5t-5 -69.5v-573h-233v1024h225v-82q130 102 295 102q69 0 127 -18.5t104.5 -56t72.5 -100t26 -144.5v-725zM184 1151q-14 120 44 191t175 71q53 0 106.5 -25.5t97.5 -51
t73 -25.5q45 0 64.5 31.5t9.5 76.5l168 -20q10 -141 -52 -207t-159 -66q-48 0 -106.5 25t-107.5 49.5t-75 24.5q-31 0 -47 -18.5t-10 -55.5h-181z" />
    <glyph glyph-name="ograve" unicode="&#xf2;" horiz-adv-x="1146" 
d="M82 504q0 140 57.5 262t171.5 200t262 78q112 0 206 -45.5t155.5 -121t96 -172.5t34.5 -201q0 -78 -19.5 -153.5t-60 -142.5t-97.5 -118t-138.5 -80.5t-176.5 -29.5q-118 0 -214 45t-155 120.5t-90.5 167.5t-31.5 191zM840 512q0 138 -73 222.5t-194 84.5t-193.5 -84
t-72.5 -223q0 -145 72.5 -226t193.5 -81t194 81t73 226zM676 1413l61 -287h-205l-233 287h377z" />
    <glyph glyph-name="oacute" unicode="&#xf3;" horiz-adv-x="1146" 
d="M82 504q0 140 57.5 262t171.5 200t262 78q112 0 206 -45.5t155.5 -121t96 -172.5t34.5 -201q0 -78 -19.5 -153.5t-60 -142.5t-97.5 -118t-138.5 -80.5t-176.5 -29.5q-118 0 -214 45t-155 120.5t-90.5 167.5t-31.5 191zM840 512q0 138 -73 222.5t-194 84.5t-193.5 -84
t-72.5 -223q0 -145 72.5 -226t193.5 -81t194 81t73 226zM504 1413h377l-234 -287h-205z" />
    <glyph glyph-name="ocircumflex" unicode="&#xf4;" horiz-adv-x="1146" 
d="M82 504q0 140 57.5 262t171.5 200t262 78q112 0 206 -45.5t155.5 -121t96 -172.5t34.5 -201q0 -78 -19.5 -153.5t-60 -142.5t-97.5 -118t-138.5 -80.5t-176.5 -29.5q-118 0 -214 45t-155 120.5t-90.5 167.5t-31.5 191zM840 512q0 138 -73 222.5t-194 84.5t-193.5 -84
t-72.5 -223q0 -145 72.5 -226t193.5 -81t194 81t73 226zM416 1413h315l164 -287h-205l-117 144l-116 -144h-205z" />
    <glyph glyph-name="otilde" unicode="&#xf5;" horiz-adv-x="1146" 
d="M82 504q0 140 57.5 262t171.5 200t262 78q112 0 206 -45.5t155.5 -121t96 -172.5t34.5 -201q0 -78 -19.5 -153.5t-60 -142.5t-97.5 -118t-138.5 -80.5t-176.5 -29.5q-118 0 -214 45t-155 120.5t-90.5 167.5t-31.5 191zM840 512q0 138 -73 222.5t-194 84.5t-193.5 -84
t-72.5 -223q0 -145 72.5 -226t193.5 -81t194 81t73 226zM213 1151q-14 120 44 191t175 71q53 0 106.5 -25.5t97.5 -51t73 -25.5q45 0 64 31.5t9 76.5l168 -20q10 -141 -52 -207t-159 -66q-48 0 -106 25t-107 49.5t-75 24.5q-31 0 -47.5 -18.5t-10.5 -55.5h-180z" />
    <glyph glyph-name="odieresis" unicode="&#xf6;" horiz-adv-x="1146" 
d="M82 504q0 140 57.5 262t171.5 200t262 78q112 0 206 -45.5t155.5 -121t96 -172.5t34.5 -201q0 -78 -19.5 -153.5t-60 -142.5t-97.5 -118t-138.5 -80.5t-176.5 -29.5q-118 0 -214 45t-155 120.5t-90.5 167.5t-31.5 191zM840 512q0 138 -73 222.5t-194 84.5t-193.5 -84
t-72.5 -223q0 -145 72.5 -226t193.5 -81t194 81t73 226zM252 1393h233v-246h-233v246zM662 1393h233v-246h-233v246z" />
    <glyph glyph-name="divide" unicode="&#xf7;" horiz-adv-x="1409" 
d="M582 1231h286v-287h-286v287zM143 567v205l1123 21v-205zM541 414h286v-287h-286v287z" />
    <glyph glyph-name="oslash" unicode="&#xf8;" horiz-adv-x="1146" 
d="M90 -20v223l49 43q-57 117 -57 258q0 140 57.5 262t171.5 200t262 78q200 0 336 -139l154 131v-223l-55 -49q57 -120 57 -260q0 -78 -19.5 -153.5t-60 -142.5t-97.5 -118t-138.5 -80.5t-176.5 -29.5q-204 0 -333 126zM307 512q0 -62 15 -111l419 359q-68 59 -168 59
q-121 0 -193.5 -84t-72.5 -223zM840 512q0 50 -13 100l-415 -356q70 -51 161 -51q121 0 194 81t73 226z" />
    <glyph glyph-name="ugrave" unicode="&#xf9;" horiz-adv-x="1087" 
d="M115 1024h233v-676q0 -89 50.5 -136.5t129.5 -47.5q59 0 101 26.5t63 71.5t30 91t9 98v573h234v-1024h-226v82q-130 -102 -293 -102q-141 0 -236 89t-95 250v705zM647 1413l62 -287h-205l-234 287h377z" />
    <glyph glyph-name="uacute" unicode="&#xfa;" horiz-adv-x="1087" 
d="M115 1024h233v-676q0 -89 50.5 -136.5t129.5 -47.5q59 0 101 26.5t63 71.5t30 91t9 98v573h234v-1024h-226v82q-130 -102 -293 -102q-141 0 -236 89t-95 250v705zM475 1413h377l-234 -287h-204z" />
    <glyph glyph-name="ucircumflex" unicode="&#xfb;" horiz-adv-x="1087" 
d="M115 1024h233v-676q0 -89 50.5 -136.5t129.5 -47.5q59 0 101 26.5t63 71.5t30 91t9 98v573h234v-1024h-226v82q-130 -102 -293 -102q-141 0 -236 89t-95 250v705zM387 1413h315l164 -287h-204l-117 144l-117 -144h-205z" />
    <glyph glyph-name="udieresis" unicode="&#xfc;" horiz-adv-x="1087" 
d="M115 1024h233v-676q0 -89 50.5 -136.5t129.5 -47.5q59 0 101 26.5t63 71.5t30 91t9 98v573h234v-1024h-226v82q-130 -102 -293 -102q-141 0 -236 89t-95 250v705zM223 1393h234v-246h-234v246zM633 1393h233v-246h-233v246z" />
    <glyph glyph-name="yacute" unicode="&#xfd;" horiz-adv-x="970" 
d="M225 -172q48 0 89.5 39t41.5 92q0 28 -16 74l-340 991h246l235 -754l244 754h246l-430 -1184q-36 -98 -130 -163.5t-206 -65.5q-119 0 -205 12v217q74 -12 225 -12zM416 1413h377l-234 -287h-205z" />
    <glyph glyph-name="thorn" unicode="&#xfe;" horiz-adv-x="1171" 
d="M123 1393h217v-459q1 0 16.5 12t21 15.5t23 15.5t28.5 17t30 14.5t36 14.5t38 10.5t43.5 8t46.5 2.5q108 0 198.5 -45t148 -119t89 -167.5t31.5 -192.5q0 -150 -51.5 -271t-157 -195t-250.5 -74q-67 0 -130 19t-88.5 34t-64.5 41v-443h-225v1762zM864 512q0 149 -73 228
t-193 79q-119 0 -188.5 -78.5t-69.5 -228.5q0 -149 70.5 -228t187.5 -79q120 0 193 76t73 231z" />
    <glyph glyph-name="ydieresis" unicode="&#xff;" horiz-adv-x="970" 
d="M225 -172q48 0 89.5 39t41.5 92q0 28 -16 74l-340 991h246l235 -754l244 754h246l-430 -1184q-36 -98 -130 -163.5t-206 -65.5q-119 0 -205 12v217q74 -12 225 -12zM164 1393h233v-246h-233v246zM573 1393h234v-246h-234v246z" />
    <glyph glyph-name="Amacron" unicode="&#x100;" horiz-adv-x="1261" 
d="M1010 0l-150 383h-459l-149 -383h-258l532 1393h209l533 -1393h-258zM487 608h287l-143 367zM287 1532v174h688v-174h-688z" />
    <glyph glyph-name="amacron" unicode="&#x101;" horiz-adv-x="1142" 
d="M967 301q0 -88 104 -88q33 0 92 12v-225q-86 -12 -145 -12q-94 0 -145.5 23t-86.5 83q-26 -20 -43 -31.5t-60 -35t-98 -35.5t-118 -12q-169 0 -285 101t-116 238q0 168 128 248t351 80h196v49q0 83 -58 134t-151 51q-192 0 -192 -185h-250q0 161 127 254.5t322 93.5
q119 0 213.5 -34t154.5 -109.5t60 -181.5v-418zM319 295q0 -64 50 -108t131 -44q60 0 108 23.5t76 59t42.5 73t14.5 70.5v102q-129 6 -215.5 -4.5t-130 -36.5t-60 -57.5t-16.5 -77.5zM184 1163v174h688v-174h-688z" />
    <glyph glyph-name="Abreve" unicode="&#x102;" horiz-adv-x="1261" 
d="M1010 0l-150 383h-459l-149 -383h-258l532 1393h209l533 -1393h-258zM487 608h287l-143 367zM629 1495q-290 0 -320 287h205q0 -129 117 -129q56 0 86.5 29t30.5 100h204q-33 -287 -323 -287z" />
    <glyph glyph-name="abreve" unicode="&#x103;" horiz-adv-x="1142" 
d="M967 301q0 -88 104 -88q33 0 92 12v-225q-86 -12 -145 -12q-94 0 -145.5 23t-86.5 83q-26 -20 -43 -31.5t-60 -35t-98 -35.5t-118 -12q-169 0 -285 101t-116 238q0 168 128 248t351 80h196v49q0 83 -58 134t-151 51q-192 0 -192 -185h-250q0 161 127 254.5t322 93.5
q119 0 213.5 -34t154.5 -109.5t60 -181.5v-418zM319 295q0 -64 50 -108t131 -44q60 0 108 23.5t76 59t42.5 73t14.5 70.5v102q-129 6 -215.5 -4.5t-130 -36.5t-60 -57.5t-16.5 -77.5zM526 1126q-289 0 -319 287h205q0 -129 116 -129q56 0 86.5 29t30.5 100h205
q-33 -287 -324 -287z" />
    <glyph glyph-name="Aogonek" unicode="&#x104;" horiz-adv-x="1261" 
d="M1282 -340q-58 -49 -147 -49q-88 0 -144.5 62t-56.5 134q0 113 72 203l-146 373h-459l-149 -383h-258l532 1393h209l533 -1393h-39q-50 -7 -79.5 -52t-29.5 -89q0 -72 56 -72q50 0 92 47zM487 608h287l-143 367z" />
    <glyph glyph-name="aogonek" unicode="&#x105;" horiz-adv-x="1142" 
d="M967 301q0 -88 104 -88q33 0 92 12v-225q-13 -2 -41 -5.5t-39 -4.5q-36 -18 -56.5 -56.5t-20.5 -74.5q0 -72 55 -72q50 0 92 47l14 -174q-58 -49 -147 -49q-88 0 -144.5 62t-56.5 134q0 112 68 199q-60 20 -101 88q-26 -20 -43 -31.5t-60 -35t-98 -35.5t-118 -12
q-169 0 -285 101t-116 238q0 168 128 248t351 80h196v49q0 83 -58 134t-151 51q-192 0 -192 -185h-250q0 161 127 254.5t322 93.5q119 0 213.5 -34t154.5 -109.5t60 -181.5v-418zM319 295q0 -64 50 -108t131 -44q60 0 108 23.5t76 59t42.5 73t14.5 70.5v102
q-129 6 -215.5 -4.5t-130 -36.5t-60 -57.5t-16.5 -77.5z" />
    <glyph glyph-name="Cacute" unicode="&#x106;" horiz-adv-x="1396" 
d="M1063 578h256q-11 -272 -174.5 -435t-425.5 -163q-125 0 -235 46t-196 133t-136 225.5t-50 311.5q0 174 48 312t132 225.5t195.5 133.5t241.5 46q261 0 419 -158.5t181 -453.5h-275q-17 188 -105 278t-230 90q-164 0 -258.5 -120t-94.5 -353t95 -353t258 -120
q136 0 214 78.5t140 276.5zM629 1782h377l-234 -287h-205z" />
    <glyph glyph-name="cacute" unicode="&#x107;" horiz-adv-x="1101" 
d="M82 504q0 237 134.5 388.5t344.5 151.5q73 0 136 -18t107 -46t81 -70t59 -80t40.5 -86.5t27 -80t16.5 -69.5h-237q-35 225 -238 225q-106 0 -176 -80t-70 -227q0 -153 75 -230t187 -77q45 0 82 13t60 31t44 49t31.5 53.5t24.5 58.5h213q0 -53 -18 -110.5t-56.5 -115
t-93 -103t-134.5 -73.5t-173 -28q-103 0 -191.5 42.5t-148.5 114.5t-93.5 167.5t-33.5 199.5zM481 1413h377l-233 -287h-205z" />
    <glyph glyph-name="Ccircumflex" unicode="&#x108;" horiz-adv-x="1396" 
d="M1063 578h256q-11 -272 -174.5 -435t-425.5 -163q-125 0 -235 46t-196 133t-136 225.5t-50 311.5q0 174 48 312t132 225.5t195.5 133.5t241.5 46q261 0 419 -158.5t181 -453.5h-275q-17 188 -105 278t-230 90q-164 0 -258.5 -120t-94.5 -353t95 -353t258 -120
q136 0 214 78.5t140 276.5zM541 1782h315l164 -287h-205l-117 143l-116 -143h-205z" />
    <glyph glyph-name="ccircumflex" unicode="&#x109;" horiz-adv-x="1101" 
d="M82 504q0 237 134.5 388.5t344.5 151.5q73 0 136 -18t107 -46t81 -70t59 -80t40.5 -86.5t27 -80t16.5 -69.5h-237q-35 225 -238 225q-106 0 -176 -80t-70 -227q0 -153 75 -230t187 -77q45 0 82 13t60 31t44 49t31.5 53.5t24.5 58.5h213q0 -53 -18 -110.5t-56.5 -115
t-93 -103t-134.5 -73.5t-173 -28q-103 0 -191.5 42.5t-148.5 114.5t-93.5 167.5t-33.5 199.5zM393 1413h316l163 -287h-204l-117 144l-117 -144h-205z" />
    <glyph glyph-name="Cdotaccent" unicode="&#x10a;" horiz-adv-x="1396" 
d="M1063 578h256q-11 -272 -174.5 -435t-425.5 -163q-125 0 -235 46t-196 133t-136 225.5t-50 311.5q0 174 48 312t132 225.5t195.5 133.5t241.5 46q261 0 419 -158.5t181 -453.5h-275q-17 188 -105 278t-230 90q-164 0 -258.5 -120t-94.5 -353t95 -353t258 -120
q136 0 214 78.5t140 276.5zM582 1761h233v-245h-233v245z" />
    <glyph glyph-name="cdotaccent" unicode="&#x10b;" horiz-adv-x="1101" 
d="M82 504q0 237 134.5 388.5t344.5 151.5q73 0 136 -18t107 -46t81 -70t59 -80t40.5 -86.5t27 -80t16.5 -69.5h-237q-35 225 -238 225q-106 0 -176 -80t-70 -227q0 -153 75 -230t187 -77q45 0 82 13t60 31t44 49t31.5 53.5t24.5 58.5h213q0 -53 -18 -110.5t-56.5 -115
t-93 -103t-134.5 -73.5t-173 -28q-103 0 -191.5 42.5t-148.5 114.5t-93.5 167.5t-33.5 199.5zM434 1393h234v-246h-234v246z" />
    <glyph glyph-name="Ccaron" unicode="&#x10c;" horiz-adv-x="1396" 
d="M1063 578h256q-11 -272 -174.5 -435t-425.5 -163q-125 0 -235 46t-196 133t-136 225.5t-50 311.5q0 174 48 312t132 225.5t195.5 133.5t241.5 46q261 0 419 -158.5t181 -453.5h-275q-17 188 -105 278t-230 90q-164 0 -258.5 -120t-94.5 -353t95 -353t258 -120
q136 0 214 78.5t140 276.5zM541 1495l-164 287h205l116 -144l117 144h205l-164 -287h-315z" />
    <glyph glyph-name="ccaron" unicode="&#x10d;" horiz-adv-x="1101" 
d="M82 504q0 237 134.5 388.5t344.5 151.5q73 0 136 -18t107 -46t81 -70t59 -80t40.5 -86.5t27 -80t16.5 -69.5h-237q-35 225 -238 225q-106 0 -176 -80t-70 -227q0 -153 75 -230t187 -77q45 0 82 13t60 31t44 49t31.5 53.5t24.5 58.5h213q0 -53 -18 -110.5t-56.5 -115
t-93 -103t-134.5 -73.5t-173 -28q-103 0 -191.5 42.5t-148.5 114.5t-93.5 167.5t-33.5 199.5zM393 1126l-164 287h205l117 -143l117 143h204l-163 -287h-316z" />
    <glyph glyph-name="Dcaron" unicode="&#x10e;" horiz-adv-x="1386" 
d="M176 0v1393h416q315 0 504.5 -188t189.5 -509q0 -320 -190 -508t-504 -188h-416zM578 231q220 0 337 117.5t117 347.5t-117 347.5t-337 117.5h-158v-930h158zM537 1495l-164 287h205l116 -144l117 144h205l-164 -287h-315z" />
    <glyph glyph-name="dcaron" unicode="&#x10f;" horiz-adv-x="1345" 
d="M1049 0h-218v90q-2 -1 -16.5 -12t-21 -15.5t-23 -15.5t-28 -16.5t-30 -15t-35.5 -14.5t-38 -10.5t-43.5 -8t-46.5 -2.5q-108 0 -198.5 45t-148 119t-89 167.5t-31.5 192.5q0 150 51.5 271t157 195t250.5 74q67 0 129.5 -19t88 -33.5t64.5 -41.5v443h226v-1393zM307 512
q0 -149 73 -228t193 -79q119 0 188.5 78.5t69.5 228.5q0 149 -70.5 228t-187.5 79q-120 0 -193 -76t-73 -231zM1169 797l72 596h227l-133 -596h-166z" />
    <glyph glyph-name="Dcroat" unicode="&#x110;" horiz-adv-x="1386" 
d="M176 0v588h-176v223h176v582h416q315 0 504.5 -188t189.5 -509q0 -320 -190 -508t-504 -188h-416zM578 231q220 0 337 117.5t117 347.5t-117 347.5t-337 117.5h-158v-350h246v-223h-246v-357h158z" />
    <glyph glyph-name="dcroat" unicode="&#x111;" horiz-adv-x="1171" 
d="M1049 0h-218v90q-2 -1 -16.5 -12t-21 -15.5t-23 -15.5t-28 -16.5t-30 -15t-35.5 -14.5t-38 -10.5t-43.5 -8t-46.5 -2.5q-108 0 -198.5 45t-148 119t-89 167.5t-31.5 192.5q0 150 51.5 271t157 195t250.5 74q67 0 129.5 -19t88 -33.5t64.5 -41.5v164h-317v174h317v105h226
v-105h145v-174h-145v-1114zM307 512q0 -149 73 -228t193 -79q119 0 188.5 78.5t69.5 228.5q0 149 -70.5 228t-187.5 79q-120 0 -193 -76t-73 -231z" />
    <glyph glyph-name="Emacron" unicode="&#x112;" horiz-adv-x="1142" 
d="M176 0v1393h852v-232h-608v-284h575v-232h-575v-414h608v-231h-852zM227 1532v174h688v-174h-688z" />
    <glyph glyph-name="emacron" unicode="&#x113;" horiz-adv-x="1091" 
d="M72 504q0 103 34.5 200.5t95 173t151 121t194.5 45.5q217 0 343 -151t136 -434h-727q13 -128 83.5 -191t178.5 -63q55 0 98 15t68.5 41t37.5 44.5t23 42.5h226q-4 -44 -21.5 -91.5t-54.5 -97.5t-87 -89.5t-125 -64.5t-163 -25q-145 0 -258.5 73t-173 192t-59.5 259z
M555 860q-86 0 -149.5 -48.5t-90.5 -147.5h469q-10 94 -70.5 145t-158.5 51zM203 1163v174h688v-174h-688z" />
    <glyph glyph-name="Ebreve" unicode="&#x114;" horiz-adv-x="1142" 
d="M176 0v1393h852v-232h-608v-284h575v-232h-575v-414h608v-231h-852zM569 1495q-289 0 -319 287h205q0 -129 116 -129q56 0 86.5 29t30.5 100h205q-33 -287 -324 -287z" />
    <glyph glyph-name="ebreve" unicode="&#x115;" horiz-adv-x="1091" 
d="M72 504q0 103 34.5 200.5t95 173t151 121t194.5 45.5q217 0 343 -151t136 -434h-727q13 -128 83.5 -191t178.5 -63q55 0 98 15t68.5 41t37.5 44.5t23 42.5h226q-4 -44 -21.5 -91.5t-54.5 -97.5t-87 -89.5t-125 -64.5t-163 -25q-145 0 -258.5 73t-173 192t-59.5 259z
M555 860q-86 0 -149.5 -48.5t-90.5 -147.5h469q-10 94 -70.5 145t-158.5 51zM545 1126q-290 0 -320 287h205q0 -129 117 -129q56 0 86.5 29t30.5 100h204q-33 -287 -323 -287z" />
    <glyph glyph-name="Edotaccent" unicode="&#x116;" horiz-adv-x="1142" 
d="M176 0v1393h852v-232h-608v-284h575v-232h-575v-414h608v-231h-852zM455 1761h233v-245h-233v245z" />
    <glyph glyph-name="edotaccent" unicode="&#x117;" horiz-adv-x="1091" 
d="M72 504q0 103 34.5 200.5t95 173t151 121t194.5 45.5q217 0 343 -151t136 -434h-727q13 -128 83.5 -191t178.5 -63q55 0 98 15t68.5 41t37.5 44.5t23 42.5h226q-4 -44 -21.5 -91.5t-54.5 -97.5t-87 -89.5t-125 -64.5t-163 -25q-145 0 -258.5 73t-173 192t-59.5 259z
M555 860q-86 0 -149.5 -48.5t-90.5 -147.5h469q-10 94 -70.5 145t-158.5 51zM430 1393h234v-246h-234v246z" />
    <glyph glyph-name="Eogonek" unicode="&#x118;" horiz-adv-x="1142" 
d="M176 0v1393h852v-232h-608v-284h575v-232h-575v-414h608v-231h-6q-50 -7 -79.5 -52t-29.5 -89q0 -72 56 -72q50 0 92 47l14 -174q-58 -49 -147 -49q-88 0 -144.5 62t-56.5 134q0 110 64 193h-615z" />
    <glyph glyph-name="eogonek" unicode="&#x119;" horiz-adv-x="1091" 
d="M72 504q0 103 34.5 200.5t95 173t151 121t194.5 45.5q217 0 343 -151t136 -434h-727q13 -128 83.5 -191t178.5 -63q55 0 98 15t68.5 41t37.5 44.5t23 42.5h226q-4 -46 -23.5 -95.5t-54.5 -99t-93 -91t-130 -62.5h-2q-9 -3 -21 -6q-40 -14 -63 -55.5t-23 -79.5
q0 -72 55 -72q51 0 93 47l14 -174q-58 -49 -148 -49q-88 0 -144 62t-56 134q0 105 55 181q-182 32 -291.5 178t-109.5 338zM555 860q-86 0 -149.5 -48.5t-90.5 -147.5h469q-10 94 -70.5 145t-158.5 51z" />
    <glyph glyph-name="Ecaron" unicode="&#x11a;" horiz-adv-x="1142" 
d="M176 0v1393h852v-232h-608v-284h575v-232h-575v-414h608v-231h-852zM414 1495l-164 287h205l116 -144l117 144h205l-164 -287h-315z" />
    <glyph glyph-name="ecaron" unicode="&#x11b;" horiz-adv-x="1091" 
d="M72 504q0 103 34.5 200.5t95 173t151 121t194.5 45.5q217 0 343 -151t136 -434h-727q13 -128 83.5 -191t178.5 -63q55 0 98 15t68.5 41t37.5 44.5t23 42.5h226q-4 -44 -21.5 -91.5t-54.5 -97.5t-87 -89.5t-125 -64.5t-163 -25q-145 0 -258.5 73t-173 192t-59.5 259z
M555 860q-86 0 -149.5 -48.5t-90.5 -147.5h469q-10 94 -70.5 145t-158.5 51zM389 1126l-164 287h205l117 -143l117 143h204l-163 -287h-316z" />
    <glyph glyph-name="Gcircumflex" unicode="&#x11c;" horiz-adv-x="1427" 
d="M727 506v233h573l-6 -739h-231q-1 15 -2 44t-2 44q-111 -108 -320 -108q-133 0 -249 49t-202.5 139t-136 226.5t-49.5 301.5q0 166 48.5 302.5t134 226.5t202.5 139t254 49q104 0 194 -26.5t164 -79.5t123.5 -140.5t65.5 -201.5h-287q-11 91 -84.5 147.5t-189.5 56.5
q-170 0 -270.5 -126t-100.5 -347q0 -222 111 -347.5t303 -125.5q131 0 199.5 68t87.5 215h-330zM557 1782h315l164 -287h-205l-116 143l-117 -143h-205z" />
    <glyph glyph-name="gcircumflex" unicode="&#x11d;" horiz-adv-x="1146" 
d="M799 0v127q-108 -86 -262 -86q-109 0 -197 39t-143.5 106t-85 153.5t-29.5 184.5q0 138 55 256.5t157.5 191t229.5 72.5q169 0 283 -94v74h217v-1004q0 -198 -116 -303.5t-339 -105.5q-221 0 -350 92t-129 256h234q11 -30 17 -44.5t25 -41.5t42 -41t63.5 -25.5
t93.5 -11.5q119 0 176.5 54.5t57.5 150.5zM307 524q0 -144 69 -221.5t185 -77.5q115 0 180.5 77t65.5 222q0 138 -65.5 216.5t-180.5 78.5q-116 0 -185 -79t-69 -216zM436 1413h316l163 -287h-204l-117 144l-117 -144h-205z" />
    <glyph glyph-name="Gbreve" unicode="&#x11e;" horiz-adv-x="1427" 
d="M727 506v233h573l-6 -739h-231q-1 15 -2 44t-2 44q-111 -108 -320 -108q-133 0 -249 49t-202.5 139t-136 226.5t-49.5 301.5q0 166 48.5 302.5t134 226.5t202.5 139t254 49q104 0 194 -26.5t164 -79.5t123.5 -140.5t65.5 -201.5h-287q-11 91 -84.5 147.5t-189.5 56.5
q-170 0 -270.5 -126t-100.5 -347q0 -222 111 -347.5t303 -125.5q131 0 199.5 68t87.5 215h-330zM713 1495q-290 0 -320 287h205q0 -129 117 -129q55 0 85.5 29t30.5 100h205q-33 -287 -323 -287z" />
    <glyph glyph-name="gbreve" unicode="&#x11f;" horiz-adv-x="1146" 
d="M799 0v127q-108 -86 -262 -86q-109 0 -197 39t-143.5 106t-85 153.5t-29.5 184.5q0 138 55 256.5t157.5 191t229.5 72.5q169 0 283 -94v74h217v-1004q0 -198 -116 -303.5t-339 -105.5q-221 0 -350 92t-129 256h234q11 -30 17 -44.5t25 -41.5t42 -41t63.5 -25.5
t93.5 -11.5q119 0 176.5 54.5t57.5 150.5zM307 524q0 -144 69 -221.5t185 -77.5q115 0 180.5 77t65.5 222q0 138 -65.5 216.5t-180.5 78.5q-116 0 -185 -79t-69 -216zM592 1126q-290 0 -320 287h205q0 -129 117 -129q56 0 86.5 29t30.5 100h204q-33 -287 -323 -287z" />
    <glyph glyph-name="Gdotaccent" unicode="&#x120;" horiz-adv-x="1427" 
d="M727 506v233h573l-6 -739h-231q-1 15 -2 44t-2 44q-111 -108 -320 -108q-133 0 -249 49t-202.5 139t-136 226.5t-49.5 301.5q0 166 48.5 302.5t134 226.5t202.5 139t254 49q104 0 194 -26.5t164 -79.5t123.5 -140.5t65.5 -201.5h-287q-11 91 -84.5 147.5t-189.5 56.5
q-170 0 -270.5 -126t-100.5 -347q0 -222 111 -347.5t303 -125.5q131 0 199.5 68t87.5 215h-330zM598 1761h233v-245h-233v245z" />
    <glyph glyph-name="gdotaccent" unicode="&#x121;" horiz-adv-x="1146" 
d="M799 0v127q-108 -86 -262 -86q-109 0 -197 39t-143.5 106t-85 153.5t-29.5 184.5q0 138 55 256.5t157.5 191t229.5 72.5q169 0 283 -94v74h217v-1004q0 -198 -116 -303.5t-339 -105.5q-221 0 -350 92t-129 256h234q11 -30 17 -44.5t25 -41.5t42 -41t63.5 -25.5
t93.5 -11.5q119 0 176.5 54.5t57.5 150.5zM307 524q0 -144 69 -221.5t185 -77.5q115 0 180.5 77t65.5 222q0 138 -65.5 216.5t-180.5 78.5q-116 0 -185 -79t-69 -216zM477 1393h234v-246h-234v246z" />
    <glyph glyph-name="Gcommaaccent" unicode="&#x122;" horiz-adv-x="1427" 
d="M727 506v233h573l-6 -739h-231q-1 15 -2 44t-2 44q-111 -108 -320 -108q-133 0 -249 49t-202.5 139t-136 226.5t-49.5 301.5q0 166 48.5 302.5t134 226.5t202.5 139t254 49q104 0 194 -26.5t164 -79.5t123.5 -140.5t65.5 -201.5h-287q-11 91 -84.5 147.5t-189.5 56.5
q-170 0 -270.5 -126t-100.5 -347q0 -222 111 -347.5t303 -125.5q131 0 199.5 68t87.5 215h-330zM561 -123h307v-242q0 -133 -74 -191t-235 -58v143q69 0 107.5 28.5t38.5 73.5h-144v246z" />
    <glyph glyph-name="gcommaaccent" unicode="&#x123;" horiz-adv-x="1146" 
d="M799 0v127q-108 -86 -262 -86q-109 0 -197 39t-143.5 106t-85 153.5t-29.5 184.5q0 138 55 256.5t157.5 191t229.5 72.5q169 0 283 -94v74h217v-1004q0 -198 -116 -303.5t-339 -105.5q-221 0 -350 92t-129 256h234q11 -30 17 -44.5t25 -41.5t42 -41t63.5 -25.5
t93.5 -11.5q119 0 176.5 54.5t57.5 150.5zM307 524q0 -144 69 -221.5t185 -77.5q115 0 180.5 77t65.5 222q0 138 -65.5 216.5t-180.5 78.5q-116 0 -185 -79t-69 -216zM745 1126h-307v242q0 133 74.5 191.5t235.5 58.5v-143q-69 0 -107.5 -28.5t-38.5 -74.5h143v-246z" />
    <glyph glyph-name="Hcircumflex" unicode="&#x124;" horiz-adv-x="1384" 
d="M176 0v1393h244v-553h545v553h243v-1393h-243v598h-545v-598h-244zM535 1782h315l164 -287h-205l-117 143l-117 -143h-204z" />
    <glyph glyph-name="hcircumflex" unicode="&#x125;" horiz-adv-x="1079" 
d="M965 0h-234v676q0 83 -50 129.5t-128 46.5q-59 0 -101.5 -28.5t-64 -76t-30.5 -95t-9 -99.5v-553h-225v1393h217v-451q39 39 112.5 70.5t182.5 31.5q69 0 127 -18.5t104.5 -56t72.5 -100t26 -144.5v-725zM383 1784h315l164 -287h-205l-116 143l-117 -143h-205z" />
    <glyph glyph-name="Hbar" unicode="&#x126;" horiz-adv-x="1384" 
d="M176 0v1055h-110v174h110v164h244v-164h545v164h243v-164h111v-174h-111v-1055h-243v598h-545v-598h-244zM420 840h545v215h-545v-215z" />
    <glyph glyph-name="hbar" unicode="&#x127;" horiz-adv-x="1079" 
d="M965 0h-234v676q0 83 -50 129.5t-128 46.5q-59 0 -101.5 -28.5t-64 -76t-30.5 -95t-9 -99.5v-553h-225v1114h-146v174h146v105h217v-105h326v-174h-326v-172q39 39 112.5 70.5t182.5 31.5q69 0 127 -18.5t104.5 -56t72.5 -100t26 -144.5v-725z" />
    <glyph glyph-name="Itilde" unicode="&#x128;" horiz-adv-x="595" 
d="M176 0v1393h244v-1393h-244zM-61 1530q-14 120 44 191t175 71q53 0 106.5 -25.5t97 -51t72.5 -25.5q45 0 64.5 31.5t9.5 76.5l168 -20q10 -141 -52 -207t-159 -66q-38 0 -83.5 15.5t-79 34t-69 34t-57.5 15.5q-31 0 -47 -18.5t-10 -55.5h-180z" />
    <glyph glyph-name="itilde" unicode="&#x129;" horiz-adv-x="479" 
d="M123 1024h233v-1024h-233v1024zM-121 1151q-14 120 44 191t175 71q53 0 106.5 -25.5t97.5 -51t73 -25.5q45 0 64.5 31.5t9.5 76.5l167 -20q10 -141 -51.5 -207t-158.5 -66q-48 0 -106.5 25t-107.5 49.5t-75 24.5q-31 0 -47.5 -18.5t-10.5 -55.5h-180z" />
    <glyph glyph-name="Imacron" unicode="&#x12a;" horiz-adv-x="595" 
d="M176 0v1393h244v-1393h-244zM-45 1532v174h688v-174h-688z" />
    <glyph glyph-name="imacron" unicode="&#x12b;" horiz-adv-x="479" 
d="M123 1024h233v-1024h-233v1024zM-104 1163v174h688v-174h-688z" />
    <glyph glyph-name="Ibreve" unicode="&#x12c;" horiz-adv-x="595" 
d="M176 0v1393h244v-1393h-244zM297 1495q-290 0 -320 287h205q0 -129 117 -129q56 0 86.5 29t30.5 100h205q-33 -287 -324 -287z" />
    <glyph glyph-name="ibreve" unicode="&#x12d;" horiz-adv-x="479" 
d="M123 1024h233v-1024h-233v1024zM238 1126q-290 0 -320 287h205q0 -129 117 -129q55 0 85.5 29t30.5 100h205q-33 -287 -323 -287z" />
    <glyph glyph-name="Iogonek" unicode="&#x12e;" horiz-adv-x="595" 
d="M455 -340q-58 -49 -148 -49q-88 0 -144.5 62t-56.5 134q-3 114 70 201v1385h244v-1393h-19q-50 -7 -79 -52t-29 -89q0 -72 55 -72q50 0 92 47z" />
    <glyph glyph-name="iogonek" unicode="&#x12f;" horiz-adv-x="479" 
d="M123 1413h233v-246h-233v246zM123 1024h233v-1024h-14q-50 -7 -79.5 -52t-29.5 -89q0 -72 56 -72q50 0 92 47l14 -174q-58 -49 -147 -49q-88 0 -144.5 62t-56.5 134q0 119 76 207v1010z" />
    <glyph glyph-name="Idotaccent" unicode="&#x130;" horiz-adv-x="595" 
d="M176 0v1393h244v-1393h-244zM182 1761h234v-245h-234v245z" />
    <glyph glyph-name="dotlessi" unicode="&#x131;" horiz-adv-x="479" 
d="M123 1024h233v-1024h-233v1024z" />
    <glyph glyph-name="IJ" unicode="&#x132;" horiz-adv-x="1480" 
d="M176 0v1393h244v-1393h-244zM1083 1393h242v-1053q0 -82 -25 -146.5t-63.5 -103.5t-90.5 -65t-101.5 -35.5t-100.5 -9.5q-70 0 -131 17.5t-118 58t-90.5 118.5t-33.5 186q0 55 10.5 142t10.5 92h213v-246q0 -139 137 -139q71 0 106 34t35 85v1065z" />
    <glyph glyph-name="ij" unicode="&#x133;" horiz-adv-x="942" 
d="M123 1413h233v-246h-233v246zM123 1024h233v-1024h-233v1024zM594 1413h225v-246h-225v246zM819 1024v-1192q0 -39 -13 -76.5t-38.5 -70.5t-69.5 -53.5t-100 -20.5q-90 0 -162 24v205q28 -16 76 -16q82 0 82 78v1122h225z" />
    <glyph glyph-name="Jcircumflex" unicode="&#x134;" horiz-adv-x="937" 
d="M541 1393h241v-1053q0 -82 -25 -146.5t-63.5 -103.5t-90.5 -65t-101.5 -35.5t-100.5 -9.5q-55 0 -104.5 10t-99.5 37t-86.5 68t-59 109.5t-22.5 155.5q0 55 10 143.5t10 90.5h213v-246q0 -139 137 -139q71 0 106.5 34t35.5 85v1065zM487 1782h316l164 -287h-205l-117 143
l-117 -143h-204z" />
    <glyph glyph-name="jcircumflex" unicode="&#x135;" horiz-adv-x="471" 
d="M348 1024v-1192q0 -39 -13 -76.5t-38.5 -70.5t-69.5 -53.5t-100 -20.5q-90 0 -162 24v205q28 -16 76 -16q82 0 82 78v1122h225zM78 1413h315l164 -287h-205l-116 144l-117 -144h-205z" />
    <glyph glyph-name="Kcommaaccent" unicode="&#x136;" horiz-adv-x="1236" 
d="M176 0v1393h244v-500l446 500h293l-430 -516l426 -877h-283l-323 659l-129 -155v-504h-244zM465 -123h307v-242q0 -133 -74 -191t-235 -58v143q69 0 107 28t38 74h-143v246z" />
    <glyph glyph-name="kcommaaccent" unicode="&#x137;" horiz-adv-x="1003" 
d="M123 1393h233v-723l365 354h283l-357 -338l357 -686h-263l-258 532l-127 -118v-414h-233v1393zM348 -123h307v-242q0 -133 -74 -191t-235 -58v143q69 0 107.5 28.5t38.5 73.5h-144v246z" />
    <glyph glyph-name="Lacute" unicode="&#x139;" horiz-adv-x="1073" 
d="M176 0v1393h244v-1162h553v-231h-797zM258 1782h377l-234 -287h-204z" />
    <glyph glyph-name="lacute" unicode="&#x13a;" horiz-adv-x="479" 
d="M123 1393h233v-1393h-233v1393zM195 1772h376l-233 -287h-205z" />
    <glyph glyph-name="Lcommaaccent" unicode="&#x13b;" horiz-adv-x="1073" 
d="M176 0v1393h244v-1162h553v-231h-797zM383 -123h307v-242q0 -133 -74 -191t-235 -58v143q69 0 107 28t38 74h-143v246z" />
    <glyph glyph-name="lcommaaccent" unicode="&#x13c;" horiz-adv-x="479" 
d="M123 1393h233v-1393h-233v1393zM86 -123h307v-242q0 -133 -74 -191t-235 -58v143q69 0 107 28t38 74h-143v246z" />
    <glyph glyph-name="Lcaron" unicode="&#x13d;" horiz-adv-x="1073" 
d="M176 0v1393h244v-1162h553v-231h-797zM575 797l72 596h227l-133 -596h-166z" />
    <glyph glyph-name="lcaron" unicode="&#x13e;" horiz-adv-x="651" 
d="M123 1393h233v-1393h-233v1393zM473 797l72 596h227l-133 -596h-166z" />
    <glyph glyph-name="Ldot" unicode="&#x13f;" horiz-adv-x="1073" 
d="M176 0v1393h244v-1162h553v-231h-797zM713 877h233v-246h-233v246z" />
    <glyph glyph-name="ldot" unicode="&#x140;" horiz-adv-x="632" 
d="M440 807h234v-246h-234v246zM123 1393h233v-1393h-233v1393z" />
    <glyph glyph-name="Lslash" unicode="&#x141;" horiz-adv-x="1073" 
d="M176 0v608l-168 -51v223l168 51v562h244v-488l244 74v-223l-244 -74v-451h553v-231h-797z" />
    <glyph glyph-name="lslash" unicode="&#x142;" horiz-adv-x="479" 
d="M-27 598v223l150 43v529h233v-463l150 43v-223l-150 -43v-707h-233v641z" />
    <glyph glyph-name="Nacute" unicode="&#x143;" horiz-adv-x="1353" 
d="M176 0v1393h266l500 -908v908h236v-1393h-267l-499 907v-907h-236zM608 1782h377l-233 -287h-205z" />
    <glyph glyph-name="nacute" unicode="&#x144;" horiz-adv-x="1087" 
d="M973 0h-234v676q0 71 -49.5 112t-128.5 41q-48 0 -85 -16t-59 -41.5t-36.5 -60.5t-19.5 -68.5t-5 -69.5v-573h-233v1024h225v-82q130 102 295 102q69 0 127 -18.5t104.5 -56t72.5 -100t26 -144.5v-725zM475 1413h377l-234 -287h-204z" />
    <glyph glyph-name="Ncommaaccent" unicode="&#x145;" horiz-adv-x="1353" 
d="M176 0v1393h266l500 -908v908h236v-1393h-267l-499 907v-907h-236zM524 -123h307v-242q0 -133 -74 -191t-235 -58v143q69 0 107.5 28.5t38.5 73.5h-144v246z" />
    <glyph glyph-name="ncommaaccent" unicode="&#x146;" horiz-adv-x="1087" 
d="M973 0h-234v676q0 71 -49.5 112t-128.5 41q-48 0 -85 -16t-59 -41.5t-36.5 -60.5t-19.5 -68.5t-5 -69.5v-573h-233v1024h225v-82q130 102 295 102q69 0 127 -18.5t104.5 -56t72.5 -100t26 -144.5v-725zM391 -123h307v-242q0 -133 -74 -191t-235 -58v143q69 0 107.5 28.5
t38.5 73.5h-144v246z" />
    <glyph glyph-name="Ncaron" unicode="&#x147;" horiz-adv-x="1353" 
d="M176 0v1393h266l500 -908v908h236v-1393h-267l-499 907v-907h-236zM520 1495l-164 287h205l117 -144l117 144h204l-163 -287h-316z" />
    <glyph glyph-name="ncaron" unicode="&#x148;" horiz-adv-x="1087" 
d="M973 0h-234v676q0 71 -49.5 112t-128.5 41q-48 0 -85 -16t-59 -41.5t-36.5 -60.5t-19.5 -68.5t-5 -69.5v-573h-233v1024h225v-82q130 102 295 102q69 0 127 -18.5t104.5 -56t72.5 -100t26 -144.5v-725zM387 1126l-164 287h205l117 -143l117 143h204l-164 -287h-315z" />
    <glyph glyph-name="Eng" unicode="&#x14a;" horiz-adv-x="1353" 
d="M176 0v1393h266l500 -908v908h236v-1561q0 -38 -13 -76t-39 -71t-70 -53.5t-100 -20.5q-89 0 -161 24v205q28 -16 75 -16q82 0 82 78v98h-41l-499 907v-907h-236z" />
    <glyph glyph-name="eng" unicode="&#x14b;" horiz-adv-x="1087" 
d="M643 1044q69 0 127 -18.5t104.5 -56t72.5 -100t26 -144.5v-893q0 -39 -13 -76.5t-38.5 -70.5t-69.5 -53.5t-100 -20.5q-90 0 -162 24v205q28 -16 76 -16q73 0 73 78v774q0 71 -49.5 112t-128.5 41q-48 0 -85 -16t-59 -41.5t-36.5 -60.5t-19.5 -68.5t-5 -69.5v-573h-233
v1024h225v-82q130 102 295 102z" />
    <glyph glyph-name="Omacron" unicode="&#x14c;" horiz-adv-x="1443" 
d="M721 -20q-129 0 -242 50.5t-196.5 142t-132 227t-48.5 296.5t48 297t131.5 227.5t197 142t242.5 50.5q130 0 244 -50.5t197.5 -142t132 -227.5t48.5 -297t-48.5 -296.5t-132.5 -227t-198 -142t-243 -50.5zM721 223q164 0 265 127t101 346t-101 346t-265 127t-264.5 -127
t-100.5 -346t100.5 -346t264.5 -127zM379 1532v174h688v-174h-688z" />
    <glyph glyph-name="omacron" unicode="&#x14d;" horiz-adv-x="1146" 
d="M82 504q0 140 57.5 262t171.5 200t262 78q112 0 206 -45.5t155.5 -121t96 -172.5t34.5 -201q0 -78 -19.5 -153.5t-60 -142.5t-97.5 -118t-138.5 -80.5t-176.5 -29.5q-118 0 -214 45t-155 120.5t-90.5 167.5t-31.5 191zM840 512q0 138 -73 222.5t-194 84.5t-193.5 -84
t-72.5 -223q0 -145 72.5 -226t193.5 -81t194 81t73 226zM229 1163v174h689v-174h-689z" />
    <glyph glyph-name="Obreve" unicode="&#x14e;" horiz-adv-x="1443" 
d="M721 -20q-129 0 -242 50.5t-196.5 142t-132 227t-48.5 296.5t48 297t131.5 227.5t197 142t242.5 50.5q130 0 244 -50.5t197.5 -142t132 -227.5t48.5 -297t-48.5 -296.5t-132.5 -227t-198 -142t-243 -50.5zM721 223q164 0 265 127t101 346t-101 346t-265 127t-264.5 -127
t-100.5 -346t100.5 -346t264.5 -127zM721 1495q-290 0 -320 287h205q0 -129 117 -129q56 0 86.5 29t30.5 100h204q-33 -287 -323 -287z" />
    <glyph glyph-name="obreve" unicode="&#x14f;" horiz-adv-x="1146" 
d="M82 504q0 140 57.5 262t171.5 200t262 78q112 0 206 -45.5t155.5 -121t96 -172.5t34.5 -201q0 -78 -19.5 -153.5t-60 -142.5t-97.5 -118t-138.5 -80.5t-176.5 -29.5q-118 0 -214 45t-155 120.5t-90.5 167.5t-31.5 191zM840 512q0 138 -73 222.5t-194 84.5t-193.5 -84
t-72.5 -223q0 -145 72.5 -226t193.5 -81t194 81t73 226zM571 1126q-289 0 -319 287h205q0 -129 116 -129q56 0 86.5 29t30.5 100h205q-33 -287 -324 -287z" />
    <glyph glyph-name="Ohungarumlaut" unicode="&#x150;" horiz-adv-x="1443" 
d="M721 -20q-129 0 -242 50.5t-196.5 142t-132 227t-48.5 296.5t48 297t131.5 227.5t197 142t242.5 50.5q130 0 244 -50.5t197.5 -142t132 -227.5t48.5 -297t-48.5 -296.5t-132.5 -227t-198 -142t-243 -50.5zM721 223q164 0 265 127t101 346t-101 346t-265 127t-264.5 -127
t-100.5 -346t100.5 -346t264.5 -127zM827 1782h336l-213 -287h-184zM418 1782h336l-213 -287h-185z" />
    <glyph glyph-name="ohungarumlaut" unicode="&#x151;" horiz-adv-x="1146" 
d="M82 504q0 140 57.5 262t171.5 200t262 78q112 0 206 -45.5t155.5 -121t96 -172.5t34.5 -201q0 -78 -19.5 -153.5t-60 -142.5t-97.5 -118t-138.5 -80.5t-176.5 -29.5q-118 0 -214 45t-155 120.5t-90.5 167.5t-31.5 191zM840 512q0 138 -73 222.5t-194 84.5t-193.5 -84
t-72.5 -223q0 -145 72.5 -226t193.5 -81t194 81t73 226zM678 1413h336l-213 -287h-185zM268 1413h336l-213 -287h-184z" />
    <glyph glyph-name="OE" unicode="&#x152;" horiz-adv-x="1730" 
d="M102 696q0 320 190.5 508.5t504.5 188.5h819v-232h-496v-284h463v-232h-463v-414h496v-231h-819q-315 0 -505 187.5t-190 508.5zM811 1151q-216 0 -330 -115t-114 -340t114 -339.5t330 -114.5h55v909h-55z" />
    <glyph glyph-name="oe" unicode="&#x153;" horiz-adv-x="1689" 
d="M82 504q0 104 31.5 201t87.5 172.5t142.5 121t188.5 45.5q217 0 347 -188q58 88 138 138t177 50q415 0 430 -557h-641q4 -157 63 -233t154 -76q63 0 106 39.5t80 130.5h226q-9 -102 -66.5 -186.5t-148.5 -133t-195 -48.5q-200 0 -321 178q-128 -178 -349 -178
q-88 0 -162.5 29.5t-126.5 80.5t-89 118t-54.5 142t-17.5 154zM1194 850q-69 0 -121 -47.5t-76 -143.5h385q-10 86 -56 138.5t-132 52.5zM768 512q0 143 -64.5 230t-171.5 87t-171 -87t-64 -230q0 -149 64.5 -233t170.5 -84t171 84t65 233z" />
    <glyph glyph-name="Racute" unicode="&#x154;" horiz-adv-x="1277" 
d="M176 0v1393h578q223 0 334.5 -104t111.5 -294q0 -212 -242 -323q113 -54 138 -201l30 -174q15 -90 63 -169.5t120 -127.5h-322q-52 23 -78 83.5t-41 166.5l-22 158q-13 91 -55 140.5t-129 49.5h-242v-598h-244zM754 1161h-334v-332h328q198 0 198 166q0 79 -50.5 122.5
t-141.5 43.5zM569 1782h377l-233 -287h-205z" />
    <glyph glyph-name="racute" unicode="&#x155;" horiz-adv-x="776" 
d="M758 786q-31 13 -47.5 19t-48 12t-68.5 6q-59 0 -101 -13.5t-74 -47.5t-47.5 -95.5t-15.5 -152.5v-514h-233v1024h225v-115q52 64 110.5 99.5t147.5 35.5q92 0 164 -32zM319 1413h377l-233 -287h-205z" />
    <glyph glyph-name="Rcommaaccent" unicode="&#x156;" horiz-adv-x="1277" 
d="M176 0v1393h578q223 0 334.5 -104t111.5 -294q0 -212 -242 -323q113 -54 138 -201l30 -174q15 -90 63 -169.5t120 -127.5h-322q-52 23 -78 83.5t-41 166.5l-22 158q-13 91 -55 140.5t-129 49.5h-242v-598h-244zM754 1161h-334v-332h328q198 0 198 166q0 79 -50.5 122.5
t-141.5 43.5zM485 -123h308v-242q0 -133 -74.5 -191t-235.5 -58v143q69 0 107.5 28.5t38.5 73.5h-144v246z" />
    <glyph glyph-name="rcommaaccent" unicode="&#x157;" horiz-adv-x="776" 
d="M758 786q-31 13 -47.5 19t-48 12t-68.5 6q-59 0 -101 -13.5t-74 -47.5t-47.5 -95.5t-15.5 -152.5v-514h-233v1024h225v-115q52 64 110.5 99.5t147.5 35.5q92 0 164 -32zM92 -123h307v-242q0 -133 -74 -191t-235 -58v143q69 0 107.5 28.5t38.5 73.5h-144v246z" />
    <glyph glyph-name="Rcaron" unicode="&#x158;" horiz-adv-x="1277" 
d="M176 0v1393h578q223 0 334.5 -104t111.5 -294q0 -212 -242 -323q113 -54 138 -201l30 -174q15 -90 63 -169.5t120 -127.5h-322q-52 23 -78 83.5t-41 166.5l-22 158q-13 91 -55 140.5t-129 49.5h-242v-598h-244zM754 1161h-334v-332h328q198 0 198 166q0 79 -50.5 122.5
t-141.5 43.5zM481 1495l-164 287h205l117 -144l117 144h205l-164 -287h-316z" />
    <glyph glyph-name="rcaron" unicode="&#x159;" horiz-adv-x="776" 
d="M758 786q-31 13 -47.5 19t-48 12t-68.5 6q-59 0 -101 -13.5t-74 -47.5t-47.5 -95.5t-15.5 -152.5v-514h-233v1024h225v-115q52 64 110.5 99.5t147.5 35.5q92 0 164 -32zM231 1126l-163 287h204l117 -143l117 143h205l-164 -287h-316z" />
    <glyph glyph-name="Sacute" unicode="&#x15a;" horiz-adv-x="1204" 
d="M1110 952h-246q-4 45 -10.5 76.5t-24 72.5t-44 66.5t-74 43.5t-111.5 18q-119 0 -180.5 -53t-61.5 -140q0 -53 26.5 -88.5t71.5 -53.5t103.5 -29t123 -20t128.5 -22t122.5 -40.5t103.5 -69t71.5 -114t26.5 -169.5q0 -209 -147.5 -329.5t-387.5 -120.5q-114 0 -208 27
t-156.5 73.5t-103 108t-54.5 129.5t-4 139h258q3 -47 7 -77t14 -68t28.5 -61.5t47.5 -45t74 -31.5t105 -10q140 0 205.5 58t65.5 147q0 51 -22 87.5t-59 56t-87 35t-106 23t-115.5 21t-115.5 28.5t-106 46t-87 72.5t-59 109.5t-22 156q0 177 136.5 293t357.5 116
q139 0 243 -34.5t165.5 -97t88.5 -145.5t19 -184zM532 1782h377l-233 -287h-205z" />
    <glyph glyph-name="sacute" unicode="&#x15b;" horiz-adv-x="983" 
d="M672 729q3 68 -50 104.5t-147 36.5q-83 0 -121.5 -30.5t-38.5 -75.5q0 -34 33.5 -57t87 -36.5t118 -27t129.5 -35.5t118.5 -54.5t87 -91.5t33.5 -140q0 -152 -109 -247t-313 -95q-105 0 -186 25t-127.5 62t-76 86t-39.5 91t-10 84h234q33 -164 223 -164q86 0 132 32.5
t46 96.5q0 41 -33.5 67.5t-87 41t-118 27t-129 32.5t-118 50t-87 86.5t-33.5 135.5q0 63 22 116.5t68 98.5t127 70.5t189 25.5q92 0 166 -23t118 -58t73.5 -79.5t40.5 -82.5t11 -72h-233zM422 1413h377l-234 -287h-205z" />
    <glyph glyph-name="Scircumflex" unicode="&#x15c;" horiz-adv-x="1204" 
d="M1110 952h-246q-4 45 -10.5 76.5t-24 72.5t-44 66.5t-74 43.5t-111.5 18q-119 0 -180.5 -53t-61.5 -140q0 -53 26.5 -88.5t71.5 -53.5t103.5 -29t123 -20t128.5 -22t122.5 -40.5t103.5 -69t71.5 -114t26.5 -169.5q0 -209 -147.5 -329.5t-387.5 -120.5q-114 0 -208 27
t-156.5 73.5t-103 108t-54.5 129.5t-4 139h258q3 -47 7 -77t14 -68t28.5 -61.5t47.5 -45t74 -31.5t105 -10q140 0 205.5 58t65.5 147q0 51 -22 87.5t-59 56t-87 35t-106 23t-115.5 21t-115.5 28.5t-106 46t-87 72.5t-59 109.5t-22 156q0 177 136.5 293t357.5 116
q139 0 243 -34.5t165.5 -97t88.5 -145.5t19 -184zM444 1782h316l164 -287h-205l-117 143l-117 -143h-204z" />
    <glyph glyph-name="scircumflex" unicode="&#x15d;" horiz-adv-x="983" 
d="M672 729q3 68 -50 104.5t-147 36.5q-83 0 -121.5 -30.5t-38.5 -75.5q0 -34 33.5 -57t87 -36.5t118 -27t129.5 -35.5t118.5 -54.5t87 -91.5t33.5 -140q0 -152 -109 -247t-313 -95q-105 0 -186 25t-127.5 62t-76 86t-39.5 91t-10 84h234q33 -164 223 -164q86 0 132 32.5
t46 96.5q0 41 -33.5 67.5t-87 41t-118 27t-129 32.5t-118 50t-87 86.5t-33.5 135.5q0 63 22 116.5t68 98.5t127 70.5t189 25.5q92 0 166 -23t118 -58t73.5 -79.5t40.5 -82.5t11 -72h-233zM334 1413h315l164 -287h-205l-116 144l-117 -144h-205z" />
    <glyph glyph-name="Scedilla" unicode="&#x15e;" horiz-adv-x="1204" 
d="M489 -322l-116 43l155 261q-124 11 -219 55.5t-148.5 111t-76 145.5t-10.5 163h258q3 -47 7 -77t14 -68t28.5 -61.5t47.5 -45t74 -31.5t105 -10q140 0 205.5 58t65.5 147q0 51 -22 87.5t-59 56t-87 35t-106 23t-115.5 21t-115.5 28.5t-106 46t-87 72.5t-59 109.5t-22 156
q0 177 136.5 293t357.5 116q139 0 243 -34.5t165.5 -97t88.5 -145.5t19 -184h-246q-4 45 -10.5 76.5t-24 72.5t-44 66.5t-74 43.5t-111.5 18q-119 0 -180.5 -53t-61.5 -140q0 -53 26.5 -88.5t71.5 -53.5t103.5 -29t123 -20t128.5 -22t122.5 -40.5t103.5 -69t71.5 -114
t26.5 -169.5q0 -189 -122 -306.5t-327 -139.5l-76 -103q24 6 52 6q112 0 184 -68.5t72 -174.5t-86.5 -180t-213.5 -74q-121 0 -202.5 63.5t-75.5 173.5h172q-4 -41 26 -63.5t85 -22.5t84.5 28.5t29.5 78.5q0 45 -31.5 73.5t-78.5 28.5q-93 0 -138 -72z" />
    <glyph glyph-name="scedilla" unicode="&#x15f;" horiz-adv-x="983" 
d="M379 -322l-117 43l156 263q-84 9 -150 37t-103.5 64.5t-62 82t-33 84t-8.5 76.5h234q33 -164 223 -164q86 0 132 32.5t46 96.5q0 41 -33.5 67.5t-87 41t-118 27t-129 32.5t-118 50t-87 86.5t-33.5 135.5q0 63 22 116.5t68 98.5t127 70.5t189 25.5q92 0 166 -23t118 -58
t73.5 -79.5t40.5 -82.5t11 -72h-233q3 68 -50 104.5t-147 36.5q-83 0 -121.5 -30.5t-38.5 -75.5q0 -34 33.5 -57t87 -36.5t118 -27t129.5 -35.5t118.5 -54.5t87 -91.5t33.5 -140q0 -135 -89.5 -227.5t-257.5 -110.5l-75 -103q24 6 51 6q112 0 184 -68.5t72 -174.5t-86 -180
t-213 -74q-122 0 -203.5 64t-75.5 173h172q-4 -41 26 -63.5t85 -22.5t85 28.5t30 78.5q0 45 -32 73.5t-79 28.5q-92 0 -137 -72z" />
    <glyph glyph-name="Scaron" unicode="&#x160;" horiz-adv-x="1204" 
d="M1110 952h-246q-4 45 -10.5 76.5t-24 72.5t-44 66.5t-74 43.5t-111.5 18q-119 0 -180.5 -53t-61.5 -140q0 -53 26.5 -88.5t71.5 -53.5t103.5 -29t123 -20t128.5 -22t122.5 -40.5t103.5 -69t71.5 -114t26.5 -169.5q0 -209 -147.5 -329.5t-387.5 -120.5q-114 0 -208 27
t-156.5 73.5t-103 108t-54.5 129.5t-4 139h258q3 -47 7 -77t14 -68t28.5 -61.5t47.5 -45t74 -31.5t105 -10q140 0 205.5 58t65.5 147q0 51 -22 87.5t-59 56t-87 35t-106 23t-115.5 21t-115.5 28.5t-106 46t-87 72.5t-59 109.5t-22 156q0 177 136.5 293t357.5 116
q139 0 243 -34.5t165.5 -97t88.5 -145.5t19 -184zM444 1495l-163 287h204l117 -144l117 144h205l-164 -287h-316z" />
    <glyph glyph-name="scaron" unicode="&#x161;" horiz-adv-x="983" 
d="M672 729q3 68 -50 104.5t-147 36.5q-83 0 -121.5 -30.5t-38.5 -75.5q0 -34 33.5 -57t87 -36.5t118 -27t129.5 -35.5t118.5 -54.5t87 -91.5t33.5 -140q0 -152 -109 -247t-313 -95q-105 0 -186 25t-127.5 62t-76 86t-39.5 91t-10 84h234q33 -164 223 -164q86 0 132 32.5
t46 96.5q0 41 -33.5 67.5t-87 41t-118 27t-129 32.5t-118 50t-87 86.5t-33.5 135.5q0 63 22 116.5t68 98.5t127 70.5t189 25.5q92 0 166 -23t118 -58t73.5 -79.5t40.5 -82.5t11 -72h-233zM334 1126l-164 287h205l117 -143l116 143h205l-164 -287h-315z" />
    <glyph glyph-name="uni0162" unicode="&#x162;" horiz-adv-x="1110" 
d="M432 0v1147h-364v246h974v-246h-364v-1147h-246zM401 -123h308v-242q0 -133 -74.5 -191t-235.5 -58v143q69 0 107.5 28.5t38.5 73.5h-144v246z" />
    <glyph glyph-name="uni0163" unicode="&#x163;" horiz-adv-x="608" 
d="M164 1393h225v-369h143v-225h-143v-529q0 -77 82 -77q48 0 76 16v-205q-72 -24 -162 -24q-110 0 -165.5 55.5t-55.5 136.5v627h-123v225h123v369zM152 -123h307v-242q0 -133 -74 -191t-235 -58v143q69 0 107 28t38 74h-143v246z" />
    <glyph glyph-name="Tcaron" unicode="&#x164;" horiz-adv-x="1110" 
d="M432 0v1147h-364v246h974v-246h-364v-1147h-246zM397 1495l-164 287h205l117 -144l117 144h205l-164 -287h-316z" />
    <glyph glyph-name="tcaron" unicode="&#x165;" horiz-adv-x="608" 
d="M164 1393h225v-369h143v-225h-143v-529q0 -77 82 -77q48 0 76 16v-205q-72 -24 -162 -24q-110 0 -165.5 55.5t-55.5 136.5v627h-123v225h123v369zM481 1139l72 596h227l-133 -596h-166z" />
    <glyph glyph-name="Tbar" unicode="&#x166;" horiz-adv-x="1110" 
d="M432 0v657h-221v174h221v316h-364v246h974v-246h-364v-316h221v-174h-221v-657h-246z" />
    <glyph glyph-name="tbar" unicode="&#x167;" horiz-adv-x="608" 
d="M-41 512v174h205v113h-123v225h123v369h225v-369h143v-225h-143v-113h258v-174h-258v-242q0 -77 82 -77q48 0 76 16v-205q-72 -24 -162 -24q-110 0 -165.5 55.5t-55.5 136.5v340h-205z" />
    <glyph glyph-name="Utilde" unicode="&#x168;" horiz-adv-x="1304" 
d="M1141 1393v-987q0 -189 -137 -307.5t-355 -118.5q-114 0 -206.5 35.5t-152.5 96.5t-92 141.5t-32 172.5v967h242v-953q0 -99 62 -157t181 -58q111 0 178.5 49.5t67.5 141.5v977h244zM293 1530q-14 120 44 191t175 71q53 0 106.5 -25.5t97 -51t72.5 -25.5q45 0 64.5 31.5
t9.5 76.5l168 -20q10 -141 -52 -207t-159 -66q-38 0 -83.5 15.5t-79 34t-69 34t-57.5 15.5q-31 0 -47 -18.5t-10 -55.5h-180z" />
    <glyph glyph-name="utilde" unicode="&#x169;" horiz-adv-x="1087" 
d="M115 1024h233v-676q0 -89 50.5 -136.5t129.5 -47.5q59 0 101 26.5t63 71.5t30 91t9 98v573h234v-1024h-226v82q-130 -102 -293 -102q-141 0 -236 89t-95 250v705zM184 1151q-14 120 44 191t175 71q53 0 106.5 -25.5t97.5 -51t73 -25.5q45 0 64.5 31.5t9.5 76.5l168 -20
q10 -141 -52 -207t-159 -66q-48 0 -106.5 25t-107.5 49.5t-75 24.5q-31 0 -47 -18.5t-10 -55.5h-181z" />
    <glyph glyph-name="Umacron" unicode="&#x16a;" horiz-adv-x="1304" 
d="M1141 1393v-987q0 -189 -137 -307.5t-355 -118.5q-114 0 -206.5 35.5t-152.5 96.5t-92 141.5t-32 172.5v967h242v-953q0 -99 62 -157t181 -58q111 0 178.5 49.5t67.5 141.5v977h244zM309 1532v174h688v-174h-688z" />
    <glyph glyph-name="umacron" unicode="&#x16b;" horiz-adv-x="1087" 
d="M115 1024h233v-676q0 -89 50.5 -136.5t129.5 -47.5q59 0 101 26.5t63 71.5t30 91t9 98v573h234v-1024h-226v82q-130 -102 -293 -102q-141 0 -236 89t-95 250v705zM201 1163v174h688v-174h-688z" />
    <glyph glyph-name="Ubreve" unicode="&#x16c;" horiz-adv-x="1304" 
d="M1141 1393v-987q0 -189 -137 -307.5t-355 -118.5q-114 0 -206.5 35.5t-152.5 96.5t-92 141.5t-32 172.5v967h242v-953q0 -99 62 -157t181 -58q111 0 178.5 49.5t67.5 141.5v977h244zM651 1495q-289 0 -319 287h205q0 -129 116 -129q56 0 86.5 29t30.5 100h205
q-33 -287 -324 -287z" />
    <glyph glyph-name="ubreve" unicode="&#x16d;" horiz-adv-x="1087" 
d="M115 1024h233v-676q0 -89 50.5 -136.5t129.5 -47.5q59 0 101 26.5t63 71.5t30 91t9 98v573h234v-1024h-226v82q-130 -102 -293 -102q-141 0 -236 89t-95 250v705zM543 1126q-290 0 -320 287h205q0 -129 117 -129q56 0 86.5 29t30.5 100h204q-33 -287 -323 -287z" />
    <glyph glyph-name="Uring" unicode="&#x16e;" horiz-adv-x="1304" 
d="M1141 1393v-987q0 -189 -137 -307.5t-355 -118.5q-114 0 -206.5 35.5t-152.5 96.5t-92 141.5t-32 172.5v967h242v-953q0 -99 62 -157t181 -58q111 0 178.5 49.5t67.5 141.5v977h244zM653 1495q-104 0 -177 75.5t-73 180.5t73 179.5t177 74.5q103 0 177.5 -75t74.5 -179
t-74.5 -180t-177.5 -76zM647 1638q46 0 78.5 33.5t32.5 79.5q0 44 -32.5 75.5t-78.5 31.5q-45 0 -77.5 -31.5t-32.5 -75.5q0 -46 33 -79.5t77 -33.5z" />
    <glyph glyph-name="uring" unicode="&#x16f;" horiz-adv-x="1087" 
d="M115 1024h233v-676q0 -89 50.5 -136.5t129.5 -47.5q59 0 101 26.5t63 71.5t30 91t9 98v573h234v-1024h-226v82q-130 -102 -293 -102q-141 0 -236 89t-95 250v705zM545 1126q-104 0 -177 75.5t-73 180.5t73 179.5t177 74.5q103 0 177.5 -75t74.5 -179t-74.5 -180
t-177.5 -76zM539 1270q46 0 78 33t32 79q0 44 -32 75.5t-78 31.5q-45 0 -78 -31.5t-33 -75.5q0 -46 33 -79t78 -33z" />
    <glyph glyph-name="Uhungarumlaut" unicode="&#x170;" horiz-adv-x="1304" 
d="M1141 1393v-987q0 -189 -137 -307.5t-355 -118.5q-114 0 -206.5 35.5t-152.5 96.5t-92 141.5t-32 172.5v967h242v-953q0 -99 62 -157t181 -58q111 0 178.5 49.5t67.5 141.5v977h244zM758 1782h336l-213 -287h-185zM348 1782h336l-213 -287h-184z" />
    <glyph glyph-name="uhungarumlaut" unicode="&#x171;" horiz-adv-x="1087" 
d="M115 1024h233v-676q0 -89 50.5 -136.5t129.5 -47.5q59 0 101 26.5t63 71.5t30 91t9 98v573h234v-1024h-226v82q-130 -102 -293 -102q-141 0 -236 89t-95 250v705zM649 1413h336l-213 -287h-184zM240 1413h335l-213 -287h-184z" />
    <glyph glyph-name="Uogonek" unicode="&#x172;" horiz-adv-x="1304" 
d="M1141 1393v-987q0 -165 -107 -278.5t-286 -141.5q-32 -19 -51 -56.5t-19 -70.5q0 -72 55 -72q50 0 92 47l15 -174q-58 -49 -148 -49q-88 0 -144 62t-56 134q0 105 55 181q-179 28 -280 149.5t-101 288.5v967h242v-953q0 -99 62 -157t181 -58q111 0 178.5 49.5t67.5 141.5
v977h244z" />
    <glyph glyph-name="uogonek" unicode="&#x173;" horiz-adv-x="1087" 
d="M115 1024h233v-676q0 -89 50.5 -136.5t129.5 -47.5q59 0 101 26.5t63 71.5t30 91t9 98v573h234v-1024h-4q-80 -11 -126.5 -54.5t-46.5 -86.5q0 -27 16.5 -44.5t51.5 -17.5q28 0 52 15t57 51l12 -189q-23 -26 -72.5 -44.5t-101.5 -18.5q-80 0 -130 53t-50 115
q0 68 24.5 119t91.5 112v72q-130 -102 -293 -102q-141 0 -236 89t-95 250v705z" />
    <glyph glyph-name="Wcircumflex" unicode="&#x174;" horiz-adv-x="1722" 
d="M248 1393l229 -1010l211 1010h354l207 -1016l236 1016h246l-338 -1393h-295l-238 1098l-233 -1098h-293l-342 1393h256zM705 1782h315l164 -287h-205l-117 143l-117 -143h-204z" />
    <glyph glyph-name="wcircumflex" unicode="&#x175;" horiz-adv-x="1585" 
d="M0 1024h238l219 -692l219 692h225l223 -705l224 705h237l-344 -1024h-233l-217 672l-213 -672h-234zM635 1413h315l164 -287h-205l-116 144l-117 -144h-205z" />
    <glyph glyph-name="Ycircumflex" unicode="&#x176;" horiz-adv-x="1232" 
d="M494 0v680l-494 713h305l313 -441l322 441h293l-496 -713v-680h-243zM459 1782h315l164 -287h-205l-117 143l-116 -143h-205z" />
    <glyph glyph-name="ycircumflex" unicode="&#x177;" horiz-adv-x="970" 
d="M225 -172q48 0 89.5 39t41.5 92q0 28 -16 74l-340 991h246l235 -754l244 754h246l-430 -1184q-36 -98 -130 -163.5t-206 -65.5q-119 0 -205 12v217q74 -12 225 -12zM328 1413h315l164 -287h-205l-117 144l-116 -144h-205z" />
    <glyph glyph-name="Ydieresis" unicode="&#x178;" horiz-adv-x="1232" 
d="M494 0v680l-494 713h305l313 -441l322 441h293l-496 -713v-680h-243zM295 1761h233v-245h-233v245zM705 1761h233v-245h-233v245z" />
    <glyph glyph-name="Zacute" unicode="&#x179;" horiz-adv-x="1118" 
d="M86 0v221l625 940h-600v232h903v-222l-627 -940h647v-231h-948zM489 1782h377l-233 -287h-205z" />
    <glyph glyph-name="zacute" unicode="&#x17a;" horiz-adv-x="950" 
d="M61 0v184l533 656h-512v184h807v-184l-533 -656h533v-184h-828zM406 1413h376l-233 -287h-205z" />
    <glyph glyph-name="Zdotaccent" unicode="&#x17b;" horiz-adv-x="1118" 
d="M86 0v221l625 940h-600v232h903v-222l-627 -940h647v-231h-948zM442 1761h234v-245h-234v245z" />
    <glyph glyph-name="zdotaccent" unicode="&#x17c;" horiz-adv-x="950" 
d="M61 0v184l533 656h-512v184h807v-184l-533 -656h533v-184h-828zM358 1393h234v-246h-234v246z" />
    <glyph glyph-name="Zcaron" unicode="&#x17d;" horiz-adv-x="1118" 
d="M86 0v221l625 940h-600v232h903v-222l-627 -940h647v-231h-948zM401 1495l-163 287h204l117 -144l117 144h205l-164 -287h-316z" />
    <glyph glyph-name="zcaron" unicode="&#x17e;" horiz-adv-x="950" 
d="M61 0v184l533 656h-512v184h807v-184l-533 -656h533v-184h-828zM317 1126l-163 287h204l117 -143l117 143h205l-164 -287h-316z" />
    <glyph glyph-name="Schwa" unicode="&#x18f;" horiz-adv-x="1396" 
d="M358 815h-256q11 272 174.5 435t425.5 163q125 0 235 -46t196 -133.5t136 -226t50 -311.5q0 -174 -48 -311.5t-132 -225t-195.5 -133.5t-241.5 -46q-171 0 -307.5 75t-214.5 215t-78 322v123h963q-4 224 -98 339t-254 115q-137 0 -215.5 -78t-139.5 -276zM713 223
q132 0 220 77.5t118 229.5h-674q0 -143 97 -225t239 -82z" />
    <glyph glyph-name="florin" unicode="&#x192;" horiz-adv-x="1323" 
d="M539 311v291h-328v184h328v385q0 40 14 80t42.5 77.5t82 61t123.5 23.5q108 0 203 -33v-225q-54 25 -117 25q-60 0 -91.5 -26t-31.5 -73v-295h348v-184h-348v-381q0 -40 -14 -79.5t-42.5 -77t-82 -61t-123.5 -23.5q-108 0 -203 32v226q64 -25 117 -25q61 0 92 25.5
t31 72.5z" />
    <glyph glyph-name="Aringacute" unicode="&#x1fa;" horiz-adv-x="1261" 
d="M592 2400h377l-234 -286h-205zM1010 0l-150 383h-459l-149 -383h-258l532 1393h209l533 -1393h-258zM487 608h287l-143 367zM631 1495q-104 0 -177 75.5t-73 180.5t73 179.5t177 74.5q103 0 177.5 -75t74.5 -179t-74.5 -180t-177.5 -76zM625 1638q45 0 77.5 33.5
t32.5 79.5q0 44 -32 75.5t-78 31.5q-45 0 -78 -31.5t-33 -75.5q0 -46 33.5 -79.5t77.5 -33.5z" />
    <glyph glyph-name="aringacute" unicode="&#x1fb;" horiz-adv-x="1142" 
d="M487 2023h377l-233 -286h-205zM528 1126q-104 0 -176.5 75.5t-72.5 180.5t72.5 179.5t176.5 74.5q103 0 177.5 -75t74.5 -179t-74.5 -180t-177.5 -76zM522 1270q46 0 78.5 33t32.5 79q0 44 -32.5 75.5t-78.5 31.5q-45 0 -77.5 -31.5t-32.5 -75.5q0 -46 33 -79t77 -33z
M967 301q0 -88 104 -88q33 0 92 12v-225q-86 -12 -145 -12q-94 0 -145.5 23t-86.5 83q-26 -20 -43 -31.5t-60 -35t-98 -35.5t-118 -12q-169 0 -285 101t-116 238q0 168 128 248t351 80h196v49q0 83 -58 134t-151 51q-192 0 -192 -185h-250q0 161 127 254.5t322 93.5
q119 0 213.5 -34t154.5 -109.5t60 -181.5v-418zM319 295q0 -64 50 -108t131 -44q60 0 108 23.5t76 59t42.5 73t14.5 70.5v102q-129 6 -215.5 -4.5t-130 -36.5t-60 -57.5t-16.5 -77.5z" />
    <glyph glyph-name="AEacute" unicode="&#x1fc;" horiz-adv-x="1347" 
d="M586 0v281h-252l-82 -281h-258l430 1393h809v-232h-404v-284h371v-232h-371v-414h404v-231h-647zM580 1120l-181 -614h187v614h-6zM688 1782h377l-234 -287h-204z" />
    <glyph glyph-name="aeacute" unicode="&#x1fd;" horiz-adv-x="1593" 
d="M1516 348q-4 -44 -20 -91.5t-49 -98t-78.5 -89.5t-113.5 -64t-149 -25q-177 0 -297 143q-159 -143 -360 -143q-156 0 -269.5 101.5t-113.5 237.5q0 165 121.5 251.5t326.5 86.5h166v39q0 75 -52 120.5t-136 45.5q-152 0 -152 -166h-250q0 161 118.5 254.5t299.5 93.5
q101 0 183 -34t130 -101q119 135 277 135q415 0 430 -557h-641q4 -161 63 -240t154 -79q31 0 57.5 10.5t42.5 22.5t32.5 37t22.5 37t18 41t13 32h226zM1098 860q-70 0 -122.5 -50t-74.5 -151h385q-10 91 -56 146t-132 55zM319 287q0 -48 44.5 -84.5t115.5 -36.5
q50 0 90.5 21t63.5 53t35 65.5t12 63.5v123q-91 0 -157 -10.5t-105 -27t-61.5 -44t-30 -56t-7.5 -67.5zM770 1413h377l-234 -287h-204z" />
    <glyph glyph-name="Oslashacute" unicode="&#x1fe;" horiz-adv-x="1443" 
d="M104 -20v305l68 61q-70 156 -70 350q0 161 48 297t131.5 227.5t197 142t242.5 50.5q259 0 430 -180l199 180v-305l-74 -66q67 -156 67 -346q0 -161 -48.5 -296.5t-132.5 -227t-198 -142t-243 -50.5q-249 0 -422 176zM356 696q0 -87 19 -168l592 537q-96 104 -246 104
q-164 0 -264.5 -127t-100.5 -346zM721 223q164 0 265 127t101 346q0 82 -16 160l-590 -534q99 -99 240 -99zM668 1782h376l-233 -287h-205z" />
    <glyph glyph-name="oslashacute" unicode="&#x1ff;" horiz-adv-x="1146" 
d="M90 -20v223l49 43q-57 117 -57 258q0 140 57.5 262t171.5 200t262 78q200 0 336 -139l154 131v-223l-55 -49q57 -120 57 -260q0 -78 -19.5 -153.5t-60 -142.5t-97.5 -118t-138.5 -80.5t-176.5 -29.5q-204 0 -333 126zM307 512q0 -62 15 -111l419 359q-68 59 -168 59
q-121 0 -193.5 -84t-72.5 -223zM840 512q0 50 -13 100l-415 -356q70 -51 161 -51q121 0 194 81t73 226zM504 1413h377l-234 -287h-205z" />
    <glyph glyph-name="uni0218" unicode="&#x218;" horiz-adv-x="1204" 
d="M1110 952h-246q-4 45 -10.5 76.5t-24 72.5t-44 66.5t-74 43.5t-111.5 18q-119 0 -180.5 -53t-61.5 -140q0 -53 26.5 -88.5t71.5 -53.5t103.5 -29t123 -20t128.5 -22t122.5 -40.5t103.5 -69t71.5 -114t26.5 -169.5q0 -209 -147.5 -329.5t-387.5 -120.5q-114 0 -208 27
t-156.5 73.5t-103 108t-54.5 129.5t-4 139h258q3 -47 7 -77t14 -68t28.5 -61.5t47.5 -45t74 -31.5t105 -10q140 0 205.5 58t65.5 147q0 51 -22 87.5t-59 56t-87 35t-106 23t-115.5 21t-115.5 28.5t-106 46t-87 72.5t-59 109.5t-22 156q0 177 136.5 293t357.5 116
q139 0 243 -34.5t165.5 -97t88.5 -145.5t19 -184zM449 -123h307v-242q0 -133 -74.5 -191t-235.5 -58v143q69 0 107.5 28.5t38.5 73.5h-143v246z" />
    <glyph glyph-name="uni0219" unicode="&#x219;" horiz-adv-x="983" 
d="M672 729q3 68 -50 104.5t-147 36.5q-83 0 -121.5 -30.5t-38.5 -75.5q0 -34 33.5 -57t87 -36.5t118 -27t129.5 -35.5t118.5 -54.5t87 -91.5t33.5 -140q0 -152 -109 -247t-313 -95q-105 0 -186 25t-127.5 62t-76 86t-39.5 91t-10 84h234q33 -164 223 -164q86 0 132 32.5
t46 96.5q0 41 -33.5 67.5t-87 41t-118 27t-129 32.5t-118 50t-87 86.5t-33.5 135.5q0 63 22 116.5t68 98.5t127 70.5t189 25.5q92 0 166 -23t118 -58t73.5 -79.5t40.5 -82.5t11 -72h-233zM338 -123h307v-242q0 -133 -74 -191t-235 -58v143q69 0 107 28t38 74h-143v246z" />
    <glyph glyph-name="uni021A" unicode="&#x21a;" horiz-adv-x="1110" 
d="M432 0v1147h-364v246h974v-246h-364v-1147h-246zM401 -123h308v-242q0 -133 -74.5 -191t-235.5 -58v143q69 0 107.5 28.5t38.5 73.5h-144v246z" />
    <glyph glyph-name="uni021B" unicode="&#x21b;" horiz-adv-x="608" 
d="M164 1393h225v-369h143v-225h-143v-529q0 -77 82 -77q48 0 76 16v-205q-72 -24 -162 -24q-110 0 -165.5 55.5t-55.5 136.5v627h-123v225h123v369zM152 -123h307v-242q0 -133 -74 -191t-235 -58v143q69 0 107 28t38 74h-143v246z" />
    <glyph glyph-name="dotlessj" unicode="&#x237;" horiz-adv-x="471" 
d="M348 1024v-1192q0 -39 -13 -76.5t-38.5 -70.5t-69.5 -53.5t-100 -20.5q-90 0 -162 24v205q28 -16 76 -16q82 0 82 78v1122h225z" />
    <glyph glyph-name="circumflex" unicode="&#x2c6;" 
d="M354 1782h316l164 -287h-205l-117 143l-117 -143h-205z" />
    <glyph glyph-name="caron" unicode="&#x2c7;" 
d="M354 1495l-164 287h205l117 -144l117 144h205l-164 -287h-316z" />
    <glyph glyph-name="breve" unicode="&#x2d8;" 
d="M510 1495q-290 0 -320 287h205q0 -129 117 -129q56 0 86.5 29t30.5 100h205q-33 -287 -324 -287z" />
    <glyph glyph-name="dotaccent" unicode="&#x2d9;" 
d="M395 1761h234v-245h-234v245z" />
    <glyph glyph-name="ring" unicode="&#x2da;" 
d="M512 1495q-104 0 -177 75.5t-73 180.5t73 179.5t177 74.5q103 0 177.5 -75t74.5 -179t-74.5 -180t-177.5 -76zM506 1638q45 0 77.5 33.5t32.5 79.5q0 44 -32 75.5t-78 31.5q-45 0 -78 -31.5t-33 -75.5q0 -46 33.5 -79.5t77.5 -33.5z" />
    <glyph glyph-name="ogonek" unicode="&#x2db;" 
d="M506 115l108 -47v-68q-50 -7 -79 -52t-29 -89q0 -72 55 -72q50 0 92 47l15 -174q-58 -49 -148 -49q-88 0 -144.5 62t-56.5 134q0 88 41.5 159.5t145.5 148.5z" />
    <glyph glyph-name="tilde" unicode="&#x2dc;" 
d="M152 1520q-14 120 44 191t175 71q53 0 106.5 -26t97 -51.5t72.5 -25.5q45 0 64.5 32t9.5 77l168 -21q5 -73 -10.5 -127.5t-47 -85t-70 -45t-83.5 -14.5q-48 0 -106.5 24.5t-107.5 49t-75 24.5q-31 0 -47 -18t-10 -55h-180z" />
    <glyph glyph-name="hungarumlaut" unicode="&#x2dd;" 
d="M616 1782h336l-213 -287h-184zM207 1782h336l-213 -287h-185z" />
    <glyph glyph-name="pi" unicode="&#x3c0;" horiz-adv-x="1155" 
d="M485 0h-184v840h-199v184h951v-184h-199v-566q0 -48 18 -69t68 -21h113v-184h-199q-90 0 -137 42t-47 142v656h-185v-840z" />
    <glyph glyph-name="Wgrave" unicode="&#x1e80;" horiz-adv-x="1722" 
d="M248 1393l229 -1010l211 1010h354l207 -1016l236 1016h246l-338 -1393h-295l-238 1098l-233 -1098h-293l-342 1393h256zM965 1782l61 -287h-205l-233 287h377z" />
    <glyph glyph-name="wgrave" unicode="&#x1e81;" horiz-adv-x="1585" 
d="M0 1024h238l219 -692l219 692h225l223 -705l224 705h237l-344 -1024h-233l-217 672l-213 -672h-234zM895 1413l61 -287h-204l-234 287h377z" />
    <glyph glyph-name="Wacute" unicode="&#x1e82;" horiz-adv-x="1722" 
d="M248 1393l229 -1010l211 1010h354l207 -1016l236 1016h246l-338 -1393h-295l-238 1098l-233 -1098h-293l-342 1393h256zM793 1782h376l-233 -287h-205z" />
    <glyph glyph-name="wacute" unicode="&#x1e83;" horiz-adv-x="1585" 
d="M0 1024h238l219 -692l219 692h225l223 -705l224 705h237l-344 -1024h-233l-217 672l-213 -672h-234zM723 1413h377l-234 -287h-204z" />
    <glyph glyph-name="Wdieresis" unicode="&#x1e84;" horiz-adv-x="1722" 
d="M248 1393l229 -1010l211 1010h354l207 -1016l236 1016h246l-338 -1393h-295l-238 1098l-233 -1098h-293l-342 1393h256zM541 1761h233v-245h-233v245zM950 1761h234v-245h-234v245z" />
    <glyph glyph-name="wdieresis" unicode="&#x1e85;" horiz-adv-x="1585" 
d="M0 1024h238l219 -692l219 692h225l223 -705l224 705h237l-344 -1024h-233l-217 672l-213 -672h-234zM471 1393h234v-246h-234v246zM881 1393h233v-246h-233v246z" />
    <glyph glyph-name="Ygrave" unicode="&#x1ef2;" horiz-adv-x="1232" 
d="M494 0v680l-494 713h305l313 -441l322 441h293l-496 -713v-680h-243zM719 1782l61 -287h-205l-233 287h377z" />
    <glyph glyph-name="ygrave" unicode="&#x1ef3;" horiz-adv-x="970" 
d="M225 -172q48 0 89.5 39t41.5 92q0 28 -16 74l-340 991h246l235 -754l244 754h246l-430 -1184q-36 -98 -130 -163.5t-206 -65.5q-119 0 -205 12v217q74 -12 225 -12zM588 1413l61 -287h-205l-233 287h377z" />
    <glyph glyph-name="thinspace" unicode="&#x2009;" horiz-adv-x="245" 
 />
    <glyph glyph-name="endash" unicode="&#x2013;" horiz-adv-x="1114" 
d="M45 420v184h1024v-184h-1024z" />
    <glyph glyph-name="emdash" unicode="&#x2014;" horiz-adv-x="2138" 
d="M45 420v184h2048v-184h-2048z" />
    <glyph glyph-name="quoteleft" unicode="&#x2018;" horiz-adv-x="471" 
d="M375 819h-287v283q0 155 69.5 223t219.5 68v-144q-69 0 -107.5 -40t-38.5 -103h144v-287z" />
    <glyph glyph-name="quoteright" unicode="&#x2019;" horiz-adv-x="471" 
d="M96 1393h287v-283q0 -155 -69.5 -223t-219.5 -68v144q69 0 107.5 40t38.5 103h-144v287z" />
    <glyph glyph-name="quotesinglbase" unicode="&#x201a;" horiz-adv-x="471" 
d="M96 369h287v-283q0 -155 -69.5 -223t-219.5 -68v144q69 0 107.5 40t38.5 103h-144v287z" />
    <glyph glyph-name="quotedblleft" unicode="&#x201c;" horiz-adv-x="880" 
d="M784 819h-286v283q0 155 69 223t219 68v-144q-69 0 -107 -40t-38 -103h143v-287zM375 819h-287v283q0 155 69.5 223t219.5 68v-144q-69 0 -107.5 -40t-38.5 -103h144v-287z" />
    <glyph glyph-name="quotedblright" unicode="&#x201d;" horiz-adv-x="880" 
d="M96 1393h287v-283q0 -155 -69.5 -223t-219.5 -68v144q69 0 107.5 40t38.5 103h-144v287zM506 1393h287v-283q0 -155 -69.5 -223t-219.5 -68v144q69 0 107 40t38 103h-143v287z" />
    <glyph glyph-name="quotedblbase" unicode="&#x201e;" horiz-adv-x="880" 
d="M96 369h287v-283q0 -155 -69.5 -223t-219.5 -68v144q69 0 107.5 40t38.5 103h-144v287zM506 369h287v-283q0 -155 -69.5 -223t-219.5 -68v144q69 0 107 40t38 103h-143v287z" />
    <glyph glyph-name="dagger" unicode="&#x2020;" horiz-adv-x="765" 
d="M270 0v803h-229v221h229v369h226v-369h229v-221h-229v-803h-226z" />
    <glyph glyph-name="daggerdbl" unicode="&#x2021;" horiz-adv-x="765" 
d="M270 0v369h-229v221h229v213h-229v221h229v369h226v-369h229v-221h-229v-213h229v-221h-229v-369h-226z" />
    <glyph glyph-name="bullet" unicode="&#x2022;" horiz-adv-x="733" 
d="M113 360v508h508v-508h-508z" />
    <glyph glyph-name="ellipsis" unicode="&#x2026;" horiz-adv-x="1802" 
d="M92 287h287v-287h-287v287zM758 287h286v-287h-286v287zM1423 287h287v-287h-287v287z" />
    <glyph glyph-name="perthousand" unicode="&#x2030;" horiz-adv-x="2613" 
d="M408 573q-153 0 -256 113t-103 307q0 195 102.5 307.5t256.5 112.5q155 0 258.5 -112.5t103.5 -307.5q0 -194 -104 -307t-258 -113zM389 0l832 1393h204l-831 -1393h-205zM408 756q89 0 132.5 66.5t43.5 170.5q0 105 -43.5 171.5t-132.5 66.5t-132 -66.5t-43 -171.5
t43 -171t132 -66zM1403 -20q-153 0 -256 112.5t-103 306.5q0 195 102.5 307.5t256.5 112.5q155 0 258.5 -112.5t103.5 -307.5q0 -194 -104 -306.5t-258 -112.5zM2202 -20q-153 0 -256 112.5t-103 306.5q0 195 102.5 307.5t256.5 112.5q155 0 258.5 -112.5t103.5 -307.5
q0 -194 -104 -306.5t-258 -112.5zM1403 162q89 0 132.5 66.5t43.5 170.5q0 105 -43.5 171.5t-132.5 66.5q-88 0 -131 -66.5t-43 -171.5t42.5 -171t131.5 -66zM2202 162q89 0 132.5 66.5t43.5 170.5q0 105 -43.5 171.5t-132.5 66.5q-88 0 -131 -66.5t-43 -171.5t42.5 -171
t131.5 -66z" />
    <glyph glyph-name="guilsinglleft" unicode="&#x2039;" 
d="M819 997v-241l-454 -244l454 -244v-241l-700 381v208z" />
    <glyph glyph-name="guilsinglright" unicode="&#x203a;" 
d="M205 997l700 -381v-208l-700 -381v241l454 244l-454 244v241z" />
    <glyph glyph-name="fraction" unicode="&#x2044;" horiz-adv-x="1814" 
d="M389 0l832 1393h204l-831 -1393h-205z" />
    <glyph glyph-name="zerosuperior" unicode="&#x2070;" horiz-adv-x="860" 
d="M428 573q-152 0 -255 113t-103 307q0 195 102 307.5t256 112.5q155 0 259 -113t104 -307t-104.5 -307t-258.5 -113zM428 756q89 0 132.5 66.5t43.5 170.5q0 105 -43.5 171.5t-132.5 66.5q-88 0 -131 -66.5t-43 -171.5t42.5 -171t131.5 -66z" />
    <glyph glyph-name="foursuperior" unicode="&#x2074;" horiz-adv-x="860" 
d="M453 594v170h-396v149l396 480h174v-480h139v-149h-139v-170h-174zM221 913h232v267z" />
    <glyph glyph-name="fivesuperior" unicode="&#x2075;" horiz-adv-x="860" 
d="M289 934h-162q25 146 34.5 234t12.5 225h537v-179h-383l-11 -110q63 37 154 37q122 0 196 -76.5t74 -198.5q0 -132 -90 -212.5t-235 -80.5q-129 0 -217 78t-72 205h164q-3 -119 133 -119q66 0 100.5 33t34.5 96t-35 99t-102 36q-98 0 -133 -67z" />
    <glyph glyph-name="sixsuperior" unicode="&#x2076;" horiz-adv-x="860" 
d="M758 868q0 -122 -87 -208.5t-227 -86.5q-157 0 -248.5 110t-91.5 296q0 192 103 313t268 121q127 0 201 -72t74 -159h-179q-4 13 -14 26t-38.5 27t-67.5 14q-157 0 -175 -178q76 76 199 76q124 0 203.5 -80.5t79.5 -198.5zM436 979q-63 0 -100 -33.5t-37 -93.5t37 -94.5
t100 -34.5q61 0 99 35t38 94t-38 93t-99 34z" />
    <glyph glyph-name="sevensuperior" unicode="&#x2077;" horiz-adv-x="860" 
d="M102 1393h660v-103q-56 -44 -98 -85t-85.5 -102t-70.5 -130t-44.5 -166.5t-17.5 -212.5h-225q0 115 51 241t117 217.5t141 164.5h-428v176z" />
    <glyph glyph-name="eightsuperior" unicode="&#x2078;" horiz-adv-x="860" 
d="M424 573q-138 0 -229 66t-91 180q0 133 123 199q-96 60 -96 166q0 103 78.5 166t214.5 63t214.5 -63t78.5 -166q0 -105 -94 -166q120 -65 120 -199q0 -115 -88.5 -180.5t-230.5 -65.5zM424 1087q108 0 108 80t-108 80q-52 0 -81.5 -20.5t-29.5 -59.5t29.5 -59.5
t81.5 -20.5zM424 723q62 0 98.5 29.5t36.5 78.5q0 48 -37 78.5t-98 30.5q-60 0 -97.5 -30.5t-37.5 -78.5q0 -49 37.5 -78.5t97.5 -29.5z" />
    <glyph glyph-name="ninesuperior" unicode="&#x2079;" horiz-adv-x="860" 
d="M102 1116q0 131 88.5 214t229.5 83q154 0 245 -105t91 -302q0 -204 -101 -318.5t-270 -114.5q-131 0 -204 68t-70 164h178q7 -25 32.5 -47.5t75.5 -22.5q85 0 129 44t56 145q-66 -80 -201 -80q-129 0 -204 72.5t-75 199.5zM428 987q65 0 101 35t36 92q0 60 -36 95.5
t-101 35.5q-66 0 -102.5 -35.5t-36.5 -95.5q0 -57 36.5 -92t102.5 -35z" />
    <glyph glyph-name="Euro" unicode="&#x20ac;" horiz-adv-x="1323" 
d="M37 455l49 184h123v104h-137l49 185h108q46 235 181.5 360t322.5 125q222 0 353.5 -145.5t154.5 -425.5h-274q-19 327 -236 327q-89 0 -151.5 -60.5t-92.5 -180.5h359l-49 -185h-334v-47q0 -39 2 -57h293l-49 -184h-220q58 -232 234 -232q101 0 165.5 77t96.5 237h256
q-28 -256 -172 -406.5t-356 -150.5q-188 0 -315 119t-169 356h-192z" />
    <glyph glyph-name="numero" unicode="&#x2116;" horiz-adv-x="2240" 
d="M176 0v1393h266l500 -908v908h236v-1393h-267l-499 907v-907h-236zM1341 995q0 112 48 206.5t142.5 154t217.5 59.5q124 0 219 -59.5t143 -154t48 -206.5q0 -79 -26.5 -153.5t-76 -135t-129.5 -97t-178 -36.5t-177.5 36.5t-128.5 97t-75.5 135t-26.5 153.5zM1970 993
q0 110 -60 176t-161 66q-100 0 -159.5 -66t-59.5 -176q0 -116 59 -177.5t160 -61.5t161 61.5t60 177.5z" />
    <glyph glyph-name="uni2117" unicode="&#x2117;" horiz-adv-x="1679" 
d="M840 -20q-146 0 -277.5 54t-228.5 147.5t-154 227.5t-57 287q0 202 97 367t261 257.5t359 92.5q146 0 277.5 -54.5t228 -149t153.5 -228.5t57 -285q0 -153 -57 -287t-153.5 -227.5t-228 -147.5t-277.5 -54zM840 152q109 0 207 41.5t169.5 113t113.5 173t42 216.5
q0 153 -71 278.5t-193 196t-268 70.5q-108 0 -206 -41.5t-170 -113t-114.5 -173.5t-42.5 -217q0 -153 72.5 -278.5t194.5 -195.5t266 -70zM578 287v819h342q118 0 191 -70.5t73 -179.5t-73 -179.5t-191 -70.5h-158v-217q0 -72 12 -102h-196zM901 942h-139v-172h139
q45 0 67.5 23.5t22.5 62.5q0 38 -24 62t-66 24z" />
    <glyph glyph-name="trademark" unicode="&#x2122;" horiz-adv-x="1562" 
d="M227 594v614h-186v185h879l120 -392l127 392h273v-799h-164v571l-182 -571h-115l-182 592v-592h-176v614h-209v-614h-185z" />
    <glyph glyph-name="estimated" unicode="&#x212e;" horiz-adv-x="1458" 
d="M1356 526h-1016q-8 0 -8 -6v-307q0 -23 14 -37q76 -76 175.5 -120t209.5 -44q120 0 224.5 49t179.5 136h90q-87 -101 -217 -160.5t-279 -59.5q-170 0 -314.5 75.5t-228.5 205.5t-84 283q0 154 84 284.5t228.5 206.5t314.5 76t314.5 -76t228.5 -206.5t84 -284.5v-15z
M1126 565v309q0 23 -16 39q-74 75 -171.5 117.5t-207.5 42.5q-217 0 -383 -166q-16 -16 -16 -39v-303q0 -8 8 -8h780q6 0 6 8z" />
    <glyph glyph-name="arrowleft" unicode="&#x2190;" horiz-adv-x="1021" 
d="M940 1393l-469 -697l469 -696h-184l-715 696l715 697h184z" />
    <glyph glyph-name="arrowup" unicode="&#x2191;" horiz-adv-x="1474" 
d="M1434 248l-697 469l-696 -469v184l696 715l697 -715v-184z" />
    <glyph glyph-name="arrowright" unicode="&#x2192;" horiz-adv-x="1021" 
d="M82 1393h184l715 -697l-715 -696h-184l469 696z" />
    <glyph glyph-name="arrowdown" unicode="&#x2193;" horiz-adv-x="1474" 
d="M1434 1147v-184l-697 -715l-696 715v184l696 -469z" />
    <glyph glyph-name="partialdiff" unicode="&#x2202;" horiz-adv-x="1155" 
d="M979 614q0 -163 -39 -288t-107 -199t-152 -110.5t-181 -36.5q-173 0 -285.5 123t-112.5 315q0 236 125.5 380t321.5 144q134 0 211 -57q-20 77 -51 147t-69.5 125t-73 97.5t-78 80.5t-67 57t-56.5 42h225q90 -79 132 -124q257 -281 257 -696zM287 430q0 -124 62.5 -195
t162.5 -71q142 0 212.5 120t70.5 330q0 47 -2 70q-87 74 -228 74q-134 0 -206 -86.5t-72 -241.5z" />
    <glyph glyph-name="product" unicode="&#x220f;" horiz-adv-x="1155" 
d="M440 1208v-1208h-184v1208h-195v185h1033v-185h-195v-1208h-184v1208h-275z" />
    <glyph glyph-name="summation" unicode="&#x2211;" horiz-adv-x="1155" 
d="M61 -176l517 688l-517 688v193h1033v-185h-799l524 -696l-524 -696h799v-185h-1033v193z" />
    <glyph glyph-name="minus" unicode="&#x2212;" horiz-adv-x="1409" 
d="M143 578v204h1123v-204h-1123z" />
    <glyph glyph-name="radical" unicode="&#x221a;" horiz-adv-x="1069" 
d="M205 1024l297 -788l362 1157h205l-455 -1393h-225l-389 1024h205z" />
    <glyph glyph-name="infinity" unicode="&#x221e;" horiz-adv-x="1433" 
d="M389 283q-130 0 -218.5 95.5t-88.5 235.5t88 237t219 97q112 0 190 -48.5t144 -133.5q68 86 143.5 134t180.5 48q131 0 219 -97t88 -237t-88 -235.5t-219 -95.5q-105 0 -180.5 48t-143.5 134q-66 -85 -144 -133.5t-190 -48.5zM410 467q59 0 107 38.5t99 110.5
q-52 72 -99.5 110t-106.5 38q-56 0 -100 -39.5t-44 -110.5t44 -109t100 -38zM1026 467q56 0 99.5 38t43.5 109t-44 110.5t-99 39.5q-59 0 -105 -38t-96 -110q49 -73 95.5 -111t105.5 -38z" />
    <glyph glyph-name="integral" unicode="&#x222b;" horiz-adv-x="614" 
d="M573 1208h-174v-1577h-358v185h174v1577h358v-185z" />
    <glyph glyph-name="approxequal" unicode="&#x2248;" horiz-adv-x="1409" 
d="M145 717q-26 143 53.5 233t233.5 90q74 0 151 -16.5t129 -36.5t114 -36.5t110 -16.5q73 0 101.5 31.5t6.5 87.5h246q35 -161 -44.5 -242.5t-241.5 -81.5q-74 0 -154 16.5t-135.5 37t-120.5 37t-113 16.5q-68 0 -85.5 -30t-4.5 -89h-246zM145 307q-26 143 54 233.5
t233 90.5q74 0 151 -16.5t129 -37t114 -37t110 -16.5q73 0 101.5 31.5t6.5 87.5h246q35 -161 -44.5 -242.5t-241.5 -81.5q-74 0 -154 16.5t-135.5 37t-120.5 37t-113 16.5q-68 0 -85.5 -30t-4.5 -89h-246z" />
    <glyph glyph-name="notequal" unicode="&#x2260;" horiz-adv-x="1409" 
d="M254 -182l174 473h-285v244h373l107 288h-480v244h570l174 477h194l-174 -477h359v-244h-449l-106 -288h555v-244h-643l-174 -473h-195z" />
    <glyph glyph-name="lessequal" unicode="&#x2264;" horiz-adv-x="1409" 
d="M143 117v184h840l-864 295v250l1147 391v-225l-914 -291l914 -291v-313h-1123z" />
    <glyph glyph-name="greaterequal" unicode="&#x2265;" horiz-adv-x="1409" 
d="M143 1237l1147 -391v-250l-864 -295h840v-184h-1123v313l914 291l-914 291v225z" />
    <glyph glyph-name="lozenge" unicode="&#x25ca;" horiz-adv-x="962" 
d="M532 0h-102l-389 717l389 717h102l390 -717zM246 717l235 -459l236 459l-236 459z" />
    <glyph glyph-name="uni27F7" unicode="&#x27f7;" horiz-adv-x="2209" 
d="M940 1393l-469 -697l469 -696h-184l-715 696l715 697h184zM1270 1393h184l715 -697l-715 -696h-184l469 696z" />
    <glyph glyph-name="commaaccent" unicode="&#xf6c3;" 
d="M358 -123h308v-242q0 -133 -74.5 -191t-235.5 -58v143q69 0 107.5 28.5t38.5 73.5h-144v246z" />
    <glyph glyph-name="fi.cap" horiz-adv-x="1601" 
d="M176 0v1393h830v-232h-586v-284h530v-232h-530v-526q0 -84 12 -119h-256zM1182 0v1393h243v-1393h-243z" />
    <glyph glyph-name="fl.cap" horiz-adv-x="2078" 
d="M176 0v1393h830v-232h-586v-284h530v-232h-530v-526q0 -84 12 -119h-256zM1182 0v1393h243v-1162h553v-231h-796z" />
    <glyph glyph-name="germandbls.cap" horiz-adv-x="2408" 
d="M1110 952h-246q-4 45 -10.5 76.5t-24 72.5t-44 66.5t-74 43.5t-111.5 18q-119 0 -180.5 -53t-61.5 -140q0 -53 26.5 -88.5t71.5 -53.5t103.5 -29t123 -20t128.5 -22t122.5 -40.5t103.5 -69t71.5 -114t26.5 -169.5q0 -209 -147.5 -329.5t-387.5 -120.5q-114 0 -208 27
t-156.5 73.5t-103 108t-54.5 129.5t-4 139h258q3 -47 7 -77t14 -68t28.5 -61.5t47.5 -45t74 -31.5t105 -10q140 0 205.5 58t65.5 147q0 51 -22 87.5t-59 56t-87 35t-106 23t-115.5 21t-115.5 28.5t-106 46t-87 72.5t-59 109.5t-22 156q0 177 136.5 293t357.5 116
q139 0 243 -34.5t165.5 -97t88.5 -145.5t19 -184zM2314 952h-246q-4 45 -10.5 76.5t-24 72.5t-44 66.5t-74 43.5t-111.5 18q-119 0 -180 -53t-61 -140q0 -53 26.5 -88.5t71.5 -53.5t103 -29t122.5 -20t129 -22t122.5 -40.5t103 -69t71.5 -114t26.5 -169.5
q0 -209 -147.5 -329.5t-387.5 -120.5q-114 0 -208 27t-156.5 73.5t-103 108t-54.5 129.5t-4 139h258q3 -47 7 -77t14 -68t28.5 -61.5t47.5 -45t74 -31.5t105 -10q140 0 205.5 58t65.5 147q0 56 -26.5 94.5t-71.5 58.5t-103.5 33.5t-123 24.5t-129 25.5t-123 43t-103.5 70.5
t-71.5 115t-26.5 170q0 177 136 293t357 116q139 0 243 -34.5t165.5 -97t88.5 -145.5t19 -184z" />
    <glyph glyph-name="A.two" horiz-adv-x="1261" 
d="M1001 20l-157 420l-451 -16l-125 -428l-274 -10l442 1409l289 10l543 -1374zM594 1104l-127 -434l287 10z" />
    <glyph glyph-name="B.two" horiz-adv-x="1101" 
d="M176 0v1393h373q121 0 210.5 -28.5t142 -80t77.5 -115.5t25 -141q0 -90 -47 -167t-148 -124q225 -98 225 -329q0 -186 -120.5 -297t-354.5 -111h-383zM551 1161h-131v-338h125q112 0 162.5 40.5t50.5 131.5q0 166 -207 166zM545 592h-125v-361h172q95 0 147 45.5
t52 131.5q0 91 -64.5 137.5t-181.5 46.5z" />
    <glyph glyph-name="C.two" horiz-adv-x="1353" 
d="M1051 473l237 -45q-1 -104 -43.5 -189t-115.5 -141.5t-171.5 -87t-212.5 -30.5q-136 0 -256.5 49t-211 139t-143 226.5t-52.5 301.5q0 166 50.5 302.5t139 226.5t208.5 139t259 49q237 0 385.5 -110.5t167.5 -301.5l-245 -63q-10 106 -92.5 168.5t-206.5 62.5
q-195 0 -303.5 -125t-108.5 -348t109 -348t303 -125q44 0 84.5 7t80.5 25t69 45.5t48 72t21 100.5z" />
    <glyph glyph-name="D.two" horiz-adv-x="1386" 
d="M176 0v1393h416q315 0 504.5 -188t189.5 -509q0 -320 -190 -508t-504 -188h-416zM578 231q220 0 337 117.5t117 347.5t-117 347.5t-337 117.5h-158v-930h158z" />
    <glyph glyph-name="E.two" horiz-adv-x="1245" 
d="M176 0v1393h954v-232h-710v-325h524v-232h-524v-373h710v-231h-954z" />
    <glyph glyph-name="F.two" horiz-adv-x="1083" 
d="M176 0v1393h840v-232h-596v-315h592v-232h-592v-614h-244z" />
    <glyph glyph-name="G.two" horiz-adv-x="1529" 
d="M727 444v234h666v-678h-232v133q-147 -153 -395 -153q-136 0 -256.5 49t-211 139t-143.5 226.5t-53 301.5q0 166 51 302.5t140.5 226.5t209.5 139t259 49q265 0 425 -144.5t183 -404.5h-264q-12 143 -103.5 224t-244.5 81q-182 0 -292 -126.5t-110 -346.5t119.5 -346.5
t317.5 -126.5q135 0 227 60t125 161h-418z" />
    <glyph glyph-name="H.two" horiz-adv-x="1384" 
d="M154 16l45 1393l243 -8l-18 -553l545 -17l18 551l244 -6l-45 -1392l-244 8l19 598l-545 16l-19 -596z" />
    <glyph glyph-name="I.two" horiz-adv-x="917" 
d="M72 0v199h268v995h-268v199h774v-199h-262v-995h262v-199h-774z" />
    <glyph glyph-name="J.two" horiz-adv-x="665" 
d="M535 1362l-43 -1053q-7 -186 -85.5 -270t-228.5 -78q-98 6 -196 29l10 223q110 -20 135 -20q68 -1 93.5 22t27.5 74l47 1083z" />
    <glyph glyph-name="K.two" horiz-adv-x="1236" 
d="M176 0v1393h244v-506l446 506h293l-569 -623l565 -770h-283l-452 600v-600h-244z" />
    <glyph glyph-name="L.two" horiz-adv-x="1021" 
d="M131 27l78 1390l244 -12l-66 -1159l553 -31l-12 -231l-596 32z" />
    <glyph glyph-name="M.two" horiz-adv-x="1660" 
d="M176 0v1393h307l293 -1051l322 1051h387v-1393h-254v864l-279 -864h-280l-283 956v-956h-213z" />
    <glyph glyph-name="N.two" horiz-adv-x="1394" 
d="M176 0v1393h316l483 -785v785h244v-1178l2 -4l-2 -211h-140l-659 1049v-1049h-244z" />
    <glyph glyph-name="O.two" horiz-adv-x="1443" 
d="M610 -12q-127 20 -231 87.5t-172.5 171t-95 245t-0.5 301.5q33 212 139.5 361.5t258 213.5t322.5 37q129 -20 234 -88t173.5 -171.5t95.5 -245t1 -300.5q-33 -213 -141 -362.5t-260 -213t-324 -36.5zM647 229q162 -25 281.5 84t154.5 326q33 216 -47 357.5t-241 166.5
q-162 27 -281 -82.5t-154 -326.5q-33 -218 46.5 -359t240.5 -166z" />
    <glyph glyph-name="P.two" horiz-adv-x="1140" 
d="M176 0v1393h467q223 0 335 -106.5t112 -301.5t-112.5 -302.5t-332.5 -107.5h-225v-575h-244zM643 1161h-223v-354h217q199 0 199 178q0 84 -51 130t-142 46z" />
    <glyph glyph-name="R.two" horiz-adv-x="1175" 
d="M160 -6l-47 1392l211 7l264 10q222 7 337.5 -93t121.5 -290q6 -186 -84 -289.5t-304 -120.5l631 -577l-321 -13l-586 558l18 -574zM596 1151l-231 -8l10 -330l225 6q102 4 149 47.5t44 124.5q-3 79 -54.5 121t-142.5 39z" />
    <glyph glyph-name="Q.two" horiz-adv-x="1443" 
d="M721 -20q-129 0 -242 50.5t-196.5 142t-132 227t-48.5 296.5t48 297t131.5 227.5t197 142t242.5 50.5q130 0 244 -50.5t197.5 -142t132 -227.5t48.5 -297q0 -314 -169 -510l210 -473h-284l-135 318q-108 -51 -244 -51zM721 223q164 0 265 127t101 346t-101 346t-265 127
t-264.5 -127t-100.5 -346t100.5 -346t264.5 -127z" />
    <glyph glyph-name="S.two" horiz-adv-x="1206" 
d="M106 473h259q12 -299 272 -299q106 0 163.5 49t57.5 133q0 53 -26.5 90t-71.5 57t-103 33.5t-122.5 24.5t-129 25.5t-122.5 42t-103 67.5t-71.5 108t-26.5 159q0 209 147 329.5t387 120.5q114 0 208.5 -29.5t157 -79t103 -113.5t54.5 -134.5t4 -141.5h-258
q-2 65 -15.5 114.5t-44 90.5t-85.5 62.5t-132 21.5q-126 0 -198 -50t-72 -134q0 -56 26.5 -95t71.5 -61t103.5 -37t123 -28t129 -28.5t123 -44t103.5 -69t71.5 -109t26.5 -159.5q0 -177 -136 -293t-357 -116q-138 0 -243 39.5t-166 108.5t-88.5 156.5t-19.5 188.5z" />
    <glyph glyph-name="T.two" horiz-adv-x="1302" 
d="M530 0v1161h-469v232h1180v-232h-469v-1161h-242z" />
    <glyph glyph-name="U.two" horiz-adv-x="1284" 
d="M1130 1393v-1008q0 -190 -129.5 -297.5t-361.5 -107.5q-239 0 -361 117t-122 309v987h241v-985q0 -95 60 -140t184 -45q118 0 182 35.5t64 124.5v1010h243z" />
    <glyph glyph-name="V.two" horiz-adv-x="1296" 
d="M342 1393l309 -1057l316 1057h274l-436 -1393h-311l-439 1393h287z" />
    <glyph glyph-name="W.two" horiz-adv-x="1722" 
d="M289 1393l215 -944l225 944h272l222 -949l221 949h246l-338 -1393h-254l-238 965l-233 -965h-252l-342 1393h256z" />
    <glyph glyph-name="X.two" horiz-adv-x="1239" 
d="M68 1393h276l270 -447l263 447h272l-406 -656l449 -737h-277l-313 516l-283 -516h-272l426 727z" />
    <glyph glyph-name="Y.two" horiz-adv-x="1232" 
d="M494 0v678l-494 715h305l313 -473l322 473h293l-496 -715v-678h-243z" />
    <glyph glyph-name="Z.two" horiz-adv-x="1118" 
d="M86 0v221l625 940h-600v232h903v-222l-627 -940h647v-231h-948z" />
    <glyph glyph-name="AE.two" horiz-adv-x="1347" 
d="M623 -8l-5 278l-251 -4l-78 -280l-258 -6l405 1400l162 4l113 2h12l520 9l6 -232l-403 -6l4 -285l371 7l4 -232l-371 -6l8 -414l404 6l4 -229zM596 1110l-168 -616l186 2l-12 614h-6z" />
    <glyph glyph-name="OE.two" horiz-adv-x="1779" 
d="M102 696q0 320 190.5 508.5t504.5 188.5h870v-232h-547v-305h463v-231h-463v-394h547v-231h-870q-315 0 -505 187.5t-190 508.5zM811 1151q-216 0 -330 -115t-114 -340t114 -339.5t330 -114.5h55v909h-55z" />
    <glyph glyph-name="Lslash.two" horiz-adv-x="1021" 
d="M131 27l33 577l-156 -47v223l168 51l33 586l244 -12l-29 -498l240 72v-223l-252 -76l-25 -434l553 -31l-12 -231l-596 32z" />
    <glyph glyph-name="Oslash.two" horiz-adv-x="1443" 
d="M104 -20v305l56 49q-91 203 -49 459q33 212 139.5 361.5t258 213.5t322.5 37q193 -30 330 -164l189 172v-305l-62 -55q87 -200 47 -453q-33 -213 -141 -362.5t-260 -213t-324 -36.5q-189 30 -321 159zM360 754q-20 -126 2 -236l615 557q-76 73 -182 88
q-162 27 -281 -82.5t-154 -326.5zM647 229q162 -25 281.5 84t154.5 326q18 125 0 227l-612 -555q74 -67 176 -82z" />
    <glyph glyph-name="Eth.two" horiz-adv-x="1386" 
d="M176 0v588h-176v223h176v582h416q315 0 504.5 -188t189.5 -509q0 -320 -190 -508t-504 -188h-416zM578 231q220 0 337 117.5t117 347.5t-117 347.5t-337 117.5h-158v-350h246v-223h-246v-357h158z" />
    <glyph glyph-name="Thorn.two" horiz-adv-x="1212" 
d="M176 0v1393h244v-256h295q223 0 334.5 -106.5t111.5 -301.5t-112 -302.5t-332 -107.5h-297v-319h-244zM715 905h-295v-354h289q198 0 198 178q0 84 -50.5 130t-141.5 46z" />
    <glyph glyph-name="Aacute.two" horiz-adv-x="1261" 
d="M1001 20l-157 420l-451 -16l-125 -428l-274 -10l442 1409l289 10l543 -1374zM594 1104l-127 -434l287 10zM561 1782h377l-233 -287h-205z" />
    <glyph glyph-name="Acircumflex.two" horiz-adv-x="1261" 
d="M1001 20l-157 420l-451 -16l-125 -428l-274 -10l442 1409l289 10l543 -1374zM594 1104l-127 -434l287 10zM473 1782h315l164 -287h-204l-117 143l-117 -143h-205z" />
    <glyph glyph-name="Adieresis.two" horiz-adv-x="1261" 
d="M1001 20l-157 420l-451 -16l-125 -428l-274 -10l442 1409l289 10l543 -1374zM594 1104l-127 -434l287 10zM309 1761h234v-245h-234v245zM719 1761h233v-245h-233v245z" />
    <glyph glyph-name="Agrave.two" horiz-adv-x="1261" 
d="M1001 20l-157 420l-451 -16l-125 -428l-274 -10l442 1409l289 10l543 -1374zM594 1104l-127 -434l287 10zM733 1782l62 -287h-205l-234 287h377z" />
    <glyph glyph-name="Aring.two" horiz-adv-x="1261" 
d="M1001 20l-157 420l-451 -16l-125 -428l-274 -10l442 1409l289 10l543 -1374zM594 1104l-127 -434l287 10zM631 1495q-104 0 -177 75.5t-73 180.5t73 179.5t177 74.5q103 0 177.5 -75t74.5 -179t-74.5 -180t-177.5 -76zM625 1638q45 0 77.5 33.5t32.5 79.5q0 44 -32 75.5
t-78 31.5q-45 0 -78 -31.5t-33 -75.5q0 -46 33.5 -79.5t77.5 -33.5z" />
    <glyph glyph-name="Atilde.two" horiz-adv-x="1261" 
d="M1001 20l-157 420l-451 -16l-125 -428l-274 -10l442 1409l289 10l543 -1374zM594 1104l-127 -434l287 10zM270 1530q-14 120 44 191t175 71q53 0 106.5 -25.5t97.5 -51t73 -25.5q45 0 64.5 31.5t9.5 76.5l168 -20q10 -141 -52 -207t-159 -66q-38 0 -83.5 15.5t-79 34
t-69 34t-57.5 15.5q-31 0 -47 -18.5t-10 -55.5h-181z" />
    <glyph glyph-name="Abreve.two" horiz-adv-x="1261" 
d="M1001 20l-157 420l-451 -16l-125 -428l-274 -10l442 1409l289 10l543 -1374zM594 1104l-127 -434l287 10zM629 1495q-290 0 -320 287h205q0 -129 117 -129q56 0 86.5 29t30.5 100h204q-33 -287 -323 -287z" />
    <glyph glyph-name="Amacron.two" horiz-adv-x="1261" 
d="M1001 20l-157 420l-451 -16l-125 -428l-274 -10l442 1409l289 10l543 -1374zM594 1104l-127 -434l287 10zM287 1532v174h688v-174h-688z" />
    <glyph glyph-name="Aogonek.two" horiz-adv-x="1261" 
d="M1001 20l-157 420l-451 -16l-125 -428l-274 -10l442 1409l289 10l543 -1374l-39 -2v-29q-50 -7 -79.5 -52t-29.5 -89q0 -72 56 -72q50 0 92 47l14 -174q-58 -49 -147 -49q-88 0 -144.5 62t-56.5 134q0 122 82 213h-15zM594 1104l-127 -434l287 10z" />
    <glyph glyph-name="Ccedilla.two" horiz-adv-x="1374" 
d="M586 -322l-117 43l160 269q-116 19 -215 76t-173.5 145t-116.5 213t-42 272q0 166 50.5 302.5t139 226.5t208.5 139t259 49q237 0 385.5 -110.5t167.5 -301.5l-245 -63q-10 106 -92.5 168.5t-206.5 62.5q-195 0 -303.5 -125t-108.5 -348t109 -348t303 -125q44 0 84.5 7
t80.5 25t69 45.5t48 72t21 100.5l237 -45q-3 -199 -145 -319t-363 -129l-73 -99q24 6 51 6q112 0 184 -68.5t72 -174.5t-86 -180t-213 -74q-122 0 -203.5 64t-75.5 173h172q-4 -41 26 -63.5t85 -22.5t85 28.5t30 78.5q0 45 -32 73.5t-79 28.5q-92 0 -137 -72z" />
    <glyph glyph-name="Cacute.two" horiz-adv-x="1374" 
d="M1051 473l237 -45q-1 -104 -43.5 -189t-115.5 -141.5t-171.5 -87t-212.5 -30.5q-136 0 -256.5 49t-211 139t-143 226.5t-52.5 301.5q0 166 50.5 302.5t139 226.5t208.5 139t259 49q237 0 385.5 -110.5t167.5 -301.5l-245 -63q-10 106 -92.5 168.5t-206.5 62.5
q-195 0 -303.5 -125t-108.5 -348t109 -348t303 -125q44 0 84.5 7t80.5 25t69 45.5t48 72t21 100.5zM629 1782h377l-234 -287h-205z" />
    <glyph glyph-name="Ccaron.two" horiz-adv-x="1374" 
d="M1051 473l237 -45q-1 -104 -43.5 -189t-115.5 -141.5t-171.5 -87t-212.5 -30.5q-136 0 -256.5 49t-211 139t-143 226.5t-52.5 301.5q0 166 50.5 302.5t139 226.5t208.5 139t259 49q237 0 385.5 -110.5t167.5 -301.5l-245 -63q-10 106 -92.5 168.5t-206.5 62.5
q-195 0 -303.5 -125t-108.5 -348t109 -348t303 -125q44 0 84.5 7t80.5 25t69 45.5t48 72t21 100.5zM541 1495l-164 287h205l116 -144l117 144h205l-164 -287h-315z" />
    <glyph glyph-name="Ccircumflex.two" horiz-adv-x="1374" 
d="M1051 473l237 -45q-1 -104 -43.5 -189t-115.5 -141.5t-171.5 -87t-212.5 -30.5q-136 0 -256.5 49t-211 139t-143 226.5t-52.5 301.5q0 166 50.5 302.5t139 226.5t208.5 139t259 49q237 0 385.5 -110.5t167.5 -301.5l-245 -63q-10 106 -92.5 168.5t-206.5 62.5
q-195 0 -303.5 -125t-108.5 -348t109 -348t303 -125q44 0 84.5 7t80.5 25t69 45.5t48 72t21 100.5zM541 1782h315l164 -287h-205l-117 143l-116 -143h-205z" />
    <glyph glyph-name="Cdotaccent.two" horiz-adv-x="1374" 
d="M1051 473l237 -45q-1 -104 -43.5 -189t-115.5 -141.5t-171.5 -87t-212.5 -30.5q-136 0 -256.5 49t-211 139t-143 226.5t-52.5 301.5q0 166 50.5 302.5t139 226.5t208.5 139t259 49q237 0 385.5 -110.5t167.5 -301.5l-245 -63q-10 106 -92.5 168.5t-206.5 62.5
q-195 0 -303.5 -125t-108.5 -348t109 -348t303 -125q44 0 84.5 7t80.5 25t69 45.5t48 72t21 100.5zM582 1761h233v-245h-233v245z" />
    <glyph glyph-name="Dcaron.two" horiz-adv-x="1386" 
d="M176 0v1393h416q315 0 504.5 -188t189.5 -509q0 -320 -190 -508t-504 -188h-416zM578 231q220 0 337 117.5t117 347.5t-117 347.5t-337 117.5h-158v-930h158zM537 1495l-164 287h205l116 -144l117 144h205l-164 -287h-315z" />
    <glyph glyph-name="Eacute.two" horiz-adv-x="1245" 
d="M176 0v1393h954v-232h-710v-325h524v-232h-524v-373h710v-231h-954zM502 1782h377l-234 -287h-205z" />
    <glyph glyph-name="Ecircumflex.two" horiz-adv-x="1245" 
d="M176 0v1393h954v-232h-710v-325h524v-232h-524v-373h710v-231h-954zM414 1782h315l164 -287h-205l-117 143l-116 -143h-205z" />
    <glyph glyph-name="Edieresis.two" horiz-adv-x="1245" 
d="M176 0v1393h954v-232h-710v-325h524v-232h-524v-373h710v-231h-954zM250 1761h233v-245h-233v245zM659 1761h234v-245h-234v245z" />
    <glyph glyph-name="Egrave.two" horiz-adv-x="1245" 
d="M176 0v1393h954v-232h-710v-325h524v-232h-524v-373h710v-231h-954zM674 1782l61 -287h-205l-233 287h377z" />
    <glyph glyph-name="Ebreve.two" horiz-adv-x="1245" 
d="M176 0v1393h954v-232h-710v-325h524v-232h-524v-373h710v-231h-954zM569 1495q-289 0 -319 287h205q0 -129 116 -129q56 0 86.5 29t30.5 100h205q-33 -287 -324 -287z" />
    <glyph glyph-name="Ecaron.two" horiz-adv-x="1245" 
d="M176 0v1393h954v-232h-710v-325h524v-232h-524v-373h710v-231h-954zM414 1495l-164 287h205l116 -144l117 144h205l-164 -287h-315z" />
    <glyph glyph-name="Edotaccent.two" horiz-adv-x="1245" 
d="M176 0v1393h954v-232h-710v-325h524v-232h-524v-373h710v-231h-954zM455 1761h233v-245h-233v245z" />
    <glyph glyph-name="Emacron.two" horiz-adv-x="1245" 
d="M176 0v1393h954v-232h-710v-325h524v-232h-524v-373h710v-231h-954zM227 1532v174h688v-174h-688z" />
    <glyph glyph-name="Eogonek.two" horiz-adv-x="1245" 
d="M176 0v1393h954v-232h-710v-325h524v-232h-524v-373h710v-231h-53q-50 -7 -79 -52t-29 -89q0 -72 55 -72q50 0 92 47l14 -174q-58 -49 -147 -49q-88 0 -144.5 62t-56.5 134q0 110 64 193h-670z" />
    <glyph glyph-name="Gbreve.two" horiz-adv-x="1529" 
d="M727 444v234h666v-678h-232v133q-147 -153 -395 -153q-136 0 -256.5 49t-211 139t-143.5 226.5t-53 301.5q0 166 51 302.5t140.5 226.5t209.5 139t259 49q265 0 425 -144.5t183 -404.5h-264q-12 143 -103.5 224t-244.5 81q-182 0 -292 -126.5t-110 -346.5t119.5 -346.5
t317.5 -126.5q135 0 227 60t125 161h-418zM713 1495q-290 0 -320 287h205q0 -129 117 -129q55 0 85.5 29t30.5 100h205q-33 -287 -323 -287z" />
    <glyph glyph-name="Gcircumflex.two" horiz-adv-x="1529" 
d="M727 444v234h666v-678h-232v133q-147 -153 -395 -153q-136 0 -256.5 49t-211 139t-143.5 226.5t-53 301.5q0 166 51 302.5t140.5 226.5t209.5 139t259 49q265 0 425 -144.5t183 -404.5h-264q-12 143 -103.5 224t-244.5 81q-182 0 -292 -126.5t-110 -346.5t119.5 -346.5
t317.5 -126.5q135 0 227 60t125 161h-418zM557 1782h315l164 -287h-205l-116 143l-117 -143h-205z" />
    <glyph glyph-name="Gcommaaccent.two" horiz-adv-x="1529" 
d="M727 444v234h666v-678h-232v133q-147 -153 -395 -153q-136 0 -256.5 49t-211 139t-143.5 226.5t-53 301.5q0 166 51 302.5t140.5 226.5t209.5 139t259 49q265 0 425 -144.5t183 -404.5h-264q-12 143 -103.5 224t-244.5 81q-182 0 -292 -126.5t-110 -346.5t119.5 -346.5
t317.5 -126.5q135 0 227 60t125 161h-418zM561 -123h307v-242q0 -133 -74 -191t-235 -58v143q69 0 107.5 28.5t38.5 73.5h-144v246z" />
    <glyph glyph-name="Gdotaccent.two" horiz-adv-x="1529" 
d="M727 444v234h666v-678h-232v133q-147 -153 -395 -153q-136 0 -256.5 49t-211 139t-143.5 226.5t-53 301.5q0 166 51 302.5t140.5 226.5t209.5 139t259 49q265 0 425 -144.5t183 -404.5h-264q-12 143 -103.5 224t-244.5 81q-182 0 -292 -126.5t-110 -346.5t119.5 -346.5
t317.5 -126.5q135 0 227 60t125 161h-418zM598 1761h233v-245h-233v245z" />
    <glyph glyph-name="Hbar.two" horiz-adv-x="1384" 
d="M154 16l34 1055l-122 2l8 166l119 -2l6 172l243 -8l-6 -166l547 -4l4 151l244 -6l-4 -147l127 -2l-8 -166l-125 2l-35 -1079l-244 8l19 598l-545 16l-19 -596zM424 848l545 -17l8 234l-545 4z" />
    <glyph glyph-name="Hcircumflex.two" horiz-adv-x="1384" 
d="M154 16l45 1393l243 -8l-18 -553l545 -17l18 551l244 -6l-45 -1392l-244 8l19 598l-545 16l-19 -596zM535 1782h315l164 -287h-205l-117 143l-117 -143h-204z" />
    <glyph glyph-name="Iacute.two" horiz-adv-x="917" 
d="M72 0v199h268v995h-268v199h774v-199h-262v-995h262v-199h-774zM403 1782h377l-233 -287h-205z" />
    <glyph glyph-name="Icircumflex.two" horiz-adv-x="917" 
d="M72 0v199h268v995h-268v199h774v-199h-262v-995h262v-199h-774zM305 1782h316l163 -287h-204l-117 143l-117 -143h-205z" />
    <glyph glyph-name="Idieresis.two" horiz-adv-x="917" 
d="M72 0v199h268v995h-268v199h774v-199h-262v-995h262v-199h-774zM131 1761h234v-245h-234v245zM541 1761h233v-245h-233v245z" />
    <glyph glyph-name="Igrave.two" horiz-adv-x="917" 
d="M72 0v199h268v995h-268v199h774v-199h-262v-995h262v-199h-774zM524 1782l62 -287h-205l-234 287h377z" />
    <glyph glyph-name="Ibreve.two" horiz-adv-x="917" 
d="M72 0v199h268v995h-268v199h774v-199h-262v-995h262v-199h-774zM461 1495q-290 0 -320 287h205q0 -129 117 -129q56 0 86.5 29t30.5 100h204q-33 -287 -323 -287z" />
    <glyph glyph-name="Idotaccent.two" horiz-adv-x="917" 
d="M72 0v199h268v995h-268v199h774v-199h-262v-995h262v-199h-774zM346 1761h234v-245h-234v245z" />
    <glyph glyph-name="Imacron.two" horiz-adv-x="917" 
d="M72 0v199h268v995h-268v199h774v-199h-262v-995h262v-199h-774zM109 1532v174h688v-174h-688z" />
    <glyph glyph-name="Iogonek.two" horiz-adv-x="917" 
d="M72 0v199h268v995h-268v199h774v-199h-262v-995h262v-199h-271q-50 -7 -79 -52t-29 -89q0 -72 55 -72q50 0 92 47l15 -174q-58 -49 -148 -49q-88 0 -144 62t-56 134q0 111 63 193h-272z" />
    <glyph glyph-name="Itilde.two" horiz-adv-x="917" 
d="M72 0v199h268v995h-268v199h774v-199h-262v-995h262v-199h-774zM72 1530q-14 120 44 191t175 71q53 0 106.5 -25.5t97 -51t72.5 -25.5q45 0 64.5 31.5t9.5 76.5l168 -20q10 -141 -52 -207t-159 -66q-38 0 -83.5 15.5t-79 34t-69 34t-57.5 15.5q-31 0 -47 -18.5t-10 -55.5
h-180z" />
    <glyph glyph-name="Jcircumflex.two" horiz-adv-x="665" 
d="M283 1796l315 -8l156 -291l-205 4l-113 148l-121 -142l-204 6zM535 1362l-43 -1053q-7 -186 -85.5 -270t-228.5 -78q-98 6 -196 29l10 223q110 -20 135 -20q68 -1 93.5 22t27.5 74l47 1083z" />
    <glyph glyph-name="Kcommaaccent.two" horiz-adv-x="1236" 
d="M176 0v1393h244v-506l446 506h293l-569 -623l565 -770h-283l-452 600v-600h-244zM465 -123h307v-242q0 -133 -74 -191t-235 -58v143q69 0 107 28t38 74h-143v246z" />
    <glyph glyph-name="Lacute.two" horiz-adv-x="1021" 
d="M131 27l78 1390l244 -12l-66 -1159l553 -31l-12 -231l-596 32zM258 1782h377l-234 -287h-204z" />
    <glyph glyph-name="Lcommaaccent.two" horiz-adv-x="1021" 
d="M131 27l78 1390l244 -12l-66 -1159l553 -31l-12 -231l-596 32zM383 -123h307v-242q0 -133 -74 -191t-235 -58v143q69 0 107 28t38 74h-143v246z" />
    <glyph glyph-name="Ntilde.two" horiz-adv-x="1394" 
d="M176 0v1393h316l483 -785v785h244v-1178l2 -4l-2 -211h-140l-659 1049v-1049h-244zM317 1530q-14 120 44.5 191t175.5 71q53 0 106.5 -25.5t97 -51t72.5 -25.5q45 0 64.5 31.5t9.5 76.5l168 -20q10 -141 -52 -207t-159 -66q-38 0 -83.5 15.5t-79 34t-69 34t-57.5 15.5
q-31 0 -47 -18.5t-10 -55.5h-181z" />
    <glyph glyph-name="Nacute.two" horiz-adv-x="1394" 
d="M176 0v1393h316l483 -785v785h244v-1178l2 -4l-2 -211h-140l-659 1049v-1049h-244zM608 1782h377l-233 -287h-205z" />
    <glyph glyph-name="Ncaron.two" horiz-adv-x="1394" 
d="M176 0v1393h316l483 -785v785h244v-1178l2 -4l-2 -211h-140l-659 1049v-1049h-244zM520 1495l-164 287h205l117 -144l117 144h204l-163 -287h-316z" />
    <glyph glyph-name="Ncommaaccent.two" horiz-adv-x="1394" 
d="M176 0v1393h316l483 -785v785h244v-1178l2 -4l-2 -211h-140l-659 1049v-1049h-244zM524 -123h307v-242q0 -133 -74 -191t-235 -58v143q69 0 107.5 28.5t38.5 73.5h-144v246z" />
    <glyph glyph-name="Oacute.two" horiz-adv-x="1443" 
d="M610 -12q-127 20 -231 87.5t-172.5 171t-95 245t-0.5 301.5q33 212 139.5 361.5t258 213.5t322.5 37q129 -20 234 -88t173.5 -171.5t95.5 -245t1 -300.5q-33 -213 -141 -362.5t-260 -213t-324 -36.5zM647 229q162 -25 281.5 84t154.5 326q33 216 -47 357.5t-241 166.5
q-162 27 -281 -82.5t-154 -326.5q-33 -218 46.5 -359t240.5 -166zM653 1782h377l-233 -287h-205z" />
    <glyph glyph-name="Ocircumflex.two" horiz-adv-x="1443" 
d="M610 -12q-127 20 -231 87.5t-172.5 171t-95 245t-0.5 301.5q33 212 139.5 361.5t258 213.5t322.5 37q129 -20 234 -88t173.5 -171.5t95.5 -245t1 -300.5q-33 -213 -141 -362.5t-260 -213t-324 -36.5zM647 229q162 -25 281.5 84t154.5 326q33 216 -47 357.5t-241 166.5
q-162 27 -281 -82.5t-154 -326.5q-33 -218 46.5 -359t240.5 -166zM565 1782h316l163 -287h-204l-117 143l-117 -143h-205z" />
    <glyph glyph-name="Odieresis.two" horiz-adv-x="1443" 
d="M610 -12q-127 20 -231 87.5t-172.5 171t-95 245t-0.5 301.5q33 212 139.5 361.5t258 213.5t322.5 37q129 -20 234 -88t173.5 -171.5t95.5 -245t1 -300.5q-33 -213 -141 -362.5t-260 -213t-324 -36.5zM647 229q162 -25 281.5 84t154.5 326q33 216 -47 357.5t-241 166.5
q-162 27 -281 -82.5t-154 -326.5q-33 -218 46.5 -359t240.5 -166zM401 1761h234v-245h-234v245zM811 1761h233v-245h-233v245z" />
    <glyph glyph-name="Ograve.two" horiz-adv-x="1443" 
d="M610 -12q-127 20 -231 87.5t-172.5 171t-95 245t-0.5 301.5q33 212 139.5 361.5t258 213.5t322.5 37q129 -20 234 -88t173.5 -171.5t95.5 -245t1 -300.5q-33 -213 -141 -362.5t-260 -213t-324 -36.5zM647 229q162 -25 281.5 84t154.5 326q33 216 -47 357.5t-241 166.5
q-162 27 -281 -82.5t-154 -326.5q-33 -218 46.5 -359t240.5 -166zM825 1782l62 -287h-205l-233 287h376z" />
    <glyph glyph-name="Otilde.two" horiz-adv-x="1443" 
d="M610 -12q-127 20 -231 87.5t-172.5 171t-95 245t-0.5 301.5q33 212 139.5 361.5t258 213.5t322.5 37q129 -20 234 -88t173.5 -171.5t95.5 -245t1 -300.5q-33 -213 -141 -362.5t-260 -213t-324 -36.5zM647 229q162 -25 281.5 84t154.5 326q33 216 -47 357.5t-241 166.5
q-162 27 -281 -82.5t-154 -326.5q-33 -218 46.5 -359t240.5 -166zM362 1530q-14 120 44.5 191t175.5 71q53 0 106.5 -25.5t97 -51t72.5 -25.5q45 0 64.5 31.5t9.5 76.5l168 -20q10 -141 -52 -207t-159 -66q-38 0 -83.5 15.5t-79 34t-69 34t-57.5 15.5q-31 0 -47 -18.5
t-10 -55.5h-181z" />
    <glyph glyph-name="Obreve.two" horiz-adv-x="1443" 
d="M610 -12q-127 20 -231 87.5t-172.5 171t-95 245t-0.5 301.5q33 212 139.5 361.5t258 213.5t322.5 37q129 -20 234 -88t173.5 -171.5t95.5 -245t1 -300.5q-33 -213 -141 -362.5t-260 -213t-324 -36.5zM647 229q162 -25 281.5 84t154.5 326q33 216 -47 357.5t-241 166.5
q-162 27 -281 -82.5t-154 -326.5q-33 -218 46.5 -359t240.5 -166zM721 1495q-290 0 -320 287h205q0 -129 117 -129q56 0 86.5 29t30.5 100h204q-33 -287 -323 -287z" />
    <glyph glyph-name="Ohungarumlaut.two" horiz-adv-x="1443" 
d="M610 -12q-127 20 -231 87.5t-172.5 171t-95 245t-0.5 301.5q33 212 139.5 361.5t258 213.5t322.5 37q129 -20 234 -88t173.5 -171.5t95.5 -245t1 -300.5q-33 -213 -141 -362.5t-260 -213t-324 -36.5zM647 229q162 -25 281.5 84t154.5 326q33 216 -47 357.5t-241 166.5
q-162 27 -281 -82.5t-154 -326.5q-33 -218 46.5 -359t240.5 -166zM827 1782h336l-213 -287h-184zM418 1782h336l-213 -287h-185z" />
    <glyph glyph-name="Omacron.two" horiz-adv-x="1443" 
d="M610 -12q-127 20 -231 87.5t-172.5 171t-95 245t-0.5 301.5q33 212 139.5 361.5t258 213.5t322.5 37q129 -20 234 -88t173.5 -171.5t95.5 -245t1 -300.5q-33 -213 -141 -362.5t-260 -213t-324 -36.5zM647 229q162 -25 281.5 84t154.5 326q33 216 -47 357.5t-241 166.5
q-162 27 -281 -82.5t-154 -326.5q-33 -218 46.5 -359t240.5 -166zM379 1532v174h688v-174h-688z" />
    <glyph glyph-name="Racute.two" horiz-adv-x="1175" 
d="M160 -6l-47 1392l211 7l264 10q222 7 337.5 -93t121.5 -290q6 -186 -84 -289.5t-304 -120.5l631 -577l-321 -13l-586 558l18 -574zM596 1151l-231 -8l10 -330l225 6q102 4 149 47.5t44 124.5q-3 79 -54.5 121t-142.5 39zM569 1782h377l-233 -287h-205z" />
    <glyph glyph-name="Rcaron.two" horiz-adv-x="1175" 
d="M160 -6l-47 1392l211 7l264 10q222 7 337.5 -93t121.5 -290q6 -186 -84 -289.5t-304 -120.5l631 -577l-321 -13l-586 558l18 -574zM596 1151l-231 -8l10 -330l225 6q102 4 149 47.5t44 124.5q-3 79 -54.5 121t-142.5 39zM481 1495l-164 287h205l117 -144l117 144h205
l-164 -287h-316z" />
    <glyph glyph-name="Rcommaaccent.two" horiz-adv-x="1175" 
d="M160 -6l-47 1392l211 7l264 10q222 7 337.5 -93t121.5 -290q6 -186 -84 -289.5t-304 -120.5l631 -577l-321 -13l-586 558l18 -574zM596 1151l-231 -8l10 -330l225 6q102 4 149 47.5t44 124.5q-3 79 -54.5 121t-142.5 39zM485 -123h308v-242q0 -133 -74.5 -191t-235.5 -58
v143q69 0 107.5 28.5t38.5 73.5h-144v246z" />
    <glyph glyph-name="Scaron.two" horiz-adv-x="1206" 
d="M106 473h259q12 -299 272 -299q106 0 163.5 49t57.5 133q0 53 -26.5 90t-71.5 57t-103 33.5t-122.5 24.5t-129 25.5t-122.5 42t-103 67.5t-71.5 108t-26.5 159q0 209 147 329.5t387 120.5q114 0 208.5 -29.5t157 -79t103 -113.5t54.5 -134.5t4 -141.5h-258
q-2 65 -15.5 114.5t-44 90.5t-85.5 62.5t-132 21.5q-126 0 -198 -50t-72 -134q0 -56 26.5 -95t71.5 -61t103.5 -37t123 -28t129 -28.5t123 -44t103.5 -69t71.5 -109t26.5 -159.5q0 -177 -136 -293t-357 -116q-138 0 -243 39.5t-166 108.5t-88.5 156.5t-19.5 188.5zM444 1495
l-163 287h204l117 -144l117 144h205l-164 -287h-316z" />
    <glyph glyph-name="Sacute.two" horiz-adv-x="1206" 
d="M106 473h259q12 -299 272 -299q106 0 163.5 49t57.5 133q0 53 -26.5 90t-71.5 57t-103 33.5t-122.5 24.5t-129 25.5t-122.5 42t-103 67.5t-71.5 108t-26.5 159q0 209 147 329.5t387 120.5q114 0 208.5 -29.5t157 -79t103 -113.5t54.5 -134.5t4 -141.5h-258
q-2 65 -15.5 114.5t-44 90.5t-85.5 62.5t-132 21.5q-126 0 -198 -50t-72 -134q0 -56 26.5 -95t71.5 -61t103.5 -37t123 -28t129 -28.5t123 -44t103.5 -69t71.5 -109t26.5 -159.5q0 -177 -136 -293t-357 -116q-138 0 -243 39.5t-166 108.5t-88.5 156.5t-19.5 188.5zM532 1782
h377l-233 -287h-205z" />
    <glyph glyph-name="Scedilla.two" horiz-adv-x="1206" 
d="M106 473h259q12 -299 272 -299q106 0 163.5 49t57.5 133q0 53 -26.5 90t-71.5 57t-103 33.5t-122.5 24.5t-129 25.5t-122.5 42t-103 67.5t-71.5 108t-26.5 159q0 209 147 329.5t387 120.5q114 0 208.5 -29.5t157 -79t103 -113.5t54.5 -134.5t4 -141.5h-258
q-2 65 -15.5 114.5t-44 90.5t-85.5 62.5t-132 21.5q-126 0 -198 -50t-72 -134q0 -56 26.5 -95t71.5 -61t103.5 -37t123 -28t129 -28.5t123 -44t103.5 -69t71.5 -109t26.5 -159.5q0 -164 -117.5 -277t-312.5 -130l-76 -101q24 6 52 6q112 0 184 -68.5t72 -174.5t-86.5 -180
t-213.5 -74q-121 0 -202.5 63.5t-75.5 173.5h172q-4 -41 26 -63.5t85 -22.5t84.5 28.5t29.5 78.5q0 45 -31.5 73.5t-78.5 28.5q-93 0 -138 -72l-116 43l157 263q-114 13 -200 57t-136.5 110.5t-72.5 148t-15 173.5z" />
    <glyph glyph-name="Scircumflex.two" horiz-adv-x="1206" 
d="M106 473h259q12 -299 272 -299q106 0 163.5 49t57.5 133q0 53 -26.5 90t-71.5 57t-103 33.5t-122.5 24.5t-129 25.5t-122.5 42t-103 67.5t-71.5 108t-26.5 159q0 209 147 329.5t387 120.5q114 0 208.5 -29.5t157 -79t103 -113.5t54.5 -134.5t4 -141.5h-258
q-2 65 -15.5 114.5t-44 90.5t-85.5 62.5t-132 21.5q-126 0 -198 -50t-72 -134q0 -56 26.5 -95t71.5 -61t103.5 -37t123 -28t129 -28.5t123 -44t103.5 -69t71.5 -109t26.5 -159.5q0 -177 -136 -293t-357 -116q-138 0 -243 39.5t-166 108.5t-88.5 156.5t-19.5 188.5zM444 1782
h316l164 -287h-205l-117 143l-117 -143h-204z" />
    <glyph glyph-name="uni0218.two" horiz-adv-x="1206" 
d="M106 473h259q12 -299 272 -299q106 0 163.5 49t57.5 133q0 53 -26.5 90t-71.5 57t-103 33.5t-122.5 24.5t-129 25.5t-122.5 42t-103 67.5t-71.5 108t-26.5 159q0 209 147 329.5t387 120.5q114 0 208.5 -29.5t157 -79t103 -113.5t54.5 -134.5t4 -141.5h-258
q-2 65 -15.5 114.5t-44 90.5t-85.5 62.5t-132 21.5q-126 0 -198 -50t-72 -134q0 -56 26.5 -95t71.5 -61t103.5 -37t123 -28t129 -28.5t123 -44t103.5 -69t71.5 -109t26.5 -159.5q0 -177 -136 -293t-357 -116q-138 0 -243 39.5t-166 108.5t-88.5 156.5t-19.5 188.5zM449 -123
h307v-242q0 -133 -74.5 -191t-235.5 -58v143q69 0 107.5 28.5t38.5 73.5h-143v246z" />
    <glyph glyph-name="Tbar.two" horiz-adv-x="1302" 
d="M530 0v653h-223v174h223v334h-469v232h1180v-232h-469v-334h223v-174h-223v-653h-242z" />
    <glyph glyph-name="Tcaron.two" horiz-adv-x="1302" 
d="M530 0v1161h-469v232h1180v-232h-469v-1161h-242zM575 1495l-163 287h204l117 -144l117 144h205l-164 -287h-316z" />
    <glyph glyph-name="uni0162.two" horiz-adv-x="1302" 
d="M530 0v1161h-469v232h1180v-232h-469v-1161h-242zM522 -123h307v-242q0 -133 -74 -191t-235 -58v143q69 0 107.5 28.5t38.5 73.5h-144v246z" />
    <glyph glyph-name="uni021A.two" horiz-adv-x="1302" 
d="M530 0v1161h-469v232h1180v-232h-469v-1161h-242zM512 -123h307v-242q0 -133 -74 -191t-235 -58v143q69 0 107 28t38 74h-143v246z" />
    <glyph glyph-name="Uacute.two" horiz-adv-x="1284" 
d="M1130 1393v-1008q0 -190 -129.5 -297.5t-361.5 -107.5q-239 0 -361 117t-122 309v987h241v-985q0 -95 60 -140t184 -45q118 0 182 35.5t64 124.5v1010h243zM584 1782h377l-234 -287h-205z" />
    <glyph glyph-name="Ucircumflex.two" horiz-adv-x="1284" 
d="M1130 1393v-1008q0 -190 -129.5 -297.5t-361.5 -107.5q-239 0 -361 117t-122 309v987h241v-985q0 -95 60 -140t184 -45q118 0 182 35.5t64 124.5v1010h243zM496 1782h315l164 -287h-205l-117 143l-116 -143h-205z" />
    <glyph glyph-name="Udieresis.two" horiz-adv-x="1284" 
d="M1130 1393v-1008q0 -190 -129.5 -297.5t-361.5 -107.5q-239 0 -361 117t-122 309v987h241v-985q0 -95 60 -140t184 -45q118 0 182 35.5t64 124.5v1010h243zM332 1761h233v-245h-233v245zM741 1761h234v-245h-234v245z" />
    <glyph glyph-name="Ugrave.two" horiz-adv-x="1284" 
d="M1130 1393v-1008q0 -190 -129.5 -297.5t-361.5 -107.5q-239 0 -361 117t-122 309v987h241v-985q0 -95 60 -140t184 -45q118 0 182 35.5t64 124.5v1010h243zM756 1782l61 -287h-205l-233 287h377z" />
    <glyph glyph-name="Ubreve.two" horiz-adv-x="1284" 
d="M1130 1393v-1008q0 -190 -129.5 -297.5t-361.5 -107.5q-239 0 -361 117t-122 309v987h241v-985q0 -95 60 -140t184 -45q118 0 182 35.5t64 124.5v1010h243zM651 1495q-289 0 -319 287h205q0 -129 116 -129q56 0 86.5 29t30.5 100h205q-33 -287 -324 -287z" />
    <glyph glyph-name="Uhungarumlaut.two" horiz-adv-x="1284" 
d="M1130 1393v-1008q0 -190 -129.5 -297.5t-361.5 -107.5q-239 0 -361 117t-122 309v987h241v-985q0 -95 60 -140t184 -45q118 0 182 35.5t64 124.5v1010h243zM758 1782h336l-213 -287h-185zM348 1782h336l-213 -287h-184z" />
    <glyph glyph-name="Umacron.two" horiz-adv-x="1284" 
d="M1130 1393v-1008q0 -190 -129.5 -297.5t-361.5 -107.5q-239 0 -361 117t-122 309v987h241v-985q0 -95 60 -140t184 -45q118 0 182 35.5t64 124.5v1010h243zM309 1532v174h688v-174h-688z" />
    <glyph glyph-name="Uogonek.two" horiz-adv-x="1284" 
d="M1130 1393v-1008q0 -157 -89 -258.5t-253 -132.5q-39 -18 -61 -58t-22 -77q0 -72 55 -72q50 0 92 47l14 -174q-58 -49 -147 -49q-88 0 -144.5 62t-56.5 134q0 99 51 175q-205 18 -309 133t-104 291v987h241v-985q0 -95 60 -140t184 -45q118 0 182 35.5t64 124.5v1010h243
z" />
    <glyph glyph-name="Uring.two" horiz-adv-x="1284" 
d="M1130 1393v-1008q0 -190 -129.5 -297.5t-361.5 -107.5q-239 0 -361 117t-122 309v987h241v-985q0 -95 60 -140t184 -45q118 0 182 35.5t64 124.5v1010h243zM653 1495q-104 0 -177 75.5t-73 180.5t73 179.5t177 74.5q103 0 177.5 -75t74.5 -179t-74.5 -180t-177.5 -76z
M647 1638q46 0 78.5 33.5t32.5 79.5q0 44 -32.5 75.5t-78.5 31.5q-45 0 -77.5 -31.5t-32.5 -75.5q0 -46 33 -79.5t77 -33.5z" />
    <glyph glyph-name="Utilde.two" horiz-adv-x="1284" 
d="M1130 1393v-1008q0 -190 -129.5 -297.5t-361.5 -107.5q-239 0 -361 117t-122 309v987h241v-985q0 -95 60 -140t184 -45q118 0 182 35.5t64 124.5v1010h243zM293 1530q-14 120 44 191t175 71q53 0 106.5 -25.5t97 -51t72.5 -25.5q45 0 64.5 31.5t9.5 76.5l168 -20
q10 -141 -52 -207t-159 -66q-38 0 -83.5 15.5t-79 34t-69 34t-57.5 15.5q-31 0 -47 -18.5t-10 -55.5h-180z" />
    <glyph glyph-name="Wacute.two" horiz-adv-x="1722" 
d="M289 1393l215 -944l225 944h272l222 -949l221 949h246l-338 -1393h-254l-238 965l-233 -965h-252l-342 1393h256zM793 1782h376l-233 -287h-205z" />
    <glyph glyph-name="Wcircumflex.two" horiz-adv-x="1722" 
d="M289 1393l215 -944l225 944h272l222 -949l221 949h246l-338 -1393h-254l-238 965l-233 -965h-252l-342 1393h256zM705 1782h315l164 -287h-205l-117 143l-117 -143h-204z" />
    <glyph glyph-name="Wdieresis.two" horiz-adv-x="1722" 
d="M289 1393l215 -944l225 944h272l222 -949l221 949h246l-338 -1393h-254l-238 965l-233 -965h-252l-342 1393h256zM541 1761h233v-245h-233v245zM950 1761h234v-245h-234v245z" />
    <glyph glyph-name="Wgrave.two" horiz-adv-x="1722" 
d="M289 1393l215 -944l225 944h272l222 -949l221 949h246l-338 -1393h-254l-238 965l-233 -965h-252l-342 1393h256zM965 1782l61 -287h-205l-233 287h377z" />
    <glyph glyph-name="Yacute.two" horiz-adv-x="1232" 
d="M494 0v678l-494 715h305l313 -473l322 473h293l-496 -715v-678h-243zM547 1782h377l-234 -287h-205z" />
    <glyph glyph-name="Ydieresis.two" horiz-adv-x="1232" 
d="M494 0v678l-494 715h305l313 -473l322 473h293l-496 -715v-678h-243zM295 1761h233v-245h-233v245zM705 1761h233v-245h-233v245z" />
    <glyph glyph-name="Ycircumflex.two" horiz-adv-x="1232" 
d="M494 0v678l-494 715h305l313 -473l322 473h293l-496 -715v-678h-243zM459 1782h315l164 -287h-205l-117 143l-116 -143h-205z" />
    <glyph glyph-name="Ygrave.two" horiz-adv-x="1232" 
d="M494 0v678l-494 715h305l313 -473l322 473h293l-496 -715v-678h-243zM719 1782l61 -287h-205l-233 287h377z" />
    <glyph glyph-name="Zcaron.two" horiz-adv-x="1118" 
d="M86 0v221l625 940h-600v232h903v-222l-627 -940h647v-231h-948zM401 1495l-163 287h204l117 -144l117 144h205l-164 -287h-316z" />
    <glyph glyph-name="Zacute.two" horiz-adv-x="1118" 
d="M86 0v221l625 940h-600v232h903v-222l-627 -940h647v-231h-948zM489 1782h377l-233 -287h-205z" />
    <glyph glyph-name="Zdotaccent.two" horiz-adv-x="1118" 
d="M86 0v221l625 940h-600v232h903v-222l-627 -940h647v-231h-948zM442 1761h234v-245h-234v245z" />
    <glyph glyph-name="A.three" horiz-adv-x="1167" 
d="M199 20l-267 11l543 1374l289 -10l442 -1409l-274 10l-125 428l-451 16zM446 680l287 -10l-127 434z" />
    <glyph glyph-name="B.three" horiz-adv-x="1296" 
d="M166 18l49 1393l201 -8l366 -12q121 -4 209.5 -36t139 -85t73 -118t19.5 -142q-3 -90 -52 -166t-151 -119q63 -29 107.5 -70t67 -87t31.5 -89.5t7 -89.5q-6 -185 -131 -291.5t-359 -99.5l-333 12zM758 821q113 -3 164.5 35.5t54.5 128.5q3 86 -48.5 128.5t-152.5 45.5
l-325 10l-13 -338zM784 229q94 -5 148 38.5t57 129.5q3 91 -59.5 140.5t-179.5 52.5l-320 10l-12 -360z" />
    <glyph glyph-name="C.three" horiz-adv-x="1294" 
d="M356 696q0 -225 97 -349t278 -124q104 0 179.5 46t82.5 122h264q-19 -190 -162.5 -300.5t-359.5 -110.5q-139 0 -255.5 48.5t-200 139t-130.5 226t-47 302.5t47 302.5t130.5 226t200 139.5t255.5 49q216 0 359.5 -111t162.5 -301h-264q-7 76 -82.5 122t-179.5 46
q-181 0 -278 -124t-97 -349z" />
    <glyph glyph-name="D.three" horiz-adv-x="1492" 
d="M176 0v1393h518q315 0 505 -188t190 -509q0 -320 -190.5 -508t-504.5 -188h-518zM680 231q220 0 337.5 117.5t117.5 347.5t-117.5 347.5t-337.5 117.5h-260v-930h260z" />
    <glyph glyph-name="E.three" horiz-adv-x="1142" 
d="M166 14l49 1393l244 -8v-2l608 -21l-8 -231l-608 20l-13 -336l611 -20l-9 -231l-610 20l-12 -360l608 -21l-8 -231l-608 20z" />
    <glyph glyph-name="F.three" horiz-adv-x="1056" 
d="M176 0v1393h809v-232h-565v-243h463v-232h-463v-686h-244z" />
    <glyph glyph-name="G.three" horiz-adv-x="1529" 
d="M725 444l-12 232l665 35l35 -676l-231 -12l-6 131q-138 -160 -388 -172q-136 -7 -258.5 36t-217.5 128.5t-155 219t-69 298.5q-8 165 36 304t128.5 233.5t202.5 149.5t256 62q265 13 432.5 -123t202.5 -393l-263 -14q-20 142 -115.5 217.5t-248.5 68.5
q-182 -9 -284.5 -141t-92.5 -352q12 -220 137.5 -340t323.5 -111q136 7 223.5 72.5t116.5 169.5z" />
    <glyph glyph-name="H.three" horiz-adv-x="1384" 
d="M176 0v1393h244v-553h545v553h243v-1393h-243v598h-545v-598h-244z" />
    <glyph glyph-name="I.three" horiz-adv-x="598" 
d="M176 0v1393h244v-1393h-244z" />
    <glyph glyph-name="J.three" horiz-adv-x="665" 
d="M506 1393v-1053q0 -187 -73.5 -273.5t-223.5 -86.5q-101 0 -199 20v223q94 -16 137 -14q68 0 92.5 24.5t24.5 75.5v1084h242z" />
    <glyph glyph-name="K.three" horiz-adv-x="1236" 
d="M176 0v1393h244v-519l446 519h293l-430 -516l426 -877h-283l-313 672l-139 -168v-504h-244z" />
    <glyph glyph-name="L.three" horiz-adv-x="1277" 
d="M176 0v1393h246v-1141h756v-252h-1002z" />
    <glyph glyph-name="M.three" horiz-adv-x="1726" 
d="M176 0v1393h399l285 -834l291 834h399v-1393h-243v1094l-406 -1094h-86l-395 1081v-1081h-244z" />
    <glyph glyph-name="N.three" horiz-adv-x="1394" 
d="M176 0l10 1393h306l473 -955v955h254v-1393h-316l-467 940l-6 -940h-254z" />
    <glyph glyph-name="O.three" horiz-adv-x="1443" 
d="M721 -20q-129 0 -242 50.5t-196.5 142t-132 227t-48.5 296.5t48 297t131.5 227.5t197 142t242.5 50.5q130 0 244 -50.5t197.5 -142t132 -227.5t48.5 -297t-48.5 -296.5t-132.5 -227t-198 -142t-243 -50.5zM721 233q169 0 273 124t104 339q0 214 -104.5 338.5
t-272.5 124.5t-271.5 -124t-103.5 -339t103.5 -339t271.5 -124z" />
    <glyph glyph-name="P.three" horiz-adv-x="1140" 
d="M176 0v1393h467q223 0 335 -106.5t112 -301.5t-112.5 -302.5t-332.5 -107.5h-225v-575h-244zM643 1161h-223v-354h217q199 0 199 178q0 84 -51 130t-142 46z" />
    <glyph glyph-name="Q.three" horiz-adv-x="1452" 
d="M729 -20q-129 0 -242 50.5t-196 142t-131.5 227t-48.5 296.5t48 297t131 227.5t196.5 142t242.5 50.5q174 0 315 -86.5t224.5 -251t83.5 -379.5q0 -189 -64.5 -339t-179.5 -244l199 -230h-308l-96 121q-83 -24 -174 -24zM729 223q164 0 265.5 127t101.5 346t-101.5 346
t-265.5 127t-264 -126.5t-100 -346.5t100 -346.5t264 -126.5z" />
    <glyph glyph-name="R.three" horiz-adv-x="1277" 
d="M176 0v1393h578q223 0 334.5 -104t111.5 -294q0 -300 -242 -370q66 -45 89 -154l30 -133q40 -175 191 -338h-322q-52 52 -79 118.5t-48 172.5l-22 117q-17 95 -54 142.5t-122 47.5h-201v-598h-244zM754 1161h-334v-332h328q198 0 198 166q0 79 -50.5 122.5t-141.5 43.5z
" />
    <glyph glyph-name="S.three" horiz-adv-x="1206" 
d="M1135 920h-258q-2 47 -10 86t-28 77.5t-50.5 65t-80.5 43t-116 16.5q-123 0 -187.5 -44.5t-64.5 -127.5q0 -54 27.5 -93t73.5 -62t105.5 -40.5t126 -32t132.5 -31t125.5 -44t105.5 -65t73.5 -98t27.5 -140.5q0 -209 -147.5 -329.5t-387.5 -120.5q-114 0 -208.5 29.5
t-156.5 78.5t-102.5 113.5t-54.5 134.5t-4 141h258q2 -62 15.5 -109.5t43.5 -87t85 -60.5t132 -21q126 0 198.5 47.5t72.5 126.5q0 49 -27.5 84t-73.5 56t-106 37t-126 31.5t-132.5 33.5t-126.5 48.5t-106 72t-73.5 108.5t-27.5 153q0 192 142.5 304t381.5 112
q141 0 248 -39.5t169.5 -108.5t91 -156.5t20.5 -188.5z" />
    <glyph glyph-name="T.three" horiz-adv-x="1110" 
d="M434 0v1161h-366v232h974v-232h-366v-1161h-242z" />
    <glyph glyph-name="U.three" horiz-adv-x="1189" 
d="M1047 1393v-953q0 -221 -119.5 -346t-335.5 -125q-112 0 -199 37t-141 103.5t-81.5 155t-27.5 194.5v934h226v-932q0 -136 55.5 -201t169.5 -65q110 0 168.5 53.5t58.5 189.5v955h226z" />
    <glyph glyph-name="V.three" horiz-adv-x="1296" 
d="M342 1393l309 -1057l316 1057h274l-436 -1393h-311l-439 1393h287z" />
    <glyph glyph-name="W.three" horiz-adv-x="1722" 
d="M289 1393l215 -944l225 944h272l222 -949l221 949h246l-338 -1393h-254l-238 965l-233 -965h-252l-342 1393h256z" />
    <glyph glyph-name="X.three" horiz-adv-x="1239" 
d="M68 1393h276l270 -447l263 447h272l-406 -656l449 -737h-277l-313 516l-283 -516h-272l426 727z" />
    <glyph glyph-name="Y.three" horiz-adv-x="1232" 
d="M494 0v688l-494 705h305l313 -473l322 473h293l-496 -705v-688h-243z" />
    <glyph glyph-name="Z.three" horiz-adv-x="1118" 
d="M86 0v221l625 940h-600v232h903v-222l-627 -940h647v-231h-948z" />
    <glyph glyph-name="AE.three" horiz-adv-x="1689" 
d="M723 0v281h-346l-125 -281h-258l567 1393h1014v-232h-608l8 -323h575v-232h-575l-8 -375h608v-231h-852zM717 1040l-240 -534h246v534h-6z" />
    <glyph glyph-name="OE.three" horiz-adv-x="1884" 
d="M102 696q0 320 204.5 508.5t541.5 188.5h921v-232h-546v-325h452v-232h-452v-373h546v-231h-921q-222 0 -390.5 83t-262 241.5t-93.5 371.5zM811 1151q-216 0 -330 -115t-114 -340t114 -339.5t330 -114.5h158v909h-158z" />
    <glyph glyph-name="Lslash.three" horiz-adv-x="1277" 
d="M176 0v608l-168 -51v223l168 51v562h246v-488l242 74v-223l-242 -74v-430h756v-252h-1002z" />
    <glyph glyph-name="Oslash.three" horiz-adv-x="1443" 
d="M104 -20v305l68 61q-70 156 -70 350q0 161 48 297t131.5 227.5t197 142t242.5 50.5q259 0 430 -180l199 180v-305l-74 -66q67 -156 67 -346q0 -161 -48.5 -296.5t-132.5 -227t-198 -142t-243 -50.5q-249 0 -422 176zM346 696q0 -81 21 -174l598 543q-97 94 -244 94
q-168 0 -271.5 -124t-103.5 -339zM721 233q169 0 273 124t104 339q0 92 -21 166l-594 -540q95 -89 238 -89z" />
    <glyph glyph-name="Eth.three" horiz-adv-x="1488" 
d="M176 0v588h-176v223h176v582h518q315 0 505 -188t190 -509q0 -320 -190.5 -508t-504.5 -188h-518zM680 231q220 0 337.5 117.5t117.5 347.5t-117.5 347.5t-337.5 117.5h-260v-350h246v-223h-246v-357h260z" />
    <glyph glyph-name="Thorn.three" horiz-adv-x="1089" 
d="M176 0v1393h244v-205h223q197 0 296 -114.5t99 -323.5t-99.5 -325t-293.5 -116h-225v-190q0 -84 12 -119h-256zM643 956h-223v-415h217q147 0 147 209q0 99 -37 152.5t-104 53.5z" />
    <glyph glyph-name="Aacute.three" horiz-adv-x="1167" 
d="M199 20l-267 11l543 1374l289 -10l442 -1409l-274 10l-125 428l-451 16zM446 680l287 -10l-127 434zM561 1782h377l-233 -287h-205z" />
    <glyph glyph-name="Acircumflex.three" horiz-adv-x="1167" 
d="M199 20l-267 11l543 1374l289 -10l442 -1409l-274 10l-125 428l-451 16zM446 680l287 -10l-127 434zM473 1782h315l164 -287h-204l-117 143l-117 -143h-205z" />
    <glyph glyph-name="Adieresis.three" horiz-adv-x="1167" 
d="M199 20l-267 11l543 1374l289 -10l442 -1409l-274 10l-125 428l-451 16zM446 680l287 -10l-127 434zM309 1761h234v-245h-234v245zM719 1761h233v-245h-233v245z" />
    <glyph glyph-name="Agrave.three" horiz-adv-x="1167" 
d="M199 20l-267 11l543 1374l289 -10l442 -1409l-274 10l-125 428l-451 16zM446 680l287 -10l-127 434zM733 1782l62 -287h-205l-234 287h377z" />
    <glyph glyph-name="Aring.three" horiz-adv-x="1167" 
d="M199 20l-267 11l543 1374l289 -10l442 -1409l-274 10l-125 428l-451 16zM446 680l287 -10l-127 434zM631 1495q-104 0 -177 75.5t-73 180.5t73 179.5t177 74.5q103 0 177.5 -75t74.5 -179t-74.5 -180t-177.5 -76zM625 1638q45 0 77.5 33.5t32.5 79.5q0 44 -32 75.5
t-78 31.5q-45 0 -78 -31.5t-33 -75.5q0 -46 33.5 -79.5t77.5 -33.5z" />
    <glyph glyph-name="Atilde.three" horiz-adv-x="1167" 
d="M199 20l-267 11l543 1374l289 -10l442 -1409l-274 10l-125 428l-451 16zM446 680l287 -10l-127 434zM270 1530q-14 120 44 191t175 71q53 0 106.5 -25.5t97.5 -51t73 -25.5q45 0 64.5 31.5t9.5 76.5l168 -20q10 -141 -52 -207t-159 -66q-38 0 -83.5 15.5t-79 34t-69 34
t-57.5 15.5q-31 0 -47 -18.5t-10 -55.5h-181z" />
    <glyph glyph-name="Abreve.three" horiz-adv-x="1167" 
d="M199 20l-267 11l543 1374l289 -10l442 -1409l-274 10l-125 428l-451 16zM446 680l287 -10l-127 434zM629 1495q-290 0 -320 287h205q0 -129 117 -129q56 0 86.5 29t30.5 100h204q-33 -287 -323 -287z" />
    <glyph glyph-name="Amacron.three" horiz-adv-x="1167" 
d="M199 20l-267 11l543 1374l289 -10l442 -1409l-274 10l-125 428l-451 16zM446 680l287 -10l-127 434zM287 1532v174h688v-174h-688z" />
    <glyph glyph-name="Aogonek.three" horiz-adv-x="1167" 
d="M199 20l-267 11l543 1374l289 -10l442 -1409l-28 2q-48 -10 -76.5 -54.5t-28.5 -87.5q0 -71 55 -71q51 0 93 47l14 -174q-58 -49 -148 -49q-88 0 -144 62t-56 134q0 112 69 201h-24l-125 428l-451 16zM446 680l287 -10l-127 434z" />
    <glyph glyph-name="Ccedilla.three" horiz-adv-x="1294" 
d="M586 -322l-117 43l160 267q-240 36 -383.5 222t-143.5 486q0 167 47 302.5t130.5 226t200 139.5t255.5 49q216 0 359.5 -111t162.5 -301h-264q-7 76 -82.5 122t-179.5 46q-181 0 -278 -124t-97 -349t97 -349t278 -124q104 0 179.5 46t82.5 122h264
q-17 -179 -147.5 -288.5t-329.5 -120.5l-73 -101q24 6 51 6q112 0 184 -68.5t72 -174.5t-86 -180t-213 -74q-122 0 -203.5 64t-75.5 173h172q-4 -41 26 -63.5t85 -22.5t85 28.5t30 78.5q0 45 -32 73.5t-79 28.5q-92 0 -137 -72z" />
    <glyph glyph-name="Cacute.three" horiz-adv-x="1294" 
d="M356 696q0 -225 97 -349t278 -124q104 0 179.5 46t82.5 122h264q-19 -190 -162.5 -300.5t-359.5 -110.5q-139 0 -255.5 48.5t-200 139t-130.5 226t-47 302.5t47 302.5t130.5 226t200 139.5t255.5 49q216 0 359.5 -111t162.5 -301h-264q-7 76 -82.5 122t-179.5 46
q-181 0 -278 -124t-97 -349zM629 1782h377l-234 -287h-205z" />
    <glyph glyph-name="Ccaron.three" horiz-adv-x="1294" 
d="M356 696q0 -225 97 -349t278 -124q104 0 179.5 46t82.5 122h264q-19 -190 -162.5 -300.5t-359.5 -110.5q-139 0 -255.5 48.5t-200 139t-130.5 226t-47 302.5t47 302.5t130.5 226t200 139.5t255.5 49q216 0 359.5 -111t162.5 -301h-264q-7 76 -82.5 122t-179.5 46
q-181 0 -278 -124t-97 -349zM541 1495l-164 287h205l116 -144l117 144h205l-164 -287h-315z" />
    <glyph glyph-name="Ccircumflex.three" horiz-adv-x="1294" 
d="M356 696q0 -225 97 -349t278 -124q104 0 179.5 46t82.5 122h264q-19 -190 -162.5 -300.5t-359.5 -110.5q-139 0 -255.5 48.5t-200 139t-130.5 226t-47 302.5t47 302.5t130.5 226t200 139.5t255.5 49q216 0 359.5 -111t162.5 -301h-264q-7 76 -82.5 122t-179.5 46
q-181 0 -278 -124t-97 -349zM541 1782h315l164 -287h-205l-117 143l-116 -143h-205z" />
    <glyph glyph-name="Cdotaccent.three" horiz-adv-x="1294" 
d="M356 696q0 -225 97 -349t278 -124q104 0 179.5 46t82.5 122h264q-19 -190 -162.5 -300.5t-359.5 -110.5q-139 0 -255.5 48.5t-200 139t-130.5 226t-47 302.5t47 302.5t130.5 226t200 139.5t255.5 49q216 0 359.5 -111t162.5 -301h-264q-7 76 -82.5 122t-179.5 46
q-181 0 -278 -124t-97 -349zM582 1761h233v-245h-233v245z" />
    <glyph glyph-name="Dcaron.three" horiz-adv-x="1492" 
d="M176 0v1393h518q315 0 505 -188t190 -509q0 -320 -190.5 -508t-504.5 -188h-518zM680 231q220 0 337.5 117.5t117.5 347.5t-117.5 347.5t-337.5 117.5h-260v-930h260zM537 1495l-164 287h205l116 -144l117 144h205l-164 -287h-315z" />
    <glyph glyph-name="Eacute.three" horiz-adv-x="1142" 
d="M166 14l49 1393l244 -8v-2l608 -21l-8 -231l-608 20l-13 -336l611 -20l-9 -231l-610 20l-12 -360l608 -21l-8 -231l-608 20zM502 1782h377l-234 -287h-205z" />
    <glyph glyph-name="Ecircumflex.three" horiz-adv-x="1142" 
d="M166 14l49 1393l244 -8v-2l608 -21l-8 -231l-608 20l-13 -336l611 -20l-9 -231l-610 20l-12 -360l608 -21l-8 -231l-608 20zM414 1782h315l164 -287h-205l-117 143l-116 -143h-205z" />
    <glyph glyph-name="Edieresis.three" horiz-adv-x="1142" 
d="M166 14l49 1393l244 -8v-2l608 -21l-8 -231l-608 20l-13 -336l611 -20l-9 -231l-610 20l-12 -360l608 -21l-8 -231l-608 20zM250 1761h233v-245h-233v245zM659 1761h234v-245h-234v245z" />
    <glyph glyph-name="Egrave.three" horiz-adv-x="1142" 
d="M166 14l49 1393l244 -8v-2l608 -21l-8 -231l-608 20l-13 -336l611 -20l-9 -231l-610 20l-12 -360l608 -21l-8 -231l-608 20zM674 1782l61 -287h-205l-233 287h377z" />
    <glyph glyph-name="Ebreve.three" horiz-adv-x="1142" 
d="M166 14l49 1393l244 -8v-2l608 -21l-8 -231l-608 20l-13 -336l611 -20l-9 -231l-610 20l-12 -360l608 -21l-8 -231l-608 20zM569 1495q-289 0 -319 287h205q0 -129 116 -129q56 0 86.5 29t30.5 100h205q-33 -287 -324 -287z" />
    <glyph glyph-name="Ecaron.three" horiz-adv-x="1142" 
d="M166 14l49 1393l244 -8v-2l608 -21l-8 -231l-608 20l-13 -336l611 -20l-9 -231l-610 20l-12 -360l608 -21l-8 -231l-608 20zM414 1495l-164 287h205l116 -144l117 144h205l-164 -287h-315z" />
    <glyph glyph-name="Edotaccent.three" horiz-adv-x="1142" 
d="M166 14l49 1393l244 -8v-2l608 -21l-8 -231l-608 20l-13 -336l611 -20l-9 -231l-610 20l-12 -360l608 -21l-8 -231l-608 20zM455 1761h233v-245h-233v245z" />
    <glyph glyph-name="Emacron.three" horiz-adv-x="1142" 
d="M166 14l49 1393l244 -8v-2l608 -21l-8 -231l-608 20l-13 -336l611 -20l-9 -231l-610 20l-12 -360l608 -21l-8 -231l-608 20zM227 1532v174h688v-174h-688z" />
    <glyph glyph-name="Eogonek.three" horiz-adv-x="1142" 
d="M166 14l49 1393l244 -8v-2l608 -21l-8 -231l-608 20l-13 -336l611 -20l-9 -231l-610 20l-12 -360l608 -21l-4 -125l55 -24v-68q-50 -7 -79 -52t-29 -89q0 -72 55 -72q50 0 92 47l14 -174q-58 -49 -147 -49q-88 0 -144.5 62t-56.5 134q0 105 58 185l-430 14z" />
    <glyph glyph-name="Gbreve.three" horiz-adv-x="1529" 
d="M725 444l-12 232l665 35l35 -676l-231 -12l-6 131q-138 -160 -388 -172q-136 -7 -258.5 36t-217.5 128.5t-155 219t-69 298.5q-8 165 36 304t128.5 233.5t202.5 149.5t256 62q265 13 432.5 -123t202.5 -393l-263 -14q-20 142 -115.5 217.5t-248.5 68.5
q-182 -9 -284.5 -141t-92.5 -352q12 -220 137.5 -340t323.5 -111q136 7 223.5 72.5t116.5 169.5zM713 1495q-290 0 -320 287h205q0 -129 117 -129q55 0 85.5 29t30.5 100h205q-33 -287 -323 -287z" />
    <glyph glyph-name="Gcircumflex.three" horiz-adv-x="1529" 
d="M725 444l-12 232l665 35l35 -676l-231 -12l-6 131q-138 -160 -388 -172q-136 -7 -258.5 36t-217.5 128.5t-155 219t-69 298.5q-8 165 36 304t128.5 233.5t202.5 149.5t256 62q265 13 432.5 -123t202.5 -393l-263 -14q-20 142 -115.5 217.5t-248.5 68.5
q-182 -9 -284.5 -141t-92.5 -352q12 -220 137.5 -340t323.5 -111q136 7 223.5 72.5t116.5 169.5zM557 1782h315l164 -287h-205l-116 143l-117 -143h-205z" />
    <glyph glyph-name="Gcommaaccent.three" horiz-adv-x="1529" 
d="M725 444l-12 232l665 35l35 -676l-231 -12l-6 131q-138 -160 -388 -172q-136 -7 -258.5 36t-217.5 128.5t-155 219t-69 298.5q-8 165 36 304t128.5 233.5t202.5 149.5t256 62q265 13 432.5 -123t202.5 -393l-263 -14q-20 142 -115.5 217.5t-248.5 68.5
q-182 -9 -284.5 -141t-92.5 -352q12 -220 137.5 -340t323.5 -111q136 7 223.5 72.5t116.5 169.5zM561 -123h307v-242q0 -133 -74 -191t-235 -58v143q69 0 107.5 28.5t38.5 73.5h-144v246z" />
    <glyph glyph-name="Gdotaccent.three" horiz-adv-x="1529" 
d="M725 444l-12 232l665 35l35 -676l-231 -12l-6 131q-138 -160 -388 -172q-136 -7 -258.5 36t-217.5 128.5t-155 219t-69 298.5q-8 165 36 304t128.5 233.5t202.5 149.5t256 62q265 13 432.5 -123t202.5 -393l-263 -14q-20 142 -115.5 217.5t-248.5 68.5
q-182 -9 -284.5 -141t-92.5 -352q12 -220 137.5 -340t323.5 -111q136 7 223.5 72.5t116.5 169.5zM598 1761h233v-245h-233v245z" />
    <glyph glyph-name="Hbar.three" horiz-adv-x="1384" 
d="M176 0v1075h-110v174h110v144h244v-144h545v144h243v-144h111v-174h-111v-1075h-243v598h-545v-598h-244zM420 840h545v235h-545v-235z" />
    <glyph glyph-name="Hcircumflex.three" horiz-adv-x="1384" 
d="M176 0v1393h244v-553h545v553h243v-1393h-243v598h-545v-598h-244zM535 1782h315l164 -287h-205l-117 143l-117 -143h-204z" />
    <glyph glyph-name="Iacute.three" horiz-adv-x="598" 
d="M176 0v1393h244v-1393h-244zM229 1782h377l-233 -287h-205z" />
    <glyph glyph-name="Icircumflex.three" horiz-adv-x="598" 
d="M176 0v1393h244v-1393h-244zM141 1782h316l164 -287h-205l-117 143l-117 -143h-205z" />
    <glyph glyph-name="Idieresis.three" horiz-adv-x="598" 
d="M176 0v1393h244v-1393h-244zM-23 1761h234v-245h-234v245zM387 1761h234v-245h-234v245z" />
    <glyph glyph-name="Igrave.three" horiz-adv-x="598" 
d="M176 0v1393h244v-1393h-244zM401 1782l62 -287h-205l-233 287h376z" />
    <glyph glyph-name="Ibreve.three" horiz-adv-x="598" 
d="M176 0v1393h244v-1393h-244zM297 1495q-290 0 -320 287h205q0 -129 117 -129q56 0 86.5 29t30.5 100h205q-33 -287 -324 -287z" />
    <glyph glyph-name="Idotaccent.three" horiz-adv-x="598" 
d="M176 0v1393h244v-1393h-244zM182 1761h234v-245h-234v245z" />
    <glyph glyph-name="Imacron.three" horiz-adv-x="598" 
d="M176 0v1393h244v-1393h-244zM-45 1532v174h688v-174h-688z" />
    <glyph glyph-name="Iogonek.three" horiz-adv-x="598" 
d="M455 -340q-58 -49 -148 -49q-88 0 -144.5 62t-56.5 134q-3 114 70 201v1385h244v-1393h-19q-50 -7 -79 -52t-29 -89q0 -72 55 -72q50 0 92 47z" />
    <glyph glyph-name="Itilde.three" horiz-adv-x="598" 
d="M176 0v1393h244v-1393h-244zM-61 1530q-14 120 44 191t175 71q53 0 106.5 -25.5t97 -51t72.5 -25.5q45 0 64.5 31.5t9.5 76.5l168 -20q10 -141 -52 -207t-159 -66q-38 0 -83.5 15.5t-79 34t-69 34t-57.5 15.5q-31 0 -47 -18.5t-10 -55.5h-180z" />
    <glyph glyph-name="Jcircumflex.three" horiz-adv-x="665" 
d="M506 1393v-1053q0 -187 -73.5 -273.5t-223.5 -86.5q-101 0 -199 20v223q94 -16 137 -14q68 0 92.5 24.5t24.5 75.5v1084h242zM256 1782h315l164 -287h-205l-116 143l-117 -143h-205z" />
    <glyph glyph-name="Kcommaaccent.three" horiz-adv-x="1236" 
d="M176 0v1393h244v-519l446 519h293l-430 -516l426 -877h-283l-313 672l-139 -168v-504h-244zM465 -123h307v-242q0 -133 -74 -191t-235 -58v143q69 0 107 28t38 74h-143v246z" />
    <glyph glyph-name="Lacute.three" horiz-adv-x="1277" 
d="M176 0v1393h246v-1141h756v-252h-1002zM258 1782h377l-234 -287h-204z" />
    <glyph glyph-name="Lcommaaccent.three" horiz-adv-x="1277" 
d="M176 0v1393h246v-1141h756v-252h-1002zM383 -123h307v-242q0 -133 -74 -191t-235 -58v143q69 0 107 28t38 74h-143v246z" />
    <glyph glyph-name="Ntilde.three" horiz-adv-x="1394" 
d="M176 0l10 1393h306l473 -955v955h254v-1393h-316l-467 940l-6 -940h-254zM317 1530q-14 120 44.5 191t175.5 71q53 0 106.5 -25.5t97 -51t72.5 -25.5q45 0 64.5 31.5t9.5 76.5l168 -20q10 -141 -52 -207t-159 -66q-38 0 -83.5 15.5t-79 34t-69 34t-57.5 15.5
q-31 0 -47 -18.5t-10 -55.5h-181z" />
    <glyph glyph-name="Nacute.three" horiz-adv-x="1394" 
d="M176 0l10 1393h306l473 -955v955h254v-1393h-316l-467 940l-6 -940h-254zM608 1782h377l-233 -287h-205z" />
    <glyph glyph-name="Ncaron.three" horiz-adv-x="1394" 
d="M176 0l10 1393h306l473 -955v955h254v-1393h-316l-467 940l-6 -940h-254zM520 1495l-164 287h205l117 -144l117 144h204l-163 -287h-316z" />
    <glyph glyph-name="Ncommaaccent.three" horiz-adv-x="1394" 
d="M176 0l10 1393h306l473 -955v955h254v-1393h-316l-467 940l-6 -940h-254zM524 -123h307v-242q0 -133 -74 -191t-235 -58v143q69 0 107.5 28.5t38.5 73.5h-144v246z" />
    <glyph glyph-name="Oacute.three" horiz-adv-x="1443" 
d="M721 -20q-129 0 -242 50.5t-196.5 142t-132 227t-48.5 296.5t48 297t131.5 227.5t197 142t242.5 50.5q130 0 244 -50.5t197.5 -142t132 -227.5t48.5 -297t-48.5 -296.5t-132.5 -227t-198 -142t-243 -50.5zM721 233q169 0 273 124t104 339q0 214 -104.5 338.5
t-272.5 124.5t-271.5 -124t-103.5 -339t103.5 -339t271.5 -124zM653 1782h377l-233 -287h-205z" />
    <glyph glyph-name="Ocircumflex.three" horiz-adv-x="1443" 
d="M721 -20q-129 0 -242 50.5t-196.5 142t-132 227t-48.5 296.5t48 297t131.5 227.5t197 142t242.5 50.5q130 0 244 -50.5t197.5 -142t132 -227.5t48.5 -297t-48.5 -296.5t-132.5 -227t-198 -142t-243 -50.5zM721 233q169 0 273 124t104 339q0 214 -104.5 338.5
t-272.5 124.5t-271.5 -124t-103.5 -339t103.5 -339t271.5 -124zM565 1782h316l163 -287h-204l-117 143l-117 -143h-205z" />
    <glyph glyph-name="Odieresis.three" horiz-adv-x="1443" 
d="M721 -20q-129 0 -242 50.5t-196.5 142t-132 227t-48.5 296.5t48 297t131.5 227.5t197 142t242.5 50.5q130 0 244 -50.5t197.5 -142t132 -227.5t48.5 -297t-48.5 -296.5t-132.5 -227t-198 -142t-243 -50.5zM721 233q169 0 273 124t104 339q0 214 -104.5 338.5
t-272.5 124.5t-271.5 -124t-103.5 -339t103.5 -339t271.5 -124zM401 1761h234v-245h-234v245zM811 1761h233v-245h-233v245z" />
    <glyph glyph-name="Ograve.three" horiz-adv-x="1443" 
d="M721 -20q-129 0 -242 50.5t-196.5 142t-132 227t-48.5 296.5t48 297t131.5 227.5t197 142t242.5 50.5q130 0 244 -50.5t197.5 -142t132 -227.5t48.5 -297t-48.5 -296.5t-132.5 -227t-198 -142t-243 -50.5zM721 233q169 0 273 124t104 339q0 214 -104.5 338.5
t-272.5 124.5t-271.5 -124t-103.5 -339t103.5 -339t271.5 -124zM825 1782l62 -287h-205l-233 287h376z" />
    <glyph glyph-name="Otilde.three" horiz-adv-x="1443" 
d="M721 -20q-129 0 -242 50.5t-196.5 142t-132 227t-48.5 296.5t48 297t131.5 227.5t197 142t242.5 50.5q130 0 244 -50.5t197.5 -142t132 -227.5t48.5 -297t-48.5 -296.5t-132.5 -227t-198 -142t-243 -50.5zM721 233q169 0 273 124t104 339q0 214 -104.5 338.5
t-272.5 124.5t-271.5 -124t-103.5 -339t103.5 -339t271.5 -124zM362 1530q-14 120 44.5 191t175.5 71q53 0 106.5 -25.5t97 -51t72.5 -25.5q45 0 64.5 31.5t9.5 76.5l168 -20q10 -141 -52 -207t-159 -66q-38 0 -83.5 15.5t-79 34t-69 34t-57.5 15.5q-31 0 -47 -18.5
t-10 -55.5h-181z" />
    <glyph glyph-name="Obreve.three" horiz-adv-x="1443" 
d="M721 -20q-129 0 -242 50.5t-196.5 142t-132 227t-48.5 296.5t48 297t131.5 227.5t197 142t242.5 50.5q130 0 244 -50.5t197.5 -142t132 -227.5t48.5 -297t-48.5 -296.5t-132.5 -227t-198 -142t-243 -50.5zM721 233q169 0 273 124t104 339q0 214 -104.5 338.5
t-272.5 124.5t-271.5 -124t-103.5 -339t103.5 -339t271.5 -124zM721 1495q-290 0 -320 287h205q0 -129 117 -129q56 0 86.5 29t30.5 100h204q-33 -287 -323 -287z" />
    <glyph glyph-name="Ohungarumlaut.three" horiz-adv-x="1443" 
d="M721 -20q-129 0 -242 50.5t-196.5 142t-132 227t-48.5 296.5t48 297t131.5 227.5t197 142t242.5 50.5q130 0 244 -50.5t197.5 -142t132 -227.5t48.5 -297t-48.5 -296.5t-132.5 -227t-198 -142t-243 -50.5zM721 233q169 0 273 124t104 339q0 214 -104.5 338.5
t-272.5 124.5t-271.5 -124t-103.5 -339t103.5 -339t271.5 -124zM827 1782h336l-213 -287h-184zM418 1782h336l-213 -287h-185z" />
    <glyph glyph-name="Omacron.three" horiz-adv-x="1443" 
d="M721 -20q-129 0 -242 50.5t-196.5 142t-132 227t-48.5 296.5t48 297t131.5 227.5t197 142t242.5 50.5q130 0 244 -50.5t197.5 -142t132 -227.5t48.5 -297t-48.5 -296.5t-132.5 -227t-198 -142t-243 -50.5zM721 233q169 0 273 124t104 339q0 214 -104.5 338.5
t-272.5 124.5t-271.5 -124t-103.5 -339t103.5 -339t271.5 -124zM379 1532v174h688v-174h-688z" />
    <glyph glyph-name="Racute.three" horiz-adv-x="1277" 
d="M176 0v1393h578q223 0 334.5 -104t111.5 -294q0 -300 -242 -370q66 -45 89 -154l30 -133q40 -175 191 -338h-322q-52 52 -79 118.5t-48 172.5l-22 117q-17 95 -54 142.5t-122 47.5h-201v-598h-244zM754 1161h-334v-332h328q198 0 198 166q0 79 -50.5 122.5t-141.5 43.5z
M569 1782h377l-233 -287h-205z" />
    <glyph glyph-name="Rcaron.three" horiz-adv-x="1277" 
d="M176 0v1393h578q223 0 334.5 -104t111.5 -294q0 -300 -242 -370q66 -45 89 -154l30 -133q40 -175 191 -338h-322q-52 52 -79 118.5t-48 172.5l-22 117q-17 95 -54 142.5t-122 47.5h-201v-598h-244zM754 1161h-334v-332h328q198 0 198 166q0 79 -50.5 122.5t-141.5 43.5z
M481 1495l-164 287h205l117 -144l117 144h205l-164 -287h-316z" />
    <glyph glyph-name="Rcommaaccent.three" horiz-adv-x="1277" 
d="M176 0v1393h578q223 0 334.5 -104t111.5 -294q0 -300 -242 -370q66 -45 89 -154l30 -133q40 -175 191 -338h-322q-52 52 -79 118.5t-48 172.5l-22 117q-17 95 -54 142.5t-122 47.5h-201v-598h-244zM754 1161h-334v-332h328q198 0 198 166q0 79 -50.5 122.5t-141.5 43.5z
M485 -123h308v-242q0 -133 -74.5 -191t-235.5 -58v143q69 0 107.5 28.5t38.5 73.5h-144v246z" />
    <glyph glyph-name="Scaron.three" horiz-adv-x="1206" 
d="M1135 920h-258q-2 47 -10 86t-28 77.5t-50.5 65t-80.5 43t-116 16.5q-123 0 -187.5 -44.5t-64.5 -127.5q0 -54 27.5 -93t73.5 -62t105.5 -40.5t126 -32t132.5 -31t125.5 -44t105.5 -65t73.5 -98t27.5 -140.5q0 -209 -147.5 -329.5t-387.5 -120.5q-114 0 -208.5 29.5
t-156.5 78.5t-102.5 113.5t-54.5 134.5t-4 141h258q2 -62 15.5 -109.5t43.5 -87t85 -60.5t132 -21q126 0 198.5 47.5t72.5 126.5q0 49 -27.5 84t-73.5 56t-106 37t-126 31.5t-132.5 33.5t-126.5 48.5t-106 72t-73.5 108.5t-27.5 153q0 192 142.5 304t381.5 112
q141 0 248 -39.5t169.5 -108.5t91 -156.5t20.5 -188.5zM444 1495l-163 287h204l117 -144l117 144h205l-164 -287h-316z" />
    <glyph glyph-name="Sacute.three" horiz-adv-x="1206" 
d="M1135 920h-258q-2 47 -10 86t-28 77.5t-50.5 65t-80.5 43t-116 16.5q-123 0 -187.5 -44.5t-64.5 -127.5q0 -54 27.5 -93t73.5 -62t105.5 -40.5t126 -32t132.5 -31t125.5 -44t105.5 -65t73.5 -98t27.5 -140.5q0 -209 -147.5 -329.5t-387.5 -120.5q-114 0 -208.5 29.5
t-156.5 78.5t-102.5 113.5t-54.5 134.5t-4 141h258q2 -62 15.5 -109.5t43.5 -87t85 -60.5t132 -21q126 0 198.5 47.5t72.5 126.5q0 49 -27.5 84t-73.5 56t-106 37t-126 31.5t-132.5 33.5t-126.5 48.5t-106 72t-73.5 108.5t-27.5 153q0 192 142.5 304t381.5 112
q141 0 248 -39.5t169.5 -108.5t91 -156.5t20.5 -188.5zM532 1782h377l-233 -287h-205z" />
    <glyph glyph-name="Scedilla.three" horiz-adv-x="1206" 
d="M489 -322l-116 43l155 263q-123 11 -218 59t-148 117.5t-75.5 151t-10.5 165.5h258q2 -62 15.5 -109.5t43.5 -87t85 -60.5t132 -21q126 0 198.5 47.5t72.5 126.5q0 49 -27.5 84t-73.5 56t-106 37t-126 31.5t-132.5 33.5t-126.5 48.5t-106 72t-73.5 108.5t-27.5 153
q0 192 142.5 304t381.5 112q141 0 248 -39.5t169.5 -108.5t91 -156.5t20.5 -188.5h-258q-2 47 -10 86t-28 77.5t-50.5 65t-80.5 43t-116 16.5q-123 0 -187.5 -44.5t-64.5 -127.5q0 -54 27.5 -93t73.5 -62t105.5 -40.5t126 -32t132.5 -31t125.5 -44t105.5 -65t73.5 -98
t27.5 -140.5q0 -189 -122.5 -306.5t-328.5 -139.5l-76 -103q24 6 52 6q112 0 184 -68.5t72 -174.5t-86.5 -180t-213.5 -74q-121 0 -202.5 63.5t-75.5 173.5h172q-4 -41 26 -63.5t85 -22.5t84.5 28.5t29.5 78.5q0 45 -31.5 73.5t-78.5 28.5q-93 0 -138 -72z" />
    <glyph glyph-name="Scircumflex.three" horiz-adv-x="1206" 
d="M1135 920h-258q-2 47 -10 86t-28 77.5t-50.5 65t-80.5 43t-116 16.5q-123 0 -187.5 -44.5t-64.5 -127.5q0 -54 27.5 -93t73.5 -62t105.5 -40.5t126 -32t132.5 -31t125.5 -44t105.5 -65t73.5 -98t27.5 -140.5q0 -209 -147.5 -329.5t-387.5 -120.5q-114 0 -208.5 29.5
t-156.5 78.5t-102.5 113.5t-54.5 134.5t-4 141h258q2 -62 15.5 -109.5t43.5 -87t85 -60.5t132 -21q126 0 198.5 47.5t72.5 126.5q0 49 -27.5 84t-73.5 56t-106 37t-126 31.5t-132.5 33.5t-126.5 48.5t-106 72t-73.5 108.5t-27.5 153q0 192 142.5 304t381.5 112
q141 0 248 -39.5t169.5 -108.5t91 -156.5t20.5 -188.5zM444 1782h316l164 -287h-205l-117 143l-117 -143h-204z" />
    <glyph glyph-name="uni0218.three" horiz-adv-x="1206" 
d="M1135 920h-258q-2 47 -10 86t-28 77.5t-50.5 65t-80.5 43t-116 16.5q-123 0 -187.5 -44.5t-64.5 -127.5q0 -54 27.5 -93t73.5 -62t105.5 -40.5t126 -32t132.5 -31t125.5 -44t105.5 -65t73.5 -98t27.5 -140.5q0 -209 -147.5 -329.5t-387.5 -120.5q-114 0 -208.5 29.5
t-156.5 78.5t-102.5 113.5t-54.5 134.5t-4 141h258q2 -62 15.5 -109.5t43.5 -87t85 -60.5t132 -21q126 0 198.5 47.5t72.5 126.5q0 49 -27.5 84t-73.5 56t-106 37t-126 31.5t-132.5 33.5t-126.5 48.5t-106 72t-73.5 108.5t-27.5 153q0 192 142.5 304t381.5 112
q141 0 248 -39.5t169.5 -108.5t91 -156.5t20.5 -188.5zM449 -123h307v-242q0 -133 -74.5 -191t-235.5 -58v143q69 0 107.5 28.5t38.5 73.5h-143v246z" />
    <glyph glyph-name="Tbar.three" horiz-adv-x="1110" 
d="M434 0v659h-223v175h223v327h-366v232h974v-232h-366v-327h223v-175h-223v-659h-242z" />
    <glyph glyph-name="Tcaron.three" horiz-adv-x="1110" 
d="M434 0v1161h-366v232h974v-232h-366v-1161h-242zM397 1495l-164 287h205l117 -144l117 144h205l-164 -287h-316z" />
    <glyph glyph-name="uni0162.three" horiz-adv-x="1110" 
d="M434 0v1161h-366v232h974v-232h-366v-1161h-242zM401 -123h308v-242q0 -133 -74.5 -191t-235.5 -58v143q69 0 107.5 28.5t38.5 73.5h-144v246z" />
    <glyph glyph-name="uni021A.three" horiz-adv-x="1110" 
d="M434 0v1161h-366v232h974v-232h-366v-1161h-242zM401 -123h308v-242q0 -133 -74.5 -191t-235.5 -58v143q69 0 107.5 28.5t38.5 73.5h-144v246z" />
    <glyph glyph-name="Uacute.three" horiz-adv-x="1189" 
d="M1047 1393v-953q0 -221 -119.5 -346t-335.5 -125q-112 0 -199 37t-141 103.5t-81.5 155t-27.5 194.5v934h226v-932q0 -136 55.5 -201t169.5 -65q110 0 168.5 53.5t58.5 189.5v955h226zM584 1782h377l-234 -287h-205z" />
    <glyph glyph-name="Ucircumflex.three" horiz-adv-x="1189" 
d="M1047 1393v-953q0 -221 -119.5 -346t-335.5 -125q-112 0 -199 37t-141 103.5t-81.5 155t-27.5 194.5v934h226v-932q0 -136 55.5 -201t169.5 -65q110 0 168.5 53.5t58.5 189.5v955h226zM496 1782h315l164 -287h-205l-117 143l-116 -143h-205z" />
    <glyph glyph-name="Udieresis.three" horiz-adv-x="1189" 
d="M1047 1393v-953q0 -221 -119.5 -346t-335.5 -125q-112 0 -199 37t-141 103.5t-81.5 155t-27.5 194.5v934h226v-932q0 -136 55.5 -201t169.5 -65q110 0 168.5 53.5t58.5 189.5v955h226zM332 1761h233v-245h-233v245zM741 1761h234v-245h-234v245z" />
    <glyph glyph-name="Ugrave.three" horiz-adv-x="1189" 
d="M1047 1393v-953q0 -221 -119.5 -346t-335.5 -125q-112 0 -199 37t-141 103.5t-81.5 155t-27.5 194.5v934h226v-932q0 -136 55.5 -201t169.5 -65q110 0 168.5 53.5t58.5 189.5v955h226zM756 1782l61 -287h-205l-233 287h377z" />
    <glyph glyph-name="Ubreve.three" horiz-adv-x="1189" 
d="M1047 1393v-953q0 -221 -119.5 -346t-335.5 -125q-112 0 -199 37t-141 103.5t-81.5 155t-27.5 194.5v934h226v-932q0 -136 55.5 -201t169.5 -65q110 0 168.5 53.5t58.5 189.5v955h226zM651 1495q-289 0 -319 287h205q0 -129 116 -129q56 0 86.5 29t30.5 100h205
q-33 -287 -324 -287z" />
    <glyph glyph-name="Uhungarumlaut.three" horiz-adv-x="1189" 
d="M1047 1393v-953q0 -221 -119.5 -346t-335.5 -125q-112 0 -199 37t-141 103.5t-81.5 155t-27.5 194.5v934h226v-932q0 -136 55.5 -201t169.5 -65q110 0 168.5 53.5t58.5 189.5v955h226zM758 1782h336l-213 -287h-185zM348 1782h336l-213 -287h-184z" />
    <glyph glyph-name="Umacron.three" horiz-adv-x="1189" 
d="M1047 1393v-953q0 -221 -119.5 -346t-335.5 -125q-112 0 -199 37t-141 103.5t-81.5 155t-27.5 194.5v934h226v-932q0 -136 55.5 -201t169.5 -65q110 0 168.5 53.5t58.5 189.5v955h226zM309 1532v174h688v-174h-688z" />
    <glyph glyph-name="Uogonek.three" horiz-adv-x="1189" 
d="M1047 1393v-953q0 -178 -79 -295t-225 -157q-34 -19 -53.5 -56.5t-19.5 -72.5q0 -72 55 -72q50 0 92 47l14 -174q-58 -49 -147 -49q-88 0 -144.5 62t-56.5 134q0 94 45 166q-191 20 -288 151.5t-97 334.5v934h226v-932q0 -136 55.5 -201t169.5 -65q110 0 168.5 53.5
t58.5 189.5v955h226z" />
    <glyph glyph-name="Uring.three" horiz-adv-x="1189" 
d="M1047 1393v-953q0 -221 -119.5 -346t-335.5 -125q-112 0 -199 37t-141 103.5t-81.5 155t-27.5 194.5v934h226v-932q0 -136 55.5 -201t169.5 -65q110 0 168.5 53.5t58.5 189.5v955h226zM653 1495q-104 0 -177 75.5t-73 180.5t73 179.5t177 74.5q103 0 177.5 -75t74.5 -179
t-74.5 -180t-177.5 -76zM647 1638q46 0 78.5 33.5t32.5 79.5q0 44 -32.5 75.5t-78.5 31.5q-45 0 -77.5 -31.5t-32.5 -75.5q0 -46 33 -79.5t77 -33.5z" />
    <glyph glyph-name="Utilde.three" horiz-adv-x="1189" 
d="M1047 1393v-953q0 -221 -119.5 -346t-335.5 -125q-112 0 -199 37t-141 103.5t-81.5 155t-27.5 194.5v934h226v-932q0 -136 55.5 -201t169.5 -65q110 0 168.5 53.5t58.5 189.5v955h226zM293 1530q-14 120 44 191t175 71q53 0 106.5 -25.5t97 -51t72.5 -25.5
q45 0 64.5 31.5t9.5 76.5l168 -20q10 -141 -52 -207t-159 -66q-38 0 -83.5 15.5t-79 34t-69 34t-57.5 15.5q-31 0 -47 -18.5t-10 -55.5h-180z" />
    <glyph glyph-name="Wacute.three" horiz-adv-x="1722" 
d="M289 1393l215 -944l225 944h272l222 -949l221 949h246l-338 -1393h-254l-238 965l-233 -965h-252l-342 1393h256zM793 1782h376l-233 -287h-205z" />
    <glyph glyph-name="Wcircumflex.three" horiz-adv-x="1722" 
d="M289 1393l215 -944l225 944h272l222 -949l221 949h246l-338 -1393h-254l-238 965l-233 -965h-252l-342 1393h256zM705 1782h315l164 -287h-205l-117 143l-117 -143h-204z" />
    <glyph glyph-name="Wdieresis.three" horiz-adv-x="1722" 
d="M289 1393l215 -944l225 944h272l222 -949l221 949h246l-338 -1393h-254l-238 965l-233 -965h-252l-342 1393h256zM541 1761h233v-245h-233v245zM950 1761h234v-245h-234v245z" />
    <glyph glyph-name="Wgrave.three" horiz-adv-x="1722" 
d="M289 1393l215 -944l225 944h272l222 -949l221 949h246l-338 -1393h-254l-238 965l-233 -965h-252l-342 1393h256zM965 1782l61 -287h-205l-233 287h377z" />
    <glyph glyph-name="Yacute.three" horiz-adv-x="1232" 
d="M494 0v688l-494 705h305l313 -473l322 473h293l-496 -705v-688h-243zM547 1782h377l-234 -287h-205z" />
    <glyph glyph-name="Ydieresis.three" horiz-adv-x="1232" 
d="M494 0v688l-494 705h305l313 -473l322 473h293l-496 -705v-688h-243zM295 1761h233v-245h-233v245zM705 1761h233v-245h-233v245z" />
    <glyph glyph-name="Ycircumflex.three" horiz-adv-x="1232" 
d="M494 0v688l-494 705h305l313 -473l322 473h293l-496 -705v-688h-243zM459 1782h315l164 -287h-205l-117 143l-116 -143h-205z" />
    <glyph glyph-name="Ygrave.three" horiz-adv-x="1232" 
d="M494 0v688l-494 705h305l313 -473l322 473h293l-496 -705v-688h-243zM719 1782l61 -287h-205l-233 287h377z" />
    <glyph glyph-name="Zcaron.three" horiz-adv-x="1118" 
d="M86 0v221l625 940h-600v232h903v-222l-627 -940h647v-231h-948zM401 1495l-163 287h204l117 -144l117 144h205l-164 -287h-316z" />
    <glyph glyph-name="Zacute.three" horiz-adv-x="1118" 
d="M86 0v221l625 940h-600v232h903v-222l-627 -940h647v-231h-948zM489 1782h377l-233 -287h-205z" />
    <glyph glyph-name="Zdotaccent.three" horiz-adv-x="1118" 
d="M86 0v221l625 940h-600v232h903v-222l-627 -940h647v-231h-948zM442 1761h234v-245h-234v245z" />
    <glyph glyph-name="idotaccent" horiz-adv-x="479" 
d="M123 1024h233v-1024h-233v1024zM123 1413h233v-246h-233v246z" />
    <glyph glyph-name="i.dot" horiz-adv-x="479" 
d="M123 1413h233v-246h-233v246zM123 1024h233v-1024h-233v1024z" />
    <glyph glyph-name="schwa" horiz-adv-x="1091" 
d="M1026 520q0 -103 -34.5 -200.5t-95 -173t-151 -121t-194.5 -45.5q-217 0 -343 151t-136 434h727q-13 128 -83.5 191t-178.5 63q-164 0 -228 -143h-225q4 44 21.5 91.5t54.5 97.5t87 89.5t125 64.5t163 25q145 0 258.5 -73t173 -192t59.5 -259zM543 164q86 0 149 48.5
t90 147.5h-469q10 -93 70.5 -144.5t159.5 -51.5z" />
    <glyph glyph-name="a.superior" horiz-adv-x="1069" 
d="M864 831q0 -71 86 -71q24 0 76 10v-180q-74 -10 -119 -10q-78 0 -120.5 19t-71.5 67q-71 -52 -133.5 -72.5t-132.5 -20.5q-140 0 -236 81t-96 192q0 250 397 250h166v39q0 66 -49.5 106.5t-126.5 40.5q-79 0 -120.5 -37.5t-41.5 -109.5h-205q0 129 105 203.5t266 74.5
q154 0 255 -67t101 -193v-322zM322 825q0 -50 43.5 -85t111.5 -35q94 0 148.5 60t54.5 120v69q-142 6 -223 -9.5t-108 -43.5t-27 -76z" />
    <glyph glyph-name="o.superior" horiz-adv-x="1017" 
d="M100 995q0 112 48 206.5t142.5 154t217.5 59.5q124 0 219 -59.5t143 -154t48 -206.5q0 -79 -26.5 -153.5t-76 -135t-129.5 -97t-178 -36.5t-177.5 36.5t-128.5 97t-75.5 135t-26.5 153.5zM729 993q0 110 -60 176t-161 66q-100 0 -159.5 -66t-59.5 -176q0 -116 59 -177.5
t160 -61.5t161 61.5t60 177.5z" />
    <glyph glyph-name="grave.cap" 
d="M614 1782l62 -287h-205l-233 287h376z" />
    <glyph glyph-name="acute.cap" 
d="M442 1782h377l-233 -287h-205z" />
    <glyph glyph-name="circumflex.cap" 
d="M354 1782h316l164 -287h-205l-117 143l-117 -143h-205z" />
    <glyph glyph-name="caron.cap" 
d="M354 1495l-164 287h205l117 -144l117 144h205l-164 -287h-316z" />
    <glyph glyph-name="caron.alt" 
d="M371 797l71 596h228l-133 -596h-166z" />
    <glyph glyph-name="caron.alt.cap" 
d="M371 797l71 596h228l-133 -596h-166z" />
    <glyph glyph-name="tilde.cap" 
d="M152 1530q-14 120 44 191t175 71q53 0 106.5 -25.5t97 -51t72.5 -25.5q45 0 64.5 31.5t9.5 76.5l168 -20q10 -141 -52 -207t-159 -66q-38 0 -83.5 15.5t-79 34t-69 34t-57.5 15.5q-31 0 -47 -18.5t-10 -55.5h-180z" />
    <glyph glyph-name="dieresis.cap" 
d="M190 1761h234v-245h-234v245zM600 1761h234v-245h-234v245z" />
    <glyph glyph-name="macron.cap" 
d="M168 1532v174h688v-174h-688z" />
    <glyph glyph-name="breve.cap" 
d="M510 1495q-290 0 -320 287h205q0 -129 117 -129q56 0 86.5 29t30.5 100h205q-33 -287 -324 -287z" />
    <glyph glyph-name="ring.cap" 
d="M512 1495q-104 0 -177 75.5t-73 180.5t73 179.5t177 74.5q103 0 177.5 -75t74.5 -179t-74.5 -180t-177.5 -76zM506 1638q45 0 77.5 33.5t32.5 79.5q0 44 -32 75.5t-78 31.5q-45 0 -78 -31.5t-33 -75.5q0 -46 33.5 -79.5t77.5 -33.5z" />
    <glyph glyph-name="hungarumlaut.cap" 
d="M616 1782h336l-213 -287h-184zM207 1782h336l-213 -287h-185z" />
    <glyph glyph-name="dotaccent.cap" 
d="M395 1761h234v-245h-234v245z" />
    <glyph glyph-name="cedilla.cap" 
d="M399 -322l-116 43l176 295l155 -8l-94 -127q24 6 51 6q112 0 184 -68.5t72 -174.5t-86 -180t-213 -74q-121 0 -202.5 63.5t-75.5 173.5h172q-4 -41 25.5 -63.5t84.5 -22.5t85 28.5t30 78.5q0 45 -31.5 73.5t-78.5 28.5q-93 0 -138 -72z" />
    <glyph glyph-name="ogonek.cap" 
d="M506 115l108 -47v-68q-50 -7 -79 -52t-29 -89q0 -72 55 -72q50 0 92 47l15 -174q-58 -49 -148 -49q-88 0 -144.5 62t-56.5 134q0 88 41.5 159.5t145.5 148.5z" />
    <glyph glyph-name="revcommaaccent" 
d="M664 1495h-308v242q0 133 74.5 191.5t235.5 58.5v-144q-69 0 -107.5 -28.5t-38.5 -73.5h144v-246z" />
    <glyph glyph-name="commaaccent.cap" 
d="M358 -123h308v-242q0 -133 -74.5 -191t-235.5 -58v143q69 0 107.5 28.5t38.5 73.5h-144v246z" />
    <glyph glyph-name="colon.salt" horiz-adv-x="471" 
d="M82 1178h287v-287h-287v287zM102 440h287v-286h-287v286z" />
    <glyph glyph-name="hyphen.cap" horiz-adv-x="718" 
d="M45 604v184h629v-184h-629z" />
    <glyph glyph-name="exclamdown.cap" horiz-adv-x="512" 
d="M113 1106v287h286v-287h-286zM143 950h226l30 -950h-286z" />
    <glyph glyph-name="questiondown.cap" horiz-adv-x="1021" 
d="M649 1106h-287v287h287v-287zM641 950v-28q0 -52 -30.5 -104.5t-73.5 -98t-86.5 -93t-74 -107t-30.5 -122.5q0 -90 48 -139t141 -49q190 0 184 258l278 -59q-19 -207 -140.5 -317.5t-332.5 -110.5q-216 0 -344.5 107t-128.5 265q0 84 34.5 159.5t81.5 128.5t93.5 100
t75 92t20.5 86l-6 32h291z" />
    <glyph glyph-name="guilsinglleft.cap" 
d="M819 1182v-242l-454 -244l454 -243v-242l-700 381v209z" />
    <glyph glyph-name="guilsinglright.cap" 
d="M205 1182l700 -381v-209l-700 -381v242l454 243l-454 244v242z" />
    <glyph glyph-name="guillemotleft.cap" horiz-adv-x="1464" 
d="M1331 1182v-242l-368 -244l368 -243v-242l-598 381v209zM717 1182v-242l-369 -244l369 -243v-242l-598 381v209z" />
    <glyph glyph-name="guillemotright.cap" horiz-adv-x="1464" 
d="M133 1182l598 -381v-209l-598 -381v242l369 243l-369 244v242zM748 1182l598 -381v-209l-598 -381v242l368 243l-368 244v242z" />
    <glyph glyph-name="endash.cap" horiz-adv-x="1114" 
d="M45 604v184h1024v-184h-1024z" />
    <glyph glyph-name="emdash.cap" horiz-adv-x="2138" 
d="M45 604v184h2048v-184h-2048z" />
    <glyph glyph-name="periodcentered.cap" 
d="M395 819h234v-246h-234v246z" />
    <glyph glyph-name="parenleft.cap" horiz-adv-x="595" 
d="M340 -154q-105 185 -166.5 409.5t-62.5 440.5q-1 214 52 407t177 443h205q-228 -467 -228 -852q0 -198 64.5 -435.5t163.5 -412.5h-205z" />
    <glyph glyph-name="parenright.cap" horiz-adv-x="595" 
d="M256 1546q105 -185 166.5 -409.5t62.5 -440.5q1 -214 -52 -407t-177 -443h-205q228 467 228 852q0 198 -64.5 435.5t-163.5 412.5h205z" />
    <glyph glyph-name="bracketleft.cap" horiz-adv-x="602" 
d="M111 1546h430v-184h-246v-1331h246v-185h-430v1700z" />
    <glyph glyph-name="bracketright.cap" horiz-adv-x="602" 
d="M492 1546v-1700h-431v185h246v1331h-246v184h431z" />
    <glyph glyph-name="braceleft.cap" horiz-adv-x="595" 
d="M233 422q0 84 -36.5 123t-94.5 39v225q58 0 94.5 39t36.5 123q0 70 -29.5 177t-29.5 175q0 126 84 225h209q-94 -112 -94 -237q0 -59 25.5 -159t25.5 -169q0 -101 -42.5 -178.5t-127.5 -108.5q85 -31 127.5 -108t42.5 -178q0 -69 -25.5 -169t-25.5 -159q0 -126 94 -238
h-209q-84 99 -84 226q0 68 29.5 175t29.5 177z" />
    <glyph glyph-name="braceright.cap" horiz-adv-x="595" 
d="M362 422q0 -70 30 -177t30 -175q0 -127 -84 -226h-209q94 112 94 238q0 59 -25.5 159t-25.5 169q0 101 42.5 178t127.5 108q-85 31 -127.5 108.5t-42.5 178.5q0 69 25.5 169t25.5 159q0 125 -94 237h209q84 -99 84 -225q0 -68 -30 -175t-30 -177q0 -84 37 -123t95 -39
v-225q-58 0 -95 -39t-37 -123z" />
    <glyph glyph-name="zero.slash" horiz-adv-x="1323" 
d="M39 -20v305l108 98q-45 137 -45 313q0 175 44 314t120.5 226t176.5 132t216 45q123 0 229 -49t181 -145l215 194v-305l-108 -98q45 -137 45 -314q0 -175 -44.5 -314t-122.5 -225.5t-178.5 -131.5t-216.5 -45q-121 0 -225.5 49t-179.5 145zM356 696q0 -62 6 -118l519 469
q-79 114 -222 114q-150 0 -226.5 -125t-76.5 -340zM659 231q151 0 228.5 125.5t77.5 339.5q0 52 -7 117l-518 -469q80 -113 219 -113z" />
    <glyph glyph-name="numbersign.LP" horiz-adv-x="1323" 
d="M139 0l103 348h-144v184h197l98 328h-172v184h225l103 349h213l-103 -349h209l103 349h213l-103 -349h144v-184h-197l-98 -328h172v-184h-225l-103 -348h-213l103 348h-209l-103 -348h-213zM508 532h209l98 328h-209z" />
    <glyph glyph-name="Euro.LP" horiz-adv-x="1347" 
d="M61 455l50 184h122v104h-137l49 185h109q46 235 181.5 360t322.5 125q222 0 353.5 -145.5t154.5 -425.5h-275q-19 327 -235 327q-89 0 -151.5 -60.5t-92.5 -180.5h358l-49 -185h-334v-47q0 -39 2 -57h293l-49 -184h-219q58 -232 234 -232q101 0 165.5 77t96.5 237h256
q-28 -256 -172.5 -406.5t-356.5 -150.5q-188 0 -314.5 118.5t-168.5 356.5h-193z" />
    <glyph glyph-name="dollar.LP" horiz-adv-x="1323" 
d="M1167 952h-245q-4 36 -8 62t-15.5 60.5t-27.5 58.5t-44.5 46.5t-66.5 34.5v-372q52 -8 89.5 -15.5t86 -22.5t82 -34t69 -50t57 -70.5t35 -95.5t13.5 -124q0 -186 -116.5 -302.5t-315.5 -141.5v-150h-185v148q-121 11 -214 56t-145.5 111t-74.5 144.5t-10 161.5h258
q3 -49 7 -79.5t15.5 -69t30.5 -62.5t52.5 -44.5t80.5 -29.5v414q-50 9 -87.5 18t-83.5 25.5t-79 36.5t-66.5 51.5t-54 70.5t-33.5 94t-13 122q0 161 113.5 273t303.5 132v147h185v-149q218 -25 319.5 -147t87.5 -308zM416 1036q0 -69 41 -106t118 -56v347q-79 -17 -119 -66
t-40 -119zM936 369q0 76 -45.5 116.5t-130.5 63.5v-377q91 19 133.5 72t42.5 125z" />
    <glyph glyph-name="cent.LP" horiz-adv-x="950" 
d="M82 696q0 163 86 280t221 150v267h184v-267q58 -14 107 -47t79 -70t54 -85t35.5 -82.5t19.5 -71.5h-213q-17 99 -82 135v-416q63 31 99 129h194q0 -100 -80 -202.5t-213 -134.5v-281h-184v279q-135 32 -221 149.5t-86 267.5zM287 700q0 -151 102 -206v417
q-102 -50 -102 -211z" />
    <glyph glyph-name="sterling.LP" horiz-adv-x="1323" 
d="M197 696h122q-73 138 -73 267q0 207 126.5 328.5t334.5 121.5q227 0 353 -140t134 -370h-274q-2 123 -58 194.5t-166 71.5q-96 -2 -146 -53.5t-50 -152.5q0 -35 10.5 -73.5t20 -60.5t34.5 -69.5t33 -63.5h377v-184h-320q4 -36 4 -61q0 -146 -86 -232l594 12v-231h-962
v201q201 97 201 270q0 11 -5 41h-204v184z" />
    <glyph glyph-name="florin.LP" horiz-adv-x="1064" 
d="M410 311v291h-328v184h328v385q0 40 14 80t42.5 77.5t82 61t123.5 23.5q107 0 202 -33v-225q-54 25 -116 25q-60 0 -91.5 -26t-31.5 -73v-295h348v-184h-348v-381q0 -40 -14 -79.5t-42.5 -77t-82 -61t-123.5 -23.5q-108 0 -203 32v226q64 -25 117 -25q61 0 92 25.5
t31 72.5z" />
    <glyph glyph-name="yen.LP" horiz-adv-x="1323" 
d="M150 338v184h344v82h-344v184h270l-420 605h305l313 -523l322 523h293l-420 -605h268v-184h-344v-82h344v-184h-344v-338h-243v338h-344z" />
    <glyph glyph-name="zero.slashLP" horiz-adv-x="1323" 
d="M39 -20v305l108 98q-45 137 -45 313q0 175 44 314t120.5 226t176.5 132t216 45q123 0 229 -49t181 -145l215 194v-305l-108 -98q45 -137 45 -314q0 -175 -44.5 -314t-122.5 -225.5t-178.5 -131.5t-216.5 -45q-121 0 -225.5 49t-179.5 145zM356 696q0 -62 6 -118l519 469
q-79 114 -222 114q-150 0 -226.5 -125t-76.5 -340zM659 231q151 0 228.5 125.5t77.5 339.5q0 52 -7 117l-518 -469q80 -113 219 -113z" />
    <glyph glyph-name="zero.LP" horiz-adv-x="1323" 
d="M659 -20q-115 0 -215 45t-177 131.5t-121 225.5t-44 314t44 314t120.5 226t176.5 132t216 45q117 0 217.5 -45t178 -132t122 -226t44.5 -314t-44.5 -314t-122.5 -225.5t-178.5 -131.5t-216.5 -45zM659 231q151 0 228.5 125.5t77.5 339.5t-77.5 339.5t-228.5 125.5
q-150 0 -226.5 -125t-76.5 -340t76.5 -340t226.5 -125z" />
    <glyph glyph-name="one.LP" horiz-adv-x="768" 
d="M346 0v1004h-285v163q74 6 133.5 26t94.5 44t61.5 56.5t37 54t18.5 45.5h184v-1393h-244z" />
    <glyph glyph-name="two.LP" horiz-adv-x="1124" 
d="M72 0v205l463 411q57 50 87 78t67 67.5t54.5 69t30 67t12.5 77.5q0 90 -60.5 151.5t-172.5 61.5q-119 0 -180.5 -78.5t-63.5 -230.5h-246q-7 124 28 225.5t104 168.5t165 103.5t211 36.5q111 0 201 -33.5t146.5 -90.5t87 -130t30.5 -155q0 -160 -78 -283t-221 -238
l-295 -237h600v-246h-970z" />
    <glyph glyph-name="three.LP" horiz-adv-x="1165" 
d="M461 821h114q92 0 151.5 55t59.5 136q0 79 -51.5 127.5t-165.5 48.5q-65 0 -110 -19t-71 -56.5t-39 -83t-19 -109.5h-246q-6 71 11.5 141.5t59.5 134t102.5 112t147 77t187.5 28.5q110 0 199.5 -34t144 -88.5t84 -118.5t29.5 -130q0 -103 -43.5 -185t-133.5 -124
q205 -99 205 -303q0 -89 -34 -170t-96.5 -143.5t-159.5 -99.5t-216 -37q-101 0 -187.5 28.5t-147 77t-102.5 112t-59.5 134t-11.5 141.5h246q-5 -114 63 -191t197 -77q117 0 177.5 61.5t60.5 163.5q0 91 -59.5 149t-172.5 58h-114v184z" />
    <glyph glyph-name="four.LP" horiz-adv-x="1175" 
d="M41 332v205l608 856h264v-856h181v-205h-181v-332h-264v332h-608zM272 537h377v516z" />
    <glyph glyph-name="five.LP" horiz-adv-x="1153" 
d="M362 608h-253q66 416 73 783l840 2v-246h-631l-24 -289q111 78 278 78q193 0 309.5 -129.5t116.5 -335.5q0 -103 -38 -193t-104.5 -156t-162.5 -104t-207 -38q-76 0 -148.5 22.5t-133.5 66.5t-104 104t-61 141t-3 171h225q-12 -134 52.5 -207t184.5 -73q115 0 180.5 75.5
t65.5 188.5q0 118 -60.5 197t-181.5 79q-89 0 -143.5 -43t-69.5 -94z" />
    <glyph glyph-name="six.LP" horiz-adv-x="1241" 
d="M1118 471q0 -138 -58.5 -249t-170.5 -176.5t-258 -65.5q-242 0 -385.5 190t-143.5 506q0 342 158 539.5t420 197.5q102 0 185 -33.5t134.5 -89t79 -124.5t27.5 -144h-246q-31 168 -221 168q-138 0 -217 -99.5t-88 -304.5q66 78 151 120t207 42q192 0 309 -135t117 -342z
M635 709q-116 0 -172.5 -74.5t-56.5 -190.5t56.5 -190t172.5 -74t172.5 74t56.5 190t-56.5 190.5t-172.5 74.5z" />
    <glyph glyph-name="seven.LP" 
d="M41 1393h983v-164q-75 -58 -130.5 -111t-116.5 -129t-103.5 -167.5t-78.5 -209.5t-53.5 -272.5t-17.5 -339.5h-323q0 150 27 298t71.5 270t104 234t122 196t129.5 149h-614v246z" />
    <glyph glyph-name="eight.LP" horiz-adv-x="1200" 
d="M598 -20q-138 0 -250 49t-179 144t-67 220q0 112 54 200t149 142q-76 49 -119 122.5t-43 166.5q0 173 122.5 281t332.5 108q212 0 335.5 -108t123.5 -281q0 -93 -43 -166.5t-119 -120.5q97 -53 150 -141t53 -203q0 -189 -139 -301t-361 -112zM598 846q96 0 149.5 43.5
t53.5 126.5t-53.5 126.5t-149.5 43.5q-95 0 -148 -43.5t-53 -126.5t53 -126.5t148 -43.5zM598 182q108 0 176 60.5t68 154.5t-68 155.5t-176 61.5t-175 -61t-67 -156q0 -94 67 -154.5t175 -60.5z" />
    <glyph glyph-name="nine.LP" horiz-adv-x="1241" 
d="M123 922q0 138 58.5 249t171.5 176.5t261 65.5q239 0 382 -190t143 -506q0 -342 -158 -539.5t-420 -197.5q-207 0 -324 112.5t-102 278.5h246q4 -62 53 -115t148 -53q133 0 217 102.5t104 296.5q-134 -158 -354 -158q-204 0 -315 133t-111 345zM612 655q116 0 173 74.5
t57 190.5t-57 190t-173 74t-172.5 -74t-56.5 -190t56.5 -190.5t172.5 -74.5z" />
    </font>
</defs>
</svg>
